<?xml version="1.0" encoding="UTF-8" standalone="no"?>
<svg
   xmlns:dc="http://purl.org/dc/elements/1.1/"
   xmlns:cc="http://creativecommons.org/ns#"
   xmlns:rdf="http://www.w3.org/1999/02/22-rdf-syntax-ns#"
   xmlns:svg="http://www.w3.org/2000/svg"
   xmlns="http://www.w3.org/2000/svg"
   xmlns:sodipodi="http://sodipodi.sourceforge.net/DTD/sodipodi-0.dtd"
   xmlns:inkscape="http://www.inkscape.org/namespaces/inkscape"
   sodipodi:docname="chardonnay.svg"
   inkscape:version="1.0 (4035a4fb49, 2020-05-01)"
   id="svg4866"
   version="1.1"
   viewBox="0 0 90 50"
   height="50mm"
   width="90mm">
  <defs
     id="defs4860">
    <clipPath
       clipPathUnits="userSpaceOnUse"
       id="clipPath4426">
      <rect
         y="33.846336"
         x="224.79062"
         height="211.51077"
         width="56.821796"
         id="rect4428"
         style="display:none;fill:#ffff00;fill-opacity:1;stroke-width:0;stroke-miterlimit:4;stroke-dasharray:none" />
      <path
         id="lpe_path-effect4430"
         style="fill:#ffff00;fill-opacity:1;stroke-width:0;stroke-miterlimit:4;stroke-dasharray:none"
         class="powerclip"
         d="M 170.74166,48.724682 H 280.6323 V 243.94553 H 170.74166 Z M 224.79062,33.846336 V 245.35711 h 56.8218 V 33.846336 Z" />
    </clipPath>
    <clipPath
       clipPathUnits="userSpaceOnUse"
       id="clipPath4434">
      <rect
         y="30.462763"
         x="21.147821"
         height="207.41371"
         width="58.064548"
         id="rect4436"
         style="display:block;fill:#ffff00;fill-opacity:1;stroke-width:0;stroke-miterlimit:4;stroke-dasharray:none" />
    </clipPath>
    <inkscape:path-effect
       effect="powerclip"
       id="path-effect4438"
       is_visible="true"
       lpeversion="1"
       inverse="true"
       flatten="false"
       hide_clip="false"
       message="Use fill-rule evenodd on &lt;b&gt;fill and stroke&lt;/b&gt; dialog if no flatten result after convert clip to paths." />
    <clipPath
       clipPathUnits="userSpaceOnUse"
       id="clipPath4418">
      <rect
         y="157.56874"
         x="465.69931"
         height="214.80771"
         width="90.489647"
         id="rect4420"
         style="display:block;fill:#ffff00;fill-opacity:1;stroke-width:0;stroke-miterlimit:4;stroke-dasharray:none" />
    </clipPath>
    <inkscape:path-effect
       effect="powerclip"
       id="path-effect4422"
       is_visible="true"
       lpeversion="1"
       inverse="true"
       flatten="false"
       hide_clip="false"
       message=" ‚Uêî" />
  </defs>
  <sodipodi:namedview
     inkscape:window-maximized="0"
     inkscape:window-y="0"
     inkscape:window-x="0"
     inkscape:window-height="1053"
     inkscape:window-width="1920"
     showgrid="false"
     inkscape:document-rotation="0"
     inkscape:current-layer="layer1"
     inkscape:document-units="mm"
     inkscape:cy="-76.921436"
     inkscape:cx="2.8934758"
     inkscape:zoom="1.4605411"
     inkscape:pageshadow="2"
     inkscape:pageopacity="0.0"
     borderopacity="1.0"
     bordercolor="#666666"
     pagecolor="#ffffff"
     id="base"
     inkscape:snap-bbox="false"
     showguides="true"
     inkscape:guide-bbox="true" />
  <metadata
     id="metadata4863">
    <rdf:RDF>
      <cc:Work
         rdf:about="">
        <dc:format>image/svg+xml</dc:format>
        <dc:type
           rdf:resource="http://purl.org/dc/dcmitype/StillImage" />
        <dc:title />
      </cc:Work>
    </rdf:RDF>
  </metadata>
  <g
     id="layer1"
     inkscape:groupmode="layer"
     inkscape:label="Layer 1">
    <g
       id="g8950"
       transform="matrix(0.50362313,0,0,0.50362313,20.485545,8.0699402)"
       style="opacity:1" />
    <text
       id="text8026-6-3-6"
       y="27.776464"
       x="-33.474846"
       style="font-style:normal;font-variant:normal;font-weight:bold;font-stretch:normal;font-size:6.16123px;line-height:1.25;font-family:sans-serif;-inkscape-font-specification:'sans-serif Bold';letter-spacing:0px;word-spacing:0px;fill:#000000;fill-opacity:1;stroke:none;stroke-width:0.154031"
       xml:space="preserve"><tspan
         style="font-style:normal;font-variant:normal;font-weight:normal;font-stretch:normal;font-size:14.787px;font-family:'Jaapokki subtract';-inkscape-font-specification:'Jaapokki subtract';stroke-width:0.154031"
         y="27.776464"
         x="-33.474846"
         id="tspan8024-6-5-7"
         sodipodi:role="line" /></text>
    <g
       style="font-style:normal;font-variant:normal;font-weight:bold;font-stretch:normal;font-size:6.35px;line-height:1.25;font-family:'Nimbus Mono PS';-inkscape-font-specification:'Nimbus Mono PS, Bold';font-variant-ligatures:normal;font-variant-caps:normal;font-variant-numeric:normal;font-variant-east-asian:normal;stroke-width:0.264583"
       id="text3931"
       aria-label="CHARDONNAY
MELEK 2019
PETER KOVÃÄŒ
">
      <path
         id="path1647"
         style="font-style:normal;font-variant:normal;font-weight:bold;font-stretch:normal;font-size:6.35px;font-family:'Nimbus Mono PS';-inkscape-font-specification:'Nimbus Mono PS, Bold';font-variant-ligatures:normal;font-variant-caps:normal;font-variant-numeric:normal;font-variant-east-asian:normal;text-align:center;text-anchor:middle;stroke-width:0.264583"
         d="m 26.20722,17.326025 c 0,0.93345 0.8001,1.6129 1.8923,1.6129 0.46355,0 0.9017,-0.1143 1.1811,-0.3048 0.2286,-0.15875 0.34925,-0.3175 0.34925,-0.46355 0,-0.1778 -0.15875,-0.3302 -0.3429,-0.3302 -0.0889,0 -0.17145,0.03175 -0.24765,0.10795 -0.1651,0.15875 -0.1651,0.15875 -0.2286,0.19685 -0.1651,0.0889 -0.4064,0.1397 -0.69215,0.1397 -0.7493,0 -1.22555,-0.381 -1.22555,-0.97155 v -0.38735 c 0,-0.635 0.4572,-1.08585 1.0922,-1.08585 0.2159,0 0.4318,0.0508 0.60325,0.14605 0.1778,0.09525 0.2413,0.1651 0.2667,0.3048 0.04445,0.24765 0.1397,0.3429 0.33655,0.3429 0.10795,0 0.20955,-0.0508 0.2794,-0.13335 0.0508,-0.0635 0.0635,-0.13335 0.0635,-0.2921 v -0.508 c 0,-0.15875 -0.0064,-0.20955 -0.0508,-0.27305 -0.0635,-0.09525 -0.17145,-0.1524 -0.2921,-0.1524 -0.1143,0 -0.1905,0.0381 -0.27305,0.1397 -0.43815,-0.1905 -0.60325,-0.2286 -0.95885,-0.2286 -0.99695,0 -1.7526,0.7493 -1.7526,1.73355 z" />
      <path
         id="path1649"
         style="font-style:normal;font-variant:normal;font-weight:bold;font-stretch:normal;font-size:6.35px;font-family:'Nimbus Mono PS';-inkscape-font-specification:'Nimbus Mono PS, Bold';font-variant-ligatures:normal;font-variant-caps:normal;font-variant-numeric:normal;font-variant-east-asian:normal;text-align:center;text-anchor:middle;stroke-width:0.264583"
         d="m 32.40481,17.395875 v 0.80645 h -0.06985 c -0.15875,0 -0.2159,0.0064 -0.2794,0.04445 -0.1016,0.05715 -0.1651,0.17145 -0.1651,0.2794 0,0.10795 0.0508,0.20955 0.1397,0.2667 0.0635,0.04445 0.1524,0.0635 0.3048,0.0635 h 0.76835 c 0.2921,0 0.4445,-0.10795 0.4445,-0.3302 0,-0.1016 -0.0508,-0.19685 -0.1397,-0.2667 -0.06985,-0.04445 -0.127,-0.05715 -0.3048,-0.05715 h -0.0127 v -2.2733 c 0.2159,-0.0254 0.3302,-0.1397 0.3302,-0.3302 0,-0.1016 -0.0508,-0.19685 -0.1397,-0.2667 -0.06985,-0.04445 -0.127,-0.05715 -0.3048,-0.05715 h -0.64135 c -0.15875,0 -0.22225,0.0127 -0.2794,0.04445 -0.1016,0.0635 -0.1651,0.17145 -0.1651,0.2794 0,0.10795 0.0508,0.20955 0.1397,0.27305 0.06985,0.04445 0.13335,0.05715 0.3048,0.05715 h 0.06985 v 0.8128 h -1.3081 v -0.8128 h 0.06985 c 0.15875,0 0.22225,-0.0063 0.2794,-0.04445 0.1016,-0.0635 0.1651,-0.1651 0.1651,-0.28575 0,-0.1016 -0.0508,-0.19685 -0.1397,-0.26035 -0.06985,-0.0508 -0.127,-0.0635 -0.3048,-0.0635 h -0.64135 c -0.15875,0 -0.22225,0.0127 -0.2794,0.04445 -0.1016,0.0635 -0.1651,0.17145 -0.1651,0.2794 0,0.1905 0.1143,0.3048 0.3302,0.3302 v 2.2733 h -0.0127 c -0.15875,0 -0.22225,0.0064 -0.2794,0.04445 -0.1016,0.05715 -0.1651,0.17145 -0.1651,0.2794 0,0.1016 0.0508,0.2032 0.1397,0.2667 0.0635,0.04445 0.14605,0.0635 0.3048,0.0635 h 0.76835 c 0.29845,0 0.4445,-0.10795 0.4445,-0.3302 0,-0.1016 -0.0508,-0.19685 -0.1397,-0.2667 -0.06985,-0.04445 -0.127,-0.05715 -0.3048,-0.05715 h -0.06985 v -0.80645 z" />
      <path
         id="path1651"
         style="font-style:normal;font-variant:normal;font-weight:bold;font-stretch:normal;font-size:6.35px;font-family:'Nimbus Mono PS';-inkscape-font-specification:'Nimbus Mono PS, Bold';font-variant-ligatures:normal;font-variant-caps:normal;font-variant-numeric:normal;font-variant-east-asian:normal;text-align:center;text-anchor:middle;stroke-width:0.264583"
         d="m 36.27195,17.897525 0.12065,0.29845 h -0.10795 c -0.1651,0 -0.2159,0.0127 -0.2794,0.0508 -0.1016,0.05715 -0.1651,0.1651 -0.1651,0.2794 0,0.10795 0.0508,0.2032 0.1397,0.2667 0.0635,0.04445 0.1524,0.0635 0.3048,0.0635 h 0.88265 c 0.13335,0 0.2286,-0.0127 0.2794,-0.04445 0.1016,-0.05715 0.1651,-0.17145 0.1651,-0.28575 0,-0.1016 -0.0508,-0.2032 -0.1397,-0.2667 -0.06985,-0.04445 -0.127,-0.05715 -0.29845,-0.0635 l -1.26365,-2.921 h -1.39065 c -0.17145,0 -0.22225,0.0064 -0.28575,0.04445 -0.1016,0.0635 -0.1651,0.17145 -0.1651,0.2794 0,0.10795 0.0508,0.2032 0.14605,0.2667 0.0635,0.0508 0.13335,0.0635 0.3048,0.0635 h 0.36195 l -0.9652,2.26695 c -0.2794,0 -0.4318,0.1143 -0.4318,0.3302 0,0.22225 0.14605,0.3302 0.4445,0.3302 h 0.84455 c 0.13335,0 0.2286,-0.0127 0.2794,-0.04445 0.1016,-0.0635 0.1651,-0.17145 0.1651,-0.28575 0,-0.1016 -0.0508,-0.2032 -0.1397,-0.2667 -0.06985,-0.0508 -0.127,-0.0635 -0.3048,-0.0635 H 34.6654 l 0.127,-0.29845 z m -0.28575,-0.65405 h -0.92075 l 0.46355,-1.07315 z" />
      <path
         id="path1653"
         style="font-style:normal;font-variant:normal;font-weight:bold;font-stretch:normal;font-size:6.35px;font-family:'Nimbus Mono PS';-inkscape-font-specification:'Nimbus Mono PS, Bold';font-variant-ligatures:normal;font-variant-caps:normal;font-variant-numeric:normal;font-variant-east-asian:normal;text-align:center;text-anchor:middle;stroke-width:0.264583"
         d="m 38.71034,17.510175 h 0.5842 c 0.254,0.0889 0.80645,0.71755 1.13665,1.3081 l 0.01905,0.0381 h 0.51435 c 0.127,0 0.2286,-0.01905 0.2794,-0.04445 0.1016,-0.0635 0.1651,-0.17145 0.1651,-0.28575 0,-0.1016 -0.05715,-0.20955 -0.1397,-0.2667 -0.06985,-0.0508 -0.13335,-0.0635 -0.3048,-0.0635 h -0.06985 c -0.2413,-0.3683 -0.4953,-0.66675 -0.76835,-0.9017 0.45085,-0.23495 0.66675,-0.5334 0.66675,-0.92075 0,-0.6477 -0.57785,-1.09855 -1.4224,-1.09855 h -1.41605 c -0.17145,0 -0.2159,0.0064 -0.2794,0.04445 -0.1016,0.0635 -0.1651,0.17145 -0.1651,0.2794 0,0.10795 0.05715,0.20955 0.1397,0.2667 0.06985,0.0508 0.1397,0.0635 0.3048,0.0635 h 0.06985 v 2.26695 h -0.06985 c -0.15875,0 -0.2159,0.0127 -0.2794,0.0508 -0.1016,0.05715 -0.1651,0.1651 -0.1651,0.2794 0,0.2159 0.1524,0.3302 0.4445,0.3302 h 0.9525 c 0.13335,0 0.2286,-0.01905 0.2794,-0.04445 0.1016,-0.0635 0.1651,-0.17145 0.1651,-0.28575 0,-0.1016 -0.0508,-0.2032 -0.1397,-0.2667 -0.06985,-0.0508 -0.127,-0.0635 -0.3048,-0.0635 h -0.19685 z m 0,-0.65405 v -0.9271 h 0.6858 c 0.38735,0 0.6731,0.1778 0.6731,0.42545 0,0.2921 -0.381,0.50165 -0.9017,0.50165 z" />
      <path
         id="path1655"
         style="font-style:normal;font-variant:normal;font-weight:bold;font-stretch:normal;font-size:6.35px;font-family:'Nimbus Mono PS';-inkscape-font-specification:'Nimbus Mono PS, Bold';font-variant-ligatures:normal;font-variant-caps:normal;font-variant-numeric:normal;font-variant-east-asian:normal;text-align:center;text-anchor:middle;stroke-width:0.264583"
         d="m 41.70753,18.202325 c -0.2413,0.0064 -0.38735,0.127 -0.38735,0.32385 0,0.10795 0.05715,0.20955 0.1397,0.2667 0.0635,0.04445 0.15875,0.0635 0.31115,0.0635 h 1.2954 c 1.0033,0.0254 1.70815,-0.6223 1.7145,-1.5875 v -0.2794 c 0,-0.97155 -0.73025,-1.7272 -1.6637,-1.7145 h -1.3462 c -0.17145,0 -0.22225,0.0064 -0.28575,0.04445 -0.1016,0.0635 -0.1651,0.17145 -0.1651,0.2794 0,0.10795 0.05715,0.20955 0.14605,0.2667 0.05715,0.04445 0.1016,0.05715 0.2413,0.0635 z m 0.6858,0 v -2.2733 h 0.6731 c 0.5842,-0.0254 1.016,0.41275 1.0287,1.0414 v 0.28575 c 0,0.60325 -0.3937,0.97155 -1.02235,0.94615 z" />
      <path
         id="path1657"
         style="font-style:normal;font-variant:normal;font-weight:bold;font-stretch:normal;font-size:6.35px;font-family:'Nimbus Mono PS';-inkscape-font-specification:'Nimbus Mono PS, Bold';font-variant-ligatures:normal;font-variant-caps:normal;font-variant-numeric:normal;font-variant-east-asian:normal;text-align:center;text-anchor:middle;stroke-width:0.264583"
         d="m 46.978021,15.186075 c -0.42545,0 -0.8382,0.1651 -1.1938,0.47625 -0.38735,0.3429 -0.60325,0.84455 -0.60325,1.397 0,1.0414 0.80645,1.8796 1.79705,1.8796 0.98425,0 1.79705,-0.8382 1.79705,-1.84785 0,-0.59055 -0.2032,-1.0668 -0.60325,-1.42875 -0.3429,-0.31115 -0.762,-0.47625 -1.1938,-0.47625 z m 0,0.65405 c 0.60325,0 1.11125,0.55245 1.11125,1.2065 0,0.6858 -0.4953,1.23825 -1.11125,1.23825 -0.6096,0 -1.11125,-0.55245 -1.11125,-1.22555 0,-0.66675 0.50165,-1.2192 1.11125,-1.2192 z" />
      <path
         id="path1659"
         style="font-style:normal;font-variant:normal;font-weight:bold;font-stretch:normal;font-size:6.35px;font-family:'Nimbus Mono PS';-inkscape-font-specification:'Nimbus Mono PS, Bold';font-variant-ligatures:normal;font-variant-caps:normal;font-variant-numeric:normal;font-variant-east-asian:normal;text-align:center;text-anchor:middle;stroke-width:0.264583"
         d="m 50.006961,16.525925 1.60655,2.33045 h 0.66675 v -2.92735 c 0.24765,-0.0063 0.38735,-0.12065 0.38735,-0.32385 0,-0.10795 -0.0508,-0.2032 -0.1397,-0.2667 -0.06985,-0.0508 -0.13335,-0.0635 -0.3048,-0.0635 h -0.8255 c -0.15875,0 -0.22225,0.0127 -0.2794,0.04445 -0.1016,0.0635 -0.1651,0.17145 -0.1651,0.28575 0,0.1016 0.0508,0.2032 0.1397,0.2667 0.06985,0.04445 0.1397,0.05715 0.3048,0.05715 h 0.19685 v 1.6637 l -1.6002,-2.31775 h -0.74295 c -0.15875,0 -0.22225,0.0127 -0.2794,0.04445 -0.1016,0.0635 -0.1651,0.17145 -0.1651,0.28575 0,0.1016 0.05715,0.2032 0.1397,0.2667 0.06985,0.04445 0.1397,0.05715 0.3048,0.05715 h 0.06985 v 2.2733 c -0.2413,0 -0.38735,0.12065 -0.38735,0.32385 0,0.2159 0.1524,0.3302 0.45085,0.3302 h 0.81915 c 0.2921,0 0.4445,-0.10795 0.4445,-0.3302 0,-0.1016 -0.0508,-0.2032 -0.1397,-0.2667 -0.06985,-0.0508 -0.127,-0.05715 -0.3048,-0.05715 h -0.19685 z" />
      <path
         id="path1661"
         style="font-style:normal;font-variant:normal;font-weight:bold;font-stretch:normal;font-size:6.35px;font-family:'Nimbus Mono PS';-inkscape-font-specification:'Nimbus Mono PS, Bold';font-variant-ligatures:normal;font-variant-caps:normal;font-variant-numeric:normal;font-variant-east-asian:normal;text-align:center;text-anchor:middle;stroke-width:0.264583"
         d="m 53.816951,16.525925 1.60655,2.33045 h 0.66675 v -2.92735 c 0.24765,-0.0063 0.38735,-0.12065 0.38735,-0.32385 0,-0.10795 -0.0508,-0.2032 -0.1397,-0.2667 -0.06985,-0.0508 -0.13335,-0.0635 -0.3048,-0.0635 h -0.8255 c -0.15875,0 -0.22225,0.0127 -0.2794,0.04445 -0.1016,0.0635 -0.1651,0.17145 -0.1651,0.28575 0,0.1016 0.0508,0.2032 0.1397,0.2667 0.06985,0.04445 0.1397,0.05715 0.3048,0.05715 h 0.19685 v 1.6637 l -1.6002,-2.31775 h -0.74295 c -0.15875,0 -0.22225,0.0127 -0.2794,0.04445 -0.1016,0.0635 -0.1651,0.17145 -0.1651,0.28575 0,0.1016 0.05715,0.2032 0.1397,0.2667 0.06985,0.04445 0.1397,0.05715 0.3048,0.05715 h 0.06985 v 2.2733 c -0.2413,0 -0.38735,0.12065 -0.38735,0.32385 0,0.2159 0.1524,0.3302 0.45085,0.3302 h 0.81915 c 0.2921,0 0.4445,-0.10795 0.4445,-0.3302 0,-0.1016 -0.0508,-0.2032 -0.1397,-0.2667 -0.06985,-0.0508 -0.127,-0.05715 -0.3048,-0.05715 h -0.19685 z" />
      <path
         id="path1663"
         style="font-style:normal;font-variant:normal;font-weight:bold;font-stretch:normal;font-size:6.35px;font-family:'Nimbus Mono PS';-inkscape-font-specification:'Nimbus Mono PS, Bold';font-variant-ligatures:normal;font-variant-caps:normal;font-variant-numeric:normal;font-variant-east-asian:normal;text-align:center;text-anchor:middle;stroke-width:0.264583"
         d="m 59.131891,17.897525 0.12065,0.29845 h -0.10795 c -0.1651,0 -0.2159,0.0127 -0.2794,0.0508 -0.1016,0.05715 -0.1651,0.1651 -0.1651,0.2794 0,0.10795 0.0508,0.2032 0.1397,0.2667 0.0635,0.04445 0.1524,0.0635 0.3048,0.0635 h 0.88265 c 0.13335,0 0.2286,-0.0127 0.2794,-0.04445 0.1016,-0.05715 0.1651,-0.17145 0.1651,-0.28575 0,-0.1016 -0.0508,-0.2032 -0.1397,-0.2667 -0.06985,-0.04445 -0.127,-0.05715 -0.29845,-0.0635 l -1.26365,-2.921 h -1.39065 c -0.17145,0 -0.22225,0.0064 -0.28575,0.04445 -0.1016,0.0635 -0.1651,0.17145 -0.1651,0.2794 0,0.10795 0.0508,0.2032 0.14605,0.2667 0.0635,0.0508 0.13335,0.0635 0.3048,0.0635 h 0.36195 l -0.9652,2.26695 c -0.2794,0 -0.4318,0.1143 -0.4318,0.3302 0,0.22225 0.14605,0.3302 0.4445,0.3302 h 0.84455 c 0.13335,0 0.2286,-0.0127 0.2794,-0.04445 0.1016,-0.0635 0.1651,-0.17145 0.1651,-0.28575 0,-0.1016 -0.0508,-0.2032 -0.1397,-0.2667 -0.06985,-0.0508 -0.127,-0.0635 -0.3048,-0.0635 h -0.10795 l 0.127,-0.29845 z m -0.28575,-0.65405 h -0.92075 l 0.46355,-1.07315 z" />
      <path
         id="path1665"
         style="font-style:normal;font-variant:normal;font-weight:bold;font-stretch:normal;font-size:6.35px;font-family:'Nimbus Mono PS';-inkscape-font-specification:'Nimbus Mono PS, Bold';font-variant-ligatures:normal;font-variant-caps:normal;font-variant-numeric:normal;font-variant-east-asian:normal;text-align:center;text-anchor:middle;stroke-width:0.264583"
         d="m 62.560883,17.357775 1.0287,-1.42875 c 0.2794,0 0.42545,-0.1143 0.42545,-0.32385 0,-0.10795 -0.0508,-0.2032 -0.1397,-0.2667 -0.06985,-0.0508 -0.13335,-0.0635 -0.3048,-0.0635 h -0.5842 c -0.1524,0 -0.2286,0.0127 -0.28575,0.04445 -0.1016,0.0635 -0.1651,0.17145 -0.1651,0.2794 0,0.14605 0.0762,0.254 0.23495,0.3175 l -0.55245,0.76835 -0.56515,-0.76835 c 0.1524,-0.06985 0.2286,-0.17145 0.2286,-0.31115 0,-0.10795 -0.0508,-0.2032 -0.1397,-0.2667 -0.0635,-0.0508 -0.13335,-0.0635 -0.3048,-0.0635 h -0.56515 c -0.13335,0 -0.1778,0.0064 -0.23495,0.0254 -0.12065,0.0381 -0.2159,0.17145 -0.2159,0.3048 0,0.1016 0.0508,0.2032 0.1397,0.2667 0.0635,0.0381 0.12065,0.0508 0.2794,0.05715 l 1.03505,1.42875 v 0.84455 h -0.38735 c -0.17145,0 -0.22225,0.0064 -0.28575,0.04445 -0.1016,0.0635 -0.1651,0.17145 -0.1651,0.2794 0,0.2159 0.1524,0.3302 0.45085,0.3302 h 1.4605 c 0.29845,0 0.45085,-0.1143 0.45085,-0.3302 0,-0.1016 -0.0508,-0.19685 -0.1397,-0.26035 -0.06985,-0.0508 -0.13335,-0.0635 -0.31115,-0.0635 h -0.38735 z" />
      <path
         id="path1667"
         style="font-style:normal;font-variant:normal;font-weight:bold;font-stretch:normal;font-size:6.35px;font-family:'Nimbus Mono PS';-inkscape-font-specification:'Nimbus Mono PS, Bold';font-variant-ligatures:normal;font-variant-caps:normal;font-variant-numeric:normal;font-variant-east-asian:normal;text-align:center;text-anchor:middle;stroke-width:0.264583"
         d="m 26.95017,24.520575 0.7112,1.4351 h 0.60325 l 0.66675,-1.42875 v 1.60655 h -0.19685 c -0.1651,0 -0.2159,0.0127 -0.2794,0.0508 -0.1016,0.05715 -0.1651,0.1651 -0.1651,0.2794 0,0.1016 0.0508,0.2032 0.1397,0.2667 0.0635,0.04445 0.1524,0.0635 0.3048,0.0635 h 0.8255 c 0.2921,0 0.4445,-0.1143 0.4445,-0.3302 0,-0.10795 -0.0508,-0.2032 -0.1397,-0.2667 -0.0635,-0.04445 -0.10795,-0.05715 -0.24765,-0.0635 v -2.26695 c 0.2159,-0.03175 0.3302,-0.1397 0.3302,-0.3302 0,-0.1016 -0.0508,-0.19685 -0.1397,-0.26035 -0.06985,-0.0508 -0.13335,-0.0635 -0.3048,-0.0635 h -0.7112 l -0.84455,1.7653 -0.8636,-1.7653 h -0.70485 c -0.127,0 -0.17145,0.0063 -0.2286,0.0254 -0.127,0.0381 -0.2159,0.17145 -0.2159,0.29845 0,0.1905 0.1143,0.29845 0.3302,0.3302 v 2.26695 c -0.2413,0.0063 -0.38735,0.127 -0.38735,0.3302 0,0.2159 0.1524,0.3302 0.45085,0.3302 h 0.81915 c 0.2921,0 0.4445,-0.10795 0.4445,-0.3302 0,-0.10795 -0.0508,-0.2032 -0.1397,-0.2667 -0.06985,-0.0508 -0.127,-0.0635 -0.3048,-0.0635 h -0.19685 z" />
      <path
         id="path1669"
         style="font-style:normal;font-variant:normal;font-weight:bold;font-stretch:normal;font-size:6.35px;font-family:'Nimbus Mono PS';-inkscape-font-specification:'Nimbus Mono PS, Bold';font-variant-ligatures:normal;font-variant-caps:normal;font-variant-numeric:normal;font-variant-east-asian:normal;text-align:center;text-anchor:middle;stroke-width:0.264583"
         d="m 31.09036,25.320675 h 0.48895 v 0.01905 c 0,0.1524 0.0064,0.20955 0.04445,0.2667 0.0635,0.09525 0.1778,0.15875 0.2921,0.15875 0.10795,0 0.2159,-0.0508 0.2794,-0.13335 0.0508,-0.06985 0.0635,-0.12065 0.0635,-0.2921 v -0.6858 c 0,-0.127 -0.0064,-0.1651 -0.0254,-0.2286 -0.04445,-0.1143 -0.1778,-0.2032 -0.3175,-0.2032 -0.10795,0 -0.20955,0.0508 -0.27305,0.13335 -0.0508,0.06985 -0.0635,0.13335 -0.0635,0.29845 v 0.01905 h -0.48895 v -0.80645 h 1.4351 v 0.2794 c 0,0.14605 0.0127,0.2159 0.0508,0.27305 0.0635,0.09525 0.1778,0.15875 0.2921,0.15875 0.10795,0 0.20955,-0.0508 0.2794,-0.13335 0.0508,-0.06985 0.0635,-0.127 0.0635,-0.29845 v -0.93345 h -2.87655 c -0.17145,0 -0.2159,0.0063 -0.2794,0.04445 -0.1016,0.0635 -0.1651,0.1651 -0.1651,0.2794 0,0.10795 0.0508,0.2032 0.1397,0.2667 0.06985,0.0508 0.1397,0.0635 0.3048,0.0635 h 0.06985 v 2.2733 h -0.06985 c -0.15875,0 -0.2159,0.0127 -0.2794,0.04445 -0.1016,0.0635 -0.1651,0.1651 -0.1651,0.2794 0,0.2159 0.1524,0.3302 0.4445,0.3302 h 3.01625 v -0.94615 c 0,-0.1524 -0.0127,-0.2159 -0.0508,-0.27305 -0.0635,-0.1016 -0.17145,-0.15875 -0.2921,-0.15875 -0.10795,0 -0.20955,0.0508 -0.2794,0.13335 -0.0508,0.06985 -0.0635,0.127 -0.0635,0.29845 v 0.2921 h -1.5748 z" />
      <path
         id="path1671"
         style="font-style:normal;font-variant:normal;font-weight:bold;font-stretch:normal;font-size:6.35px;font-family:'Nimbus Mono PS';-inkscape-font-specification:'Nimbus Mono PS, Bold';font-variant-ligatures:normal;font-variant-caps:normal;font-variant-numeric:normal;font-variant-east-asian:normal;text-align:center;text-anchor:middle;stroke-width:0.264583"
         d="m 35.29405,23.866525 h 0.33655 c 0.14605,0 0.22225,-0.0127 0.2794,-0.04445 0.1016,-0.0635 0.1651,-0.17145 0.1651,-0.28575 0,-0.1016 -0.0508,-0.19685 -0.1397,-0.26035 -0.06985,-0.0508 -0.127,-0.0635 -0.3048,-0.0635 h -1.3589 c -0.17145,0 -0.2159,0.0063 -0.2794,0.04445 -0.1016,0.0635 -0.1651,0.1651 -0.1651,0.2794 0,0.10795 0.0508,0.20955 0.1397,0.2667 0.06985,0.0508 0.1397,0.0635 0.3048,0.0635 h 0.33655 v 2.2733 H 34.2717 c -0.1651,0 -0.2159,0.0064 -0.2794,0.04445 -0.1016,0.0635 -0.1651,0.1651 -0.1651,0.2794 0,0.22225 0.1524,0.3302 0.4445,0.3302 h 3.0226 v -1.18745 c 0,-0.15875 -0.0127,-0.2159 -0.0508,-0.27305 -0.0635,-0.1016 -0.17145,-0.15875 -0.2921,-0.15875 -0.1143,0 -0.20955,0.04445 -0.2794,0.13335 -0.0508,0.06985 -0.0635,0.127 -0.0635,0.29845 v 0.5334 h -1.31445 z" />
      <path
         id="path1673"
         style="font-style:normal;font-variant:normal;font-weight:bold;font-stretch:normal;font-size:6.35px;font-family:'Nimbus Mono PS';-inkscape-font-specification:'Nimbus Mono PS, Bold';font-variant-ligatures:normal;font-variant-caps:normal;font-variant-numeric:normal;font-variant-east-asian:normal;text-align:center;text-anchor:middle;stroke-width:0.264583"
         d="m 38.71034,25.320675 h 0.48895 v 0.01905 c 0,0.1524 0.0064,0.20955 0.04445,0.2667 0.0635,0.09525 0.1778,0.15875 0.2921,0.15875 0.10795,0 0.2159,-0.0508 0.2794,-0.13335 0.0508,-0.06985 0.0635,-0.12065 0.0635,-0.2921 v -0.6858 c 0,-0.127 -0.0063,-0.1651 -0.0254,-0.2286 -0.04445,-0.1143 -0.1778,-0.2032 -0.3175,-0.2032 -0.10795,0 -0.20955,0.0508 -0.27305,0.13335 -0.0508,0.06985 -0.0635,0.13335 -0.0635,0.29845 v 0.01905 h -0.48895 v -0.80645 h 1.4351 v 0.2794 c 0,0.14605 0.0127,0.2159 0.0508,0.27305 0.0635,0.09525 0.1778,0.15875 0.2921,0.15875 0.10795,0 0.20955,-0.0508 0.2794,-0.13335 0.0508,-0.06985 0.0635,-0.127 0.0635,-0.29845 v -0.93345 h -2.87655 c -0.17145,0 -0.2159,0.0063 -0.2794,0.04445 -0.1016,0.0635 -0.1651,0.1651 -0.1651,0.2794 0,0.10795 0.0508,0.2032 0.1397,0.2667 0.06985,0.0508 0.1397,0.0635 0.3048,0.0635 h 0.06985 v 2.2733 h -0.06985 c -0.15875,0 -0.2159,0.0127 -0.2794,0.04445 -0.1016,0.0635 -0.1651,0.1651 -0.1651,0.2794 0,0.2159 0.1524,0.3302 0.4445,0.3302 h 3.01625 v -0.94615 c 0,-0.1524 -0.0127,-0.2159 -0.0508,-0.27305 -0.0635,-0.1016 -0.17145,-0.15875 -0.2921,-0.15875 -0.10795,0 -0.20955,0.0508 -0.2794,0.13335 -0.0508,0.06985 -0.0635,0.127 -0.0635,0.29845 v 0.2921 h -1.5748 z" />
      <path
         id="path1675"
         style="font-style:normal;font-variant:normal;font-weight:bold;font-stretch:normal;font-size:6.35px;font-family:'Nimbus Mono PS';-inkscape-font-specification:'Nimbus Mono PS, Bold';font-variant-ligatures:normal;font-variant-caps:normal;font-variant-numeric:normal;font-variant-east-asian:normal;text-align:center;text-anchor:middle;stroke-width:0.264583"
         d="m 42.52033,25.523875 0.3556,-0.2921 c 0.3683,0.1016 0.8001,0.73025 1.07315,1.5621 h 0.71755 c 0.2921,0 0.4445,-0.10795 0.4445,-0.3302 0,-0.1016 -0.0508,-0.2032 -0.1397,-0.2667 -0.06985,-0.0508 -0.13335,-0.05715 -0.3048,-0.05715 h -0.18415 c -0.28575,-0.67945 -0.6731,-1.1811 -1.04775,-1.3716 l 1.0795,-0.9017 c 0.2667,0 0.41275,-0.1143 0.41275,-0.32385 0,-0.10795 -0.0508,-0.2032 -0.1397,-0.2667 -0.0635,-0.0508 -0.13335,-0.0635 -0.3048,-0.0635 h -0.635 c -0.13335,0 -0.17145,0.0063 -0.23495,0.0254 -0.12065,0.0381 -0.20955,0.17145 -0.20955,0.31115 0,0.13335 0.0635,0.2286 0.17145,0.2794 l -1.0541,0.8636 v -0.8255 h 0.19685 c 0.1524,0 0.22225,-0.0063 0.2794,-0.04445 0.1016,-0.05715 0.1651,-0.1651 0.1651,-0.2794 0,-0.10795 -0.0508,-0.2032 -0.1397,-0.2667 -0.06985,-0.0508 -0.13335,-0.0635 -0.3048,-0.0635 h -0.9525 c -0.15875,0 -0.22225,0.0127 -0.2794,0.04445 -0.1016,0.0635 -0.1651,0.17145 -0.1651,0.28575 0,0.1016 0.0508,0.2032 0.1397,0.2667 0.06985,0.04445 0.1397,0.05715 0.3048,0.05715 h 0.06985 v 2.2733 h -0.06985 c -0.15875,0 -0.2159,0.0064 -0.2794,0.04445 -0.1016,0.05715 -0.1651,0.1651 -0.1651,0.2794 0,0.10795 0.0508,0.2032 0.1397,0.2667 0.0635,0.04445 0.15875,0.0635 0.3048,0.0635 h 0.9525 c 0.2921,0 0.4445,-0.1143 0.4445,-0.3302 0,-0.1016 -0.0508,-0.2032 -0.1397,-0.2667 -0.06985,-0.04445 -0.127,-0.05715 -0.3048,-0.05715 h -0.19685 z" />
      <path
         id="path1677"
         style="font-style:normal;font-variant:normal;font-weight:bold;font-stretch:normal;font-size:6.35px;font-family:'Nimbus Mono PS';-inkscape-font-specification:'Nimbus Mono PS, Bold';font-variant-ligatures:normal;font-variant-caps:normal;font-variant-numeric:normal;font-variant-east-asian:normal;text-align:center;text-anchor:middle;stroke-width:0.264583"
         d="m 50.267311,26.133475 c 1.651,-1.32715 1.83515,-1.5367 1.83515,-2.06375 0,-0.67945 -0.59055,-1.1938 -1.37795,-1.1938 -0.38735,0 -0.74295,0.127 -1.0033,0.34925 -0.22225,0.1905 -0.3937,0.48895 -0.3937,0.69215 0,0.17145 0.15875,0.3175 0.3429,0.3175 0.14605,0 0.27305,-0.0762 0.31115,-0.1905 0.06985,-0.19685 0.0762,-0.20955 0.13335,-0.27305 0.1397,-0.1524 0.34925,-0.2413 0.5969,-0.2413 0.40005,0 0.70485,0.22225 0.70485,0.5207 0,0.19685 -0.1016,0.3175 -0.7366,0.86995 -0.26035,0.2286 -0.70485,0.59055 -1.44145,1.16205 l -0.0381,0.03175 v 0.67945 h 2.9337 v -0.5588 c 0,-0.1524 -0.0127,-0.20955 -0.0508,-0.27305 -0.0635,-0.09525 -0.17145,-0.1524 -0.2921,-0.1524 -0.2032,0 -0.31115,0.1016 -0.33655,0.32385 z" />
      <path
         id="path1679"
         style="font-style:normal;font-variant:normal;font-weight:bold;font-stretch:normal;font-size:6.35px;font-family:'Nimbus Mono PS';-inkscape-font-specification:'Nimbus Mono PS, Bold';font-variant-ligatures:normal;font-variant-caps:normal;font-variant-numeric:normal;font-variant-east-asian:normal;text-align:center;text-anchor:middle;stroke-width:0.264583"
         d="m 56.001351,24.596775 c 0,-0.5588 -0.18415,-1.06045 -0.50165,-1.3843 -0.2286,-0.22225 -0.5334,-0.33655 -0.9017,-0.33655 -0.3683,0 -0.6731,0.1143 -0.9017,0.33655 -0.3175,0.32385 -0.50165,0.8255 -0.50165,1.3843 v 0.5715 c 0,0.55245 0.18415,1.06045 0.50165,1.37795 0.2286,0.22225 0.5334,0.33655 0.9017,0.33655 0.3683,0 0.6731,-0.1143 0.9017,-0.33655 0.3175,-0.3175 0.50165,-0.8255 0.50165,-1.37795 z m -2.1209,-0.04445 c 0,-0.6223 0.2794,-1.02235 0.71755,-1.02235 0.43815,0 0.71755,0.40005 0.71755,1.02235 v 0.65405 c 0,0.61595 -0.28575,1.02235 -0.71755,1.02235 -0.4318,0 -0.71755,-0.4064 -0.71755,-1.02235 z" />
      <path
         id="path1681"
         style="font-style:normal;font-variant:normal;font-weight:bold;font-stretch:normal;font-size:6.35px;font-family:'Nimbus Mono PS';-inkscape-font-specification:'Nimbus Mono PS, Bold';font-variant-ligatures:normal;font-variant-caps:normal;font-variant-numeric:normal;font-variant-east-asian:normal;text-align:center;text-anchor:middle;stroke-width:0.264583"
         d="m 58.750891,22.875925 -1.37795,0.33655 c -0.2667,0.0635 -0.3556,0.1524 -0.3556,0.33655 0,0.1905 0.1397,0.3429 0.3175,0.3429 0.0635,0 0.08255,-0.0064 0.20955,-0.0381 l 0.5207,-0.13335 v 2.41935 h -0.61595 c -0.1651,0 -0.2159,0.0064 -0.2794,0.04445 -0.1016,0.0635 -0.1651,0.17145 -0.1651,0.2794 0,0.1016 0.05715,0.20955 0.1397,0.2667 0.0635,0.04445 0.15875,0.0635 0.3048,0.0635 h 1.9177 c 0.2921,0 0.4445,-0.1143 0.4445,-0.3302 0,-0.1016 -0.0508,-0.19685 -0.1397,-0.26035 -0.06985,-0.0508 -0.13335,-0.0635 -0.3048,-0.0635 h -0.61595 z" />
      <path
         id="path1683"
         style="font-style:normal;font-variant:normal;font-weight:bold;font-stretch:normal;font-size:6.35px;font-family:'Nimbus Mono PS';-inkscape-font-specification:'Nimbus Mono PS, Bold';font-variant-ligatures:normal;font-variant-caps:normal;font-variant-numeric:normal;font-variant-east-asian:normal;text-align:center;text-anchor:middle;stroke-width:0.264583"
         d="m 63.056183,25.034925 c -0.17145,0.69215 -0.73025,1.17475 -1.3716,1.17475 -0.05715,0 -0.0762,-0.0064 -0.1397,-0.0254 -0.10795,-0.0381 -0.17145,-0.0508 -0.23495,-0.0508 -0.1905,0 -0.34925,0.14605 -0.34925,0.33655 0,0.24765 0.3048,0.41275 0.762,0.41275 0.60325,0 1.12395,-0.254 1.55575,-0.762 0.3302,-0.38735 0.4953,-0.85725 0.4953,-1.40335 0,-0.43815 -0.1143,-0.92075 -0.28575,-1.21285 -0.24765,-0.4191 -0.635,-0.62865 -1.17475,-0.62865 -0.4318,0 -0.7493,0.12065 -0.98425,0.3683 -0.2159,0.2286 -0.33655,0.5461 -0.33655,0.89535 0,0.70485 0.55245,1.27 1.23825,1.27 0.3048,0 0.5461,-0.10795 0.8255,-0.37465 z m -0.0508,-0.78105 c -0.1651,0.28575 -0.47625,0.4953 -0.7366,0.4953 -0.3302,0 -0.59055,-0.2667 -0.59055,-0.60325 0,-0.38735 0.2286,-0.61595 0.6096,-0.61595 0.4064,0 0.6223,0.22225 0.71755,0.7239 z" />
      <path
         id="path1685"
         style="font-style:normal;font-variant:normal;font-weight:bold;font-stretch:normal;font-size:6.35px;font-family:'Nimbus Mono PS';-inkscape-font-specification:'Nimbus Mono PS, Bold';font-variant-ligatures:normal;font-variant-caps:normal;font-variant-numeric:normal;font-variant-east-asian:normal;text-align:center;text-anchor:middle;stroke-width:0.264583"
         d="m 25.375375,33.518525 h 0.5969 c 0.5969,0 0.920749,-0.10795 1.206499,-0.4064 0.2032,-0.2159 0.32385,-0.508 0.32385,-0.79375 0,-0.6858 -0.5842,-1.1684 -1.403349,-1.1684 h -1.47955 c -0.1651,0 -0.2159,0.0063 -0.2794,0.04445 -0.1016,0.0635 -0.1651,0.17145 -0.1651,0.2794 0,0.10795 0.05715,0.20955 0.1397,0.2667 0.06985,0.0508 0.1397,0.0635 0.3048,0.0635 h 0.06985 v 2.2733 h -0.06985 c -0.15875,0 -0.2159,0.0127 -0.2794,0.04445 -0.1016,0.0635 -0.1651,0.17145 -0.1651,0.2794 0,0.1016 0.05715,0.20955 0.1397,0.2667 0.0635,0.04445 0.15875,0.0635 0.3048,0.0635 h 1.3589 c 0.2921,0 0.4445,-0.10795 0.4445,-0.3302 0,-0.1016 -0.0508,-0.19685 -0.1397,-0.26035 -0.06985,-0.0508 -0.13335,-0.0635 -0.3048,-0.0635 h -0.60325 z m 0,-1.7145 h 0.7239 c 0.42545,0 0.67945,0.19685 0.67945,0.52705 0,0.33655 -0.254,0.5334 -0.67945,0.5334 h -0.7239 z" />
      <path
         id="path1687"
         style="font-style:normal;font-variant:normal;font-weight:bold;font-stretch:normal;font-size:6.35px;font-family:'Nimbus Mono PS';-inkscape-font-specification:'Nimbus Mono PS, Bold';font-variant-ligatures:normal;font-variant-caps:normal;font-variant-numeric:normal;font-variant-east-asian:normal;text-align:center;text-anchor:middle;stroke-width:0.264583"
         d="m 29.185365,33.258175 h 0.48895 v 0.01905 c 0,0.1524 0.0064,0.20955 0.04445,0.2667 0.0635,0.09525 0.1778,0.15875 0.2921,0.15875 0.10795,0 0.2159,-0.0508 0.2794,-0.13335 0.0508,-0.06985 0.0635,-0.12065 0.0635,-0.2921 v -0.6858 c 0,-0.127 -0.0063,-0.1651 -0.0254,-0.2286 -0.04445,-0.1143 -0.1778,-0.2032 -0.3175,-0.2032 -0.10795,0 -0.20955,0.0508 -0.27305,0.13335 -0.0508,0.06985 -0.0635,0.13335 -0.0635,0.29845 v 0.01905 h -0.48895 v -0.80645 h 1.4351 v 0.2794 c 0,0.14605 0.0127,0.2159 0.0508,0.27305 0.0635,0.09525 0.1778,0.15875 0.2921,0.15875 0.10795,0 0.20955,-0.0508 0.2794,-0.13335 0.0508,-0.06985 0.0635,-0.127 0.0635,-0.29845 v -0.93345 h -2.87655 c -0.17145,0 -0.2159,0.0063 -0.2794,0.04445 -0.1016,0.0635 -0.1651,0.1651 -0.1651,0.2794 0,0.10795 0.0508,0.2032 0.1397,0.2667 0.06985,0.0508 0.1397,0.0635 0.3048,0.0635 h 0.06985 v 2.2733 h -0.06985 c -0.15875,0 -0.2159,0.0127 -0.2794,0.04445 -0.1016,0.0635 -0.1651,0.1651 -0.1651,0.2794 0,0.2159 0.1524,0.3302 0.4445,0.3302 h 3.01625 v -0.94615 c 0,-0.1524 -0.0127,-0.2159 -0.0508,-0.27305 -0.0635,-0.1016 -0.17145,-0.15875 -0.2921,-0.15875 -0.10795,0 -0.20955,0.0508 -0.2794,0.13335 -0.0508,0.06985 -0.0635,0.127 -0.0635,0.29845 v 0.2921 h -1.5748 z" />
      <path
         id="path1689"
         style="font-style:normal;font-variant:normal;font-weight:bold;font-stretch:normal;font-size:6.35px;font-family:'Nimbus Mono PS';-inkscape-font-specification:'Nimbus Mono PS, Bold';font-variant-ligatures:normal;font-variant-caps:normal;font-variant-numeric:normal;font-variant-east-asian:normal;text-align:center;text-anchor:middle;stroke-width:0.264583"
         d="m 33.979605,31.804025 h 0.64135 v 0.5334 c 0,0.1524 0.0127,0.2159 0.0508,0.27305 0.0635,0.1016 0.17145,0.15875 0.2921,0.15875 0.10795,0 0.20955,-0.0508 0.2794,-0.13335 0.0508,-0.06985 0.0635,-0.12065 0.0635,-0.29845 v -1.18745 h -3.3274 v 1.18745 c 0,0.1524 0.0127,0.2159 0.0508,0.27305 0.0635,0.1016 0.1778,0.15875 0.2921,0.15875 0.10795,0 0.20955,-0.0508 0.2794,-0.13335 0.0508,-0.06985 0.0635,-0.12065 0.0635,-0.29845 v -0.5334 h 0.62865 v 2.2733 h -0.38735 c -0.1651,0 -0.2159,0.0063 -0.2794,0.04445 -0.1016,0.0635 -0.1651,0.17145 -0.1651,0.2794 0,0.1016 0.05715,0.20955 0.1397,0.2667 0.0635,0.04445 0.15875,0.0635 0.3048,0.0635 h 1.46685 c 0.2921,0 0.4445,-0.10795 0.4445,-0.3302 0,-0.1016 -0.0508,-0.19685 -0.1397,-0.26035 -0.06985,-0.0508 -0.13335,-0.0635 -0.3048,-0.0635 h -0.3937 z" />
      <path
         id="path1691"
         style="font-style:normal;font-variant:normal;font-weight:bold;font-stretch:normal;font-size:6.35px;font-family:'Nimbus Mono PS';-inkscape-font-specification:'Nimbus Mono PS, Bold';font-variant-ligatures:normal;font-variant-caps:normal;font-variant-numeric:normal;font-variant-east-asian:normal;text-align:center;text-anchor:middle;stroke-width:0.264583"
         d="m 36.805345,33.258175 h 0.48895 v 0.01905 c 0,0.1524 0.0064,0.20955 0.04445,0.2667 0.0635,0.09525 0.1778,0.15875 0.2921,0.15875 0.10795,0 0.2159,-0.0508 0.2794,-0.13335 0.0508,-0.06985 0.0635,-0.12065 0.0635,-0.2921 v -0.6858 c 0,-0.127 -0.0063,-0.1651 -0.0254,-0.2286 -0.04445,-0.1143 -0.1778,-0.2032 -0.3175,-0.2032 -0.10795,0 -0.20955,0.0508 -0.27305,0.13335 -0.0508,0.06985 -0.0635,0.13335 -0.0635,0.29845 v 0.01905 h -0.48895 v -0.80645 h 1.4351 v 0.2794 c 0,0.14605 0.0127,0.2159 0.0508,0.27305 0.0635,0.09525 0.1778,0.15875 0.2921,0.15875 0.10795,0 0.20955,-0.0508 0.2794,-0.13335 0.0508,-0.06985 0.0635,-0.127 0.0635,-0.29845 v -0.93345 h -2.87655 c -0.17145,0 -0.2159,0.0063 -0.2794,0.04445 -0.1016,0.0635 -0.1651,0.1651 -0.1651,0.2794 0,0.10795 0.0508,0.2032 0.1397,0.2667 0.06985,0.0508 0.1397,0.0635 0.3048,0.0635 h 0.06985 v 2.2733 h -0.06985 c -0.15875,0 -0.2159,0.0127 -0.2794,0.04445 -0.1016,0.0635 -0.1651,0.1651 -0.1651,0.2794 0,0.2159 0.1524,0.3302 0.4445,0.3302 h 3.01625 v -0.94615 c 0,-0.1524 -0.0127,-0.2159 -0.0508,-0.27305 -0.0635,-0.1016 -0.17145,-0.15875 -0.2921,-0.15875 -0.10795,0 -0.20955,0.0508 -0.2794,0.13335 -0.0508,0.06985 -0.0635,0.127 -0.0635,0.29845 v 0.2921 h -1.5748 z" />
      <path
         id="path1693"
         style="font-style:normal;font-variant:normal;font-weight:bold;font-stretch:normal;font-size:6.35px;font-family:'Nimbus Mono PS';-inkscape-font-specification:'Nimbus Mono PS, Bold';font-variant-ligatures:normal;font-variant-caps:normal;font-variant-numeric:normal;font-variant-east-asian:normal;text-align:center;text-anchor:middle;stroke-width:0.264583"
         d="m 40.615335,33.385175 h 0.5842 c 0.254,0.0889 0.80645,0.71755 1.13665,1.3081 l 0.01905,0.0381 h 0.51435 c 0.127,0 0.2286,-0.01905 0.2794,-0.04445 0.1016,-0.0635 0.1651,-0.17145 0.1651,-0.28575 0,-0.1016 -0.05715,-0.20955 -0.1397,-0.2667 -0.06985,-0.0508 -0.13335,-0.0635 -0.3048,-0.0635 h -0.06985 c -0.2413,-0.3683 -0.4953,-0.66675 -0.76835,-0.9017 0.45085,-0.23495 0.66675,-0.5334 0.66675,-0.92075 0,-0.6477 -0.57785,-1.09855 -1.4224,-1.09855 h -1.41605 c -0.17145,0 -0.2159,0.0063 -0.2794,0.04445 -0.1016,0.0635 -0.1651,0.17145 -0.1651,0.2794 0,0.10795 0.05715,0.20955 0.1397,0.2667 0.06985,0.0508 0.1397,0.0635 0.3048,0.0635 h 0.06985 v 2.26695 h -0.06985 c -0.15875,0 -0.2159,0.0127 -0.2794,0.0508 -0.1016,0.05715 -0.1651,0.1651 -0.1651,0.2794 0,0.2159 0.1524,0.3302 0.4445,0.3302 h 0.9525 c 0.13335,0 0.2286,-0.01905 0.2794,-0.04445 0.1016,-0.0635 0.1651,-0.17145 0.1651,-0.28575 0,-0.1016 -0.0508,-0.2032 -0.1397,-0.2667 -0.06985,-0.0508 -0.127,-0.0635 -0.3048,-0.0635 h -0.19685 z m 0,-0.65405 v -0.9271 h 0.6858 c 0.38735,0 0.6731,0.1778 0.6731,0.42545 0,0.2921 -0.381,0.50165 -0.9017,0.50165 z" />
      <path
         id="path1695"
         style="font-style:normal;font-variant:normal;font-weight:bold;font-stretch:normal;font-size:6.35px;font-family:'Nimbus Mono PS';-inkscape-font-specification:'Nimbus Mono PS, Bold';font-variant-ligatures:normal;font-variant-caps:normal;font-variant-numeric:normal;font-variant-east-asian:normal;text-align:center;text-anchor:middle;stroke-width:0.264583"
         d="m 48.235316,33.461375 0.3556,-0.2921 c 0.3683,0.1016 0.8001,0.73025 1.07315,1.5621 h 0.71755 c 0.2921,0 0.4445,-0.10795 0.4445,-0.3302 0,-0.1016 -0.0508,-0.2032 -0.1397,-0.2667 -0.06985,-0.0508 -0.13335,-0.05715 -0.3048,-0.05715 h -0.18415 c -0.28575,-0.67945 -0.6731,-1.1811 -1.04775,-1.3716 l 1.0795,-0.9017 c 0.2667,0 0.41275,-0.1143 0.41275,-0.32385 0,-0.10795 -0.0508,-0.2032 -0.1397,-0.2667 -0.0635,-0.0508 -0.13335,-0.0635 -0.3048,-0.0635 h -0.635 c -0.13335,0 -0.17145,0.0063 -0.23495,0.0254 -0.12065,0.0381 -0.20955,0.17145 -0.20955,0.31115 0,0.13335 0.0635,0.2286 0.17145,0.2794 l -1.0541,0.8636 v -0.8255 h 0.19685 c 0.1524,0 0.22225,-0.0063 0.2794,-0.04445 0.1016,-0.05715 0.1651,-0.1651 0.1651,-0.2794 0,-0.10795 -0.0508,-0.2032 -0.1397,-0.2667 -0.06985,-0.0508 -0.13335,-0.0635 -0.3048,-0.0635 h -0.9525 c -0.15875,0 -0.22225,0.0127 -0.2794,0.04445 -0.1016,0.0635 -0.1651,0.17145 -0.1651,0.28575 0,0.1016 0.0508,0.2032 0.1397,0.2667 0.06985,0.04445 0.1397,0.05715 0.3048,0.05715 h 0.06985 v 2.2733 h -0.06985 c -0.15875,0 -0.2159,0.0063 -0.2794,0.04445 -0.1016,0.05715 -0.1651,0.1651 -0.1651,0.2794 0,0.10795 0.0508,0.2032 0.1397,0.2667 0.0635,0.04445 0.15875,0.0635 0.3048,0.0635 h 0.9525 c 0.2921,0 0.4445,-0.1143 0.4445,-0.3302 0,-0.1016 -0.0508,-0.2032 -0.1397,-0.2667 -0.06985,-0.04445 -0.127,-0.05715 -0.3048,-0.05715 h -0.19685 z" />
      <path
         id="path1697"
         style="font-style:normal;font-variant:normal;font-weight:bold;font-stretch:normal;font-size:6.35px;font-family:'Nimbus Mono PS';-inkscape-font-specification:'Nimbus Mono PS, Bold';font-variant-ligatures:normal;font-variant-caps:normal;font-variant-numeric:normal;font-variant-east-asian:normal;text-align:center;text-anchor:middle;stroke-width:0.264583"
         d="m 52.693006,31.061075 c -0.42545,0 -0.8382,0.1651 -1.1938,0.47625 -0.38735,0.3429 -0.60325,0.84455 -0.60325,1.397 0,1.0414 0.80645,1.8796 1.79705,1.8796 0.98425,0 1.79705,-0.8382 1.79705,-1.84785 0,-0.59055 -0.2032,-1.0668 -0.60325,-1.42875 -0.3429,-0.31115 -0.762,-0.47625 -1.1938,-0.47625 z m 0,0.65405 c 0.60325,0 1.11125,0.55245 1.11125,1.2065 0,0.6858 -0.4953,1.23825 -1.11125,1.23825 -0.6096,0 -1.11125,-0.55245 -1.11125,-1.22555 0,-0.66675 0.50165,-1.2192 1.11125,-1.2192 z" />
      <path
         id="path1699"
         style="font-style:normal;font-variant:normal;font-weight:bold;font-stretch:normal;font-size:6.35px;font-family:'Nimbus Mono PS';-inkscape-font-specification:'Nimbus Mono PS, Bold';font-variant-ligatures:normal;font-variant-caps:normal;font-variant-numeric:normal;font-variant-east-asian:normal;text-align:center;text-anchor:middle;stroke-width:0.264583"
         d="m 56.522046,33.772525 -0.8763,-1.9685 h 0.08255 c 0.15875,0 0.22225,-0.0063 0.2794,-0.04445 0.1016,-0.05715 0.1651,-0.17145 0.1651,-0.2794 0,-0.10795 -0.0508,-0.2032 -0.1397,-0.2667 -0.0635,-0.0508 -0.1397,-0.0635 -0.3048,-0.0635 h -0.84455 c -0.15875,0 -0.2159,0.0127 -0.2794,0.04445 -0.1016,0.0635 -0.1651,0.17145 -0.1651,0.28575 0,0.1016 0.0508,0.2032 0.1397,0.2667 0.06985,0.04445 0.13335,0.05715 0.29845,0.05715 l 1.28905,2.92735 h 0.65405 l 1.30175,-2.92735 c 0.127,0 0.17145,0 0.2286,-0.01905 0.127,-0.04445 0.2159,-0.17145 0.2159,-0.3048 0,-0.10795 -0.0508,-0.2032 -0.1397,-0.2667 -0.0635,-0.0508 -0.1397,-0.0635 -0.3048,-0.0635 h -0.8382 c -0.15875,0 -0.22225,0.0127 -0.2794,0.04445 -0.1016,0.0635 -0.1651,0.17145 -0.1651,0.28575 0,0.1016 0.0508,0.2032 0.1397,0.2667 0.06985,0.0508 0.13335,0.05715 0.3048,0.05715 h 0.1143 z" />
      <path
         id="path1701"
         style="font-style:normal;font-variant:normal;font-weight:bold;font-stretch:normal;font-size:6.35px;font-family:'Nimbus Mono PS';-inkscape-font-specification:'Nimbus Mono PS, Bold';font-variant-ligatures:normal;font-variant-caps:normal;font-variant-numeric:normal;font-variant-east-asian:normal;text-align:center;text-anchor:middle;stroke-width:0.264583"
         d="m 61.036888,33.772525 0.12065,0.29845 h -0.10795 c -0.1651,0 -0.2159,0.0127 -0.2794,0.0508 -0.1016,0.05715 -0.1651,0.1651 -0.1651,0.2794 0,0.10795 0.0508,0.2032 0.1397,0.2667 0.0635,0.04445 0.1524,0.0635 0.3048,0.0635 h 0.88265 c 0.13335,0 0.2286,-0.0127 0.2794,-0.04445 0.1016,-0.05715 0.1651,-0.17145 0.1651,-0.28575 0,-0.1016 -0.0508,-0.2032 -0.1397,-0.2667 -0.06985,-0.04445 -0.127,-0.05715 -0.29845,-0.0635 l -1.26365,-2.921 h -1.39065 c -0.17145,0 -0.22225,0.0063 -0.28575,0.04445 -0.1016,0.0635 -0.1651,0.17145 -0.1651,0.2794 0,0.10795 0.0508,0.2032 0.14605,0.2667 0.0635,0.0508 0.13335,0.0635 0.3048,0.0635 h 0.36195 l -0.9652,2.26695 c -0.2794,0 -0.4318,0.1143 -0.4318,0.3302 0,0.22225 0.14605,0.3302 0.4445,0.3302 h 0.84455 c 0.13335,0 0.2286,-0.0127 0.2794,-0.04445 0.1016,-0.0635 0.1651,-0.17145 0.1651,-0.28575 0,-0.1016 -0.0508,-0.2032 -0.1397,-0.2667 -0.06985,-0.0508 -0.127,-0.0635 -0.3048,-0.0635 h -0.10795 l 0.127,-0.29845 z m -0.28575,-0.65405 h -0.92075 l 0.46355,-1.07315 z m 0.2794,-3.04165 c 0.1143,-0.0889 0.1524,-0.1524 0.1524,-0.23495 0,-0.1397 -0.1143,-0.24765 -0.26035,-0.24765 -0.0762,0 -0.1143,0.01905 -0.22225,0.1016 l -0.84455,0.6731 c -0.1016,0.08255 -0.1524,0.15875 -0.1524,0.2413 0,0.13335 0.1143,0.24765 0.26035,0.24765 0.06985,0 0.10795,-0.01905 0.2159,-0.1016 z" />
      <path
         id="path1703"
         style="font-style:normal;font-variant:normal;font-weight:bold;font-stretch:normal;font-size:6.35px;font-family:'Nimbus Mono PS';-inkscape-font-specification:'Nimbus Mono PS, Bold';font-variant-ligatures:normal;font-variant-caps:normal;font-variant-numeric:normal;font-variant-east-asian:normal;text-align:center;text-anchor:middle;stroke-width:0.264583"
         d="m 62.402128,33.201025 c 0,0.93345 0.8001,1.6129 1.8923,1.6129 0.46355,0 0.9017,-0.1143 1.1811,-0.3048 0.2286,-0.15875 0.34925,-0.3175 0.34925,-0.46355 0,-0.1778 -0.15875,-0.3302 -0.3429,-0.3302 -0.0889,0 -0.17145,0.03175 -0.24765,0.10795 -0.1651,0.15875 -0.1651,0.15875 -0.2286,0.19685 -0.1651,0.0889 -0.4064,0.1397 -0.69215,0.1397 -0.7493,0 -1.22555,-0.381 -1.22555,-0.97155 v -0.38735 c 0,-0.635 0.4572,-1.08585 1.0922,-1.08585 0.2159,0 0.4318,0.0508 0.60325,0.14605 0.1778,0.09525 0.2413,0.1651 0.2667,0.3048 0.04445,0.24765 0.1397,0.3429 0.33655,0.3429 0.10795,0 0.20955,-0.0508 0.2794,-0.13335 0.0508,-0.0635 0.0635,-0.13335 0.0635,-0.2921 v -0.508 c 0,-0.15875 -0.0063,-0.20955 -0.0508,-0.27305 -0.0635,-0.09525 -0.17145,-0.1524 -0.2921,-0.1524 -0.1143,0 -0.1905,0.0381 -0.27305,0.1397 -0.43815,-0.1905 -0.60325,-0.2286 -0.95885,-0.2286 -0.99695,0 -1.7526,0.7493 -1.7526,1.73355 z m 1.7272,-2.9464 -0.70485,-0.5715 c -0.0762,-0.0635 -0.127,-0.08255 -0.1905,-0.08255 -0.13335,0 -0.24765,0.10795 -0.24765,0.2413 0,0.0762 0.0254,0.12065 0.10795,0.18415 l 0.0508,0.04445 0.98425,0.7874 0.9779,-0.7874 c 0.1524,-0.12065 0.15875,-0.13335 0.15875,-0.23495 0,-0.127 -0.1143,-0.23495 -0.2413,-0.23495 -0.06985,0 -0.127,0.0254 -0.19685,0.08255 z" />
    </g>
  </g>
</svg>
