<?xml version="1.0" encoding="UTF-8" standalone="no"?>
<svg
   xmlns:dc="http://purl.org/dc/elements/1.1/"
   xmlns:cc="http://creativecommons.org/ns#"
   xmlns:rdf="http://www.w3.org/1999/02/22-rdf-syntax-ns#"
   xmlns:svg="http://www.w3.org/2000/svg"
   xmlns="http://www.w3.org/2000/svg"
   width="90mm"
   height="50mm"
   viewBox="0 0 90 50"
   version="1.1"
   id="svg4866">
  <defs
     id="defs4860">
    <clipPath
       id="clipPath4426"
       clipPathUnits="userSpaceOnUse">
      <rect
         style="display:none;fill:#ffff00;fill-opacity:1;stroke-width:0;stroke-miterlimit:4;stroke-dasharray:none"
         id="rect4428"
         width="56.821796"
         height="211.51077"
         x="224.79062"
         y="33.846336" />
      <path
         d="M 170.74166,48.724682 H 280.6323 V 243.94553 H 170.74166 Z M 224.79062,33.846336 V 245.35711 h 56.8218 V 33.846336 Z"
         class="powerclip"
         style="fill:#ffff00;fill-opacity:1;stroke-width:0;stroke-miterlimit:4;stroke-dasharray:none"
         id="lpe_path-effect4430" />
    </clipPath>
    <clipPath
       id="clipPath4434"
       clipPathUnits="userSpaceOnUse">
      <rect
         style="display:block;fill:#ffff00;fill-opacity:1;stroke-width:0;stroke-miterlimit:4;stroke-dasharray:none"
         id="rect4436"
         width="58.064548"
         height="207.41371"
         x="21.147821"
         y="30.462763" />
    </clipPath>
    <clipPath
       id="clipPath4418"
       clipPathUnits="userSpaceOnUse">
      <rect
         style="display:block;fill:#ffff00;fill-opacity:1;stroke-width:0;stroke-miterlimit:4;stroke-dasharray:none"
         id="rect4420"
         width="90.489647"
         height="214.80771"
         x="465.69931"
         y="157.56874" />
    </clipPath>
  </defs>
  <metadata
     id="metadata4863">
    <rdf:RDF>
      <cc:Work
         rdf:about="">
        <dc:format>image/svg+xml</dc:format>
        <dc:type
           rdf:resource="http://purl.org/dc/dcmitype/StillImage" />
        <dc:title></dc:title>
      </cc:Work>
    </rdf:RDF>
  </metadata>
  <g
     id="layer1">
    <g
       style="opacity:1"
       transform="matrix(0.50362313,0,0,0.50362313,20.485545,8.0699402)"
       id="g8950" />
    <text
       xml:space="preserve"
       style="font-style:normal;font-variant:normal;font-weight:bold;font-stretch:normal;font-size:6.16123009px;line-height:1.25;font-family:sans-serif;-inkscape-font-specification:'sans-serif Bold';letter-spacing:0px;word-spacing:0px;fill:#000000;fill-opacity:1;stroke:none;stroke-width:0.15403099"
       x="-33.474846"
       y="27.776464"
       id="text8026-6-3-6"><tspan
         id="tspan8024-6-5-7"
         x="-33.474846"
         y="33.227711"
         style="font-style:normal;font-variant:normal;font-weight:normal;font-stretch:normal;font-size:14.7869997px;font-family:'Jaapokki subtract';-inkscape-font-specification:'Jaapokki subtract';stroke-width:0.15403099" /></text>
    <g
       aria-label="RIZLING VLAŠSKÝ MELEK 2018 PETER KOVÁČ "
       id="text3931"
       style="font-style:normal;font-variant:normal;font-weight:bold;font-stretch:normal;font-size:6.3499999px;line-height:1.25;font-family:'Nimbus Mono PS';-inkscape-font-specification:'Nimbus Mono PS, Bold';font-variant-ligatures:normal;font-variant-caps:normal;font-variant-numeric:normal;font-variant-east_asian:normal;stroke-width:0.26458299">
      <path
         d="m 17.707768,18.2436 h 0.5842 c 0.254,0.0889 0.806449,0.71755 1.136649,1.3081 l 0.01905,0.0381 h 0.51435 c 0.127,0 0.2286,-0.01905 0.2794,-0.04445 0.1016,-0.0635 0.1651,-0.17145 0.1651,-0.28575 0,-0.1016 -0.05715,-0.20955 -0.1397,-0.2667 -0.06985,-0.0508 -0.13335,-0.0635 -0.3048,-0.0635 h -0.06985 c -0.2413,-0.3683 -0.4953,-0.66675 -0.76835,-0.9017 0.45085,-0.23495 0.66675,-0.5334 0.66675,-0.92075 0,-0.6477 -0.57785,-1.09855 -1.422399,-1.09855 h -1.41605 c -0.17145,0 -0.2159,0.0063 -0.2794,0.04445 -0.1016,0.0635 -0.1651,0.17145 -0.1651,0.2794 0,0.10795 0.05715,0.20955 0.1397,0.2667 0.06985,0.0508 0.1397,0.0635 0.3048,0.0635 h 0.06985 v 2.26695 h -0.06985 c -0.15875,0 -0.2159,0.0127 -0.2794,0.0508 -0.1016,0.05715 -0.1651,0.1651 -0.1651,0.2794 0,0.2159 0.1524,0.3302 0.4445,0.3302 h 0.9525 c 0.13335,0 0.2286,-0.01905 0.2794,-0.04445 0.1016,-0.0635 0.1651,-0.17145 0.1651,-0.28575 0,-0.1016 -0.0508,-0.2032 -0.1397,-0.2667 -0.06985,-0.0508 -0.127,-0.0635 -0.3048,-0.0635 h -0.19685 z m 0,-0.65405 v -0.9271 h 0.6858 c 0.38735,0 0.673099,0.1778 0.673099,0.42545 0,0.2921 -0.380999,0.50165 -0.901699,0.50165 z"
         style="font-style:normal;font-variant:normal;font-weight:bold;font-stretch:normal;font-size:6.3499999px;font-family:'Nimbus Mono PS';-inkscape-font-specification:'Nimbus Mono PS, Bold';font-variant-ligatures:normal;font-variant-caps:normal;font-variant-numeric:normal;font-variant-east_asian:normal;text-align:center;text-anchor:middle;stroke-width:0.26458299"
         id="path2359" />
      <path
         d="m 22.508358,16.66245 h 0.61595 c 0.14605,0 0.22225,-0.0127 0.2794,-0.04445 0.1016,-0.0635 0.1651,-0.17145 0.1651,-0.28575 0,-0.1016 -0.0508,-0.19685 -0.1397,-0.26035 -0.06985,-0.0508 -0.127,-0.0635 -0.3048,-0.0635 h -1.9177 c -0.1651,0 -0.2159,0.0063 -0.2794,0.04445 -0.1016,0.0635 -0.1651,0.17145 -0.1651,0.2794 0,0.10795 0.0508,0.20955 0.1397,0.2667 0.06985,0.0508 0.1397,0.0635 0.3048,0.0635 h 0.61595 v 2.2733 h -0.61595 c -0.1651,0 -0.2159,0.0064 -0.2794,0.04445 -0.1016,0.0635 -0.1651,0.17145 -0.1651,0.2794 0,0.22225 0.1524,0.3302 0.4445,0.3302 h 1.9177 c 0.2921,0 0.4445,-0.10795 0.4445,-0.3302 0,-0.1016 -0.0508,-0.19685 -0.1397,-0.26035 -0.06985,-0.0508 -0.13335,-0.0635 -0.3048,-0.0635 h -0.61595 z"
         style="font-style:normal;font-variant:normal;font-weight:bold;font-stretch:normal;font-size:6.3499999px;font-family:'Nimbus Mono PS';-inkscape-font-specification:'Nimbus Mono PS, Bold';font-variant-ligatures:normal;font-variant-caps:normal;font-variant-numeric:normal;font-variant-east_asian:normal;text-align:center;text-anchor:middle;stroke-width:0.26458299"
         id="path2361" />
      <path
         d="m 25.403948,18.93575 1.8923,-2.30505 v -0.6223 h -2.6416 v 1.0541 c 0,0.1524 0.0127,0.20955 0.0508,0.2667 0.0635,0.1016 0.1778,0.15875 0.2921,0.15875 0.10795,0 0.20955,-0.0508 0.2794,-0.13335 0.0508,-0.06985 0.0635,-0.12065 0.0635,-0.2921 v -0.40005 h 1.0541 l -1.88595,2.29235 v 0.635 h 2.9337 V 18.523 c 0,-0.15875 -0.0064,-0.20955 -0.0508,-0.27305 -0.05715,-0.0889 -0.17145,-0.1524 -0.2921,-0.1524 -0.10795,0 -0.20955,0.0508 -0.2794,0.13335 -0.04445,0.0635 -0.0635,0.13335 -0.0635,0.2921 v 0.41275 z"
         style="font-style:normal;font-variant:normal;font-weight:bold;font-stretch:normal;font-size:6.3499999px;font-family:'Nimbus Mono PS';-inkscape-font-specification:'Nimbus Mono PS, Bold';font-variant-ligatures:normal;font-variant-caps:normal;font-variant-numeric:normal;font-variant-east_asian:normal;text-align:center;text-anchor:middle;stroke-width:0.26458299"
         id="path2363" />
      <path
         d="m 29.531438,16.66245 h 0.33655 c 0.14605,0 0.22225,-0.0127 0.2794,-0.04445 0.1016,-0.0635 0.1651,-0.17145 0.1651,-0.28575 0,-0.1016 -0.0508,-0.19685 -0.1397,-0.26035 -0.06985,-0.0508 -0.127,-0.0635 -0.3048,-0.0635 h -1.3589 c -0.17145,0 -0.2159,0.0063 -0.2794,0.04445 -0.1016,0.0635 -0.1651,0.1651 -0.1651,0.2794 0,0.10795 0.0508,0.20955 0.1397,0.2667 0.06985,0.0508 0.1397,0.0635 0.3048,0.0635 h 0.33655 v 2.2733 h -0.33655 c -0.1651,0 -0.2159,0.0064 -0.2794,0.04445 -0.1016,0.0635 -0.1651,0.1651 -0.1651,0.2794 0,0.22225 0.1524,0.3302 0.4445,0.3302 h 3.0226 v -1.18745 c 0,-0.15875 -0.0127,-0.2159 -0.0508,-0.27305 -0.0635,-0.1016 -0.17145,-0.15875 -0.2921,-0.15875 -0.1143,0 -0.20955,0.04445 -0.2794,0.13335 -0.0508,0.06985 -0.0635,0.127 -0.0635,0.29845 v 0.5334 h -1.31445 z"
         style="font-style:normal;font-variant:normal;font-weight:bold;font-stretch:normal;font-size:6.3499999px;font-family:'Nimbus Mono PS';-inkscape-font-specification:'Nimbus Mono PS, Bold';font-variant-ligatures:normal;font-variant-caps:normal;font-variant-numeric:normal;font-variant-east_asian:normal;text-align:center;text-anchor:middle;stroke-width:0.26458299"
         id="path2365" />
      <path
         d="m 33.938328,16.66245 h 0.61595 c 0.14605,0 0.22225,-0.0127 0.2794,-0.04445 0.1016,-0.0635 0.1651,-0.17145 0.1651,-0.28575 0,-0.1016 -0.0508,-0.19685 -0.1397,-0.26035 -0.06985,-0.0508 -0.127,-0.0635 -0.3048,-0.0635 h -1.9177 c -0.1651,0 -0.2159,0.0063 -0.2794,0.04445 -0.1016,0.0635 -0.1651,0.17145 -0.1651,0.2794 0,0.10795 0.0508,0.20955 0.1397,0.2667 0.06985,0.0508 0.1397,0.0635 0.3048,0.0635 h 0.61595 v 2.2733 h -0.61595 c -0.1651,0 -0.2159,0.0064 -0.2794,0.04445 -0.1016,0.0635 -0.1651,0.17145 -0.1651,0.2794 0,0.22225 0.1524,0.3302 0.4445,0.3302 h 1.9177 c 0.2921,0 0.4445,-0.10795 0.4445,-0.3302 0,-0.1016 -0.0508,-0.19685 -0.1397,-0.26035 -0.06985,-0.0508 -0.13335,-0.0635 -0.3048,-0.0635 h -0.61595 z"
         style="font-style:normal;font-variant:normal;font-weight:bold;font-stretch:normal;font-size:6.3499999px;font-family:'Nimbus Mono PS';-inkscape-font-specification:'Nimbus Mono PS, Bold';font-variant-ligatures:normal;font-variant-caps:normal;font-variant-numeric:normal;font-variant-east_asian:normal;text-align:center;text-anchor:middle;stroke-width:0.26458299"
         id="path2367" />
      <path
         d="m 36.624369,17.25935 1.60655,2.33045 h 0.66675 v -2.92735 c 0.24765,-0.0064 0.38735,-0.12065 0.38735,-0.32385 0,-0.10795 -0.0508,-0.2032 -0.1397,-0.2667 -0.06985,-0.0508 -0.13335,-0.0635 -0.3048,-0.0635 h -0.8255 c -0.15875,0 -0.22225,0.0127 -0.2794,0.04445 -0.1016,0.0635 -0.1651,0.17145 -0.1651,0.28575 0,0.1016 0.0508,0.2032 0.1397,0.2667 0.06985,0.04445 0.1397,0.05715 0.3048,0.05715 h 0.19685 v 1.6637 l -1.6002,-2.31775 h -0.74295 c -0.15875,0 -0.22225,0.0127 -0.2794,0.04445 -0.1016,0.0635 -0.1651,0.17145 -0.1651,0.28575 0,0.1016 0.05715,0.2032 0.1397,0.2667 0.06985,0.04445 0.1397,0.05715 0.3048,0.05715 h 0.06985 v 2.2733 c -0.2413,0 -0.38735,0.12065 -0.38735,0.32385 0,0.2159 0.1524,0.3302 0.45085,0.3302 h 0.81915 c 0.2921,0 0.4445,-0.10795 0.4445,-0.3302 0,-0.1016 -0.0508,-0.2032 -0.1397,-0.2667 -0.06985,-0.0508 -0.127,-0.05715 -0.3048,-0.05715 h -0.19685 z"
         style="font-style:normal;font-variant:normal;font-weight:bold;font-stretch:normal;font-size:6.3499999px;font-family:'Nimbus Mono PS';-inkscape-font-specification:'Nimbus Mono PS, Bold';font-variant-ligatures:normal;font-variant-caps:normal;font-variant-numeric:normal;font-variant-east_asian:normal;text-align:center;text-anchor:middle;stroke-width:0.26458299"
         id="path2369" />
      <path
         d="m 42.828309,18.49125 c 0.17145,-0.0508 0.2667,-0.1651 0.2667,-0.32385 0,-0.1016 -0.0508,-0.19685 -0.1397,-0.26035 -0.06985,-0.0508 -0.13335,-0.0635 -0.31115,-0.0635 h -1.11125 c -0.1651,0 -0.2159,0.0064 -0.2794,0.04445 -0.1016,0.0635 -0.1651,0.1651 -0.1651,0.2794 0,0.10795 0.0508,0.2032 0.14605,0.2667 0.0635,0.0508 0.1397,0.0635 0.29845,0.0635 h 0.6096 v 0.381 c -0.22225,0.0889 -0.4699,0.13335 -0.7747,0.13335 -0.3937,0 -0.6985,-0.0889 -0.9144,-0.26035 -0.18415,-0.1524 -0.27305,-0.381 -0.27305,-0.71755 V 17.6467 c 0,-0.29845 0.12065,-0.5969 0.3302,-0.79375 0.1905,-0.18415 0.4699,-0.2794 0.8128,-0.2794 0.4572,0 0.76835,0.127 0.8255,0.3302 0.05715,0.19685 0.05715,0.19685 0.09525,0.2413 0.05715,0.0635 0.14605,0.1016 0.2413,0.1016 0.10795,0 0.20955,-0.0508 0.2794,-0.13335 0.0508,-0.06985 0.0635,-0.12065 0.0635,-0.2921 v -0.4699 c 0,-0.15875 -0.0063,-0.20955 -0.04445,-0.27305 -0.05715,-0.09525 -0.1651,-0.15875 -0.2794,-0.15875 -0.127,0 -0.19685,0.0508 -0.2667,0.18415 -0.27305,-0.12065 -0.57785,-0.18415 -0.9144,-0.18415 -0.5334,0 -0.9398,0.1524 -1.2827,0.47625 -0.34925,0.3302 -0.5461,0.78105 -0.5461,1.25095 v 0.42545 c 0,0.4318 0.1651,0.85725 0.42545,1.11125 0.3175,0.31115 0.8636,0.48895 1.4986,0.48895 0.50165,0 0.81915,-0.0889 1.4097,-0.38735 z"
         style="font-style:normal;font-variant:normal;font-weight:bold;font-stretch:normal;font-size:6.3499999px;font-family:'Nimbus Mono PS';-inkscape-font-specification:'Nimbus Mono PS, Bold';font-variant-ligatures:normal;font-variant-caps:normal;font-variant-numeric:normal;font-variant-east_asian:normal;text-align:center;text-anchor:middle;stroke-width:0.26458299"
         id="path2371" />
      <path
         d="m 48.854439,18.63095 -0.8763,-1.9685 h 0.08255 c 0.15875,0 0.22225,-0.0064 0.2794,-0.04445 0.1016,-0.05715 0.1651,-0.17145 0.1651,-0.2794 0,-0.10795 -0.0508,-0.2032 -0.1397,-0.2667 -0.0635,-0.0508 -0.1397,-0.0635 -0.3048,-0.0635 h -0.84455 c -0.15875,0 -0.2159,0.0127 -0.2794,0.04445 -0.1016,0.0635 -0.1651,0.17145 -0.1651,0.28575 0,0.1016 0.0508,0.2032 0.1397,0.2667 0.06985,0.04445 0.13335,0.05715 0.29845,0.05715 l 1.28905,2.92735 h 0.65405 l 1.30175,-2.92735 c 0.127,0 0.17145,0 0.2286,-0.01905 0.127,-0.04445 0.2159,-0.17145 0.2159,-0.3048 0,-0.10795 -0.0508,-0.2032 -0.1397,-0.2667 -0.0635,-0.0508 -0.1397,-0.0635 -0.3048,-0.0635 h -0.8382 c -0.15875,0 -0.22225,0.0127 -0.2794,0.04445 -0.1016,0.0635 -0.1651,0.17145 -0.1651,0.28575 0,0.1016 0.0508,0.2032 0.1397,0.2667 0.06985,0.0508 0.13335,0.05715 0.3048,0.05715 h 0.1143 z"
         style="font-style:normal;font-variant:normal;font-weight:bold;font-stretch:normal;font-size:6.3499999px;font-family:'Nimbus Mono PS';-inkscape-font-specification:'Nimbus Mono PS, Bold';font-variant-ligatures:normal;font-variant-caps:normal;font-variant-numeric:normal;font-variant-east_asian:normal;text-align:center;text-anchor:middle;stroke-width:0.26458299"
         id="path2373" />
      <path
         d="m 52.391381,16.66245 h 0.33655 c 0.14605,0 0.22225,-0.0127 0.2794,-0.04445 0.1016,-0.0635 0.1651,-0.17145 0.1651,-0.28575 0,-0.1016 -0.0508,-0.19685 -0.1397,-0.26035 -0.06985,-0.0508 -0.127,-0.0635 -0.3048,-0.0635 h -1.3589 c -0.17145,0 -0.2159,0.0063 -0.2794,0.04445 -0.1016,0.0635 -0.1651,0.1651 -0.1651,0.2794 0,0.10795 0.0508,0.20955 0.1397,0.2667 0.06985,0.0508 0.1397,0.0635 0.3048,0.0635 h 0.33655 v 2.2733 h -0.33655 c -0.1651,0 -0.2159,0.0064 -0.2794,0.04445 -0.1016,0.0635 -0.1651,0.1651 -0.1651,0.2794 0,0.22225 0.1524,0.3302 0.4445,0.3302 h 3.0226 v -1.18745 c 0,-0.15875 -0.0127,-0.2159 -0.0508,-0.27305 -0.0635,-0.1016 -0.17145,-0.15875 -0.2921,-0.15875 -0.1143,0 -0.20955,0.04445 -0.2794,0.13335 -0.0508,0.06985 -0.0635,0.127 -0.0635,0.29845 v 0.5334 h -1.31445 z"
         style="font-style:normal;font-variant:normal;font-weight:bold;font-stretch:normal;font-size:6.3499999px;font-family:'Nimbus Mono PS';-inkscape-font-specification:'Nimbus Mono PS, Bold';font-variant-ligatures:normal;font-variant-caps:normal;font-variant-numeric:normal;font-variant-east_asian:normal;text-align:center;text-anchor:middle;stroke-width:0.26458299"
         id="path2375" />
      <path
         d="m 57.179271,18.63095 0.12065,0.29845 h -0.10795 c -0.1651,0 -0.2159,0.0127 -0.2794,0.0508 -0.1016,0.05715 -0.1651,0.1651 -0.1651,0.2794 0,0.10795 0.0508,0.2032 0.1397,0.2667 0.0635,0.04445 0.1524,0.0635 0.3048,0.0635 h 0.88265 c 0.13335,0 0.2286,-0.0127 0.2794,-0.04445 0.1016,-0.05715 0.1651,-0.17145 0.1651,-0.28575 0,-0.1016 -0.0508,-0.2032 -0.1397,-0.2667 -0.06985,-0.04445 -0.127,-0.05715 -0.29845,-0.0635 l -1.26365,-2.921 h -1.39065 c -0.17145,0 -0.22225,0.0063 -0.28575,0.04445 -0.1016,0.0635 -0.1651,0.17145 -0.1651,0.2794 0,0.10795 0.0508,0.2032 0.14605,0.2667 0.0635,0.0508 0.13335,0.0635 0.3048,0.0635 h 0.36195 l -0.9652,2.26695 c -0.2794,0 -0.4318,0.1143 -0.4318,0.3302 0,0.22225 0.14605,0.3302 0.4445,0.3302 h 0.84455 c 0.13335,0 0.2286,-0.0127 0.2794,-0.04445 0.1016,-0.0635 0.1651,-0.17145 0.1651,-0.28575 0,-0.1016 -0.0508,-0.2032 -0.1397,-0.2667 -0.06985,-0.0508 -0.127,-0.0635 -0.3048,-0.0635 h -0.10795 l 0.127,-0.29845 z m -0.28575,-0.65405 h -0.92075 l 0.46355,-1.07315 z"
         style="font-style:normal;font-variant:normal;font-weight:bold;font-stretch:normal;font-size:6.3499999px;font-family:'Nimbus Mono PS';-inkscape-font-specification:'Nimbus Mono PS, Bold';font-variant-ligatures:normal;font-variant-caps:normal;font-variant-numeric:normal;font-variant-east_asian:normal;text-align:center;text-anchor:middle;stroke-width:0.26458299"
         id="path2377" />
      <path
         d="m 60.354261,15.11305 -0.70485,-0.5715 c -0.0762,-0.0635 -0.127,-0.08255 -0.1905,-0.08255 -0.13335,0 -0.24765,0.10795 -0.24765,0.23495 0,0.09525 0.01905,0.12065 0.15875,0.23495 l 0.98425,0.7874 0.9779,-0.7874 c 0.1524,-0.127 0.15875,-0.13335 0.15875,-0.2286 0,-0.13335 -0.1143,-0.2413 -0.24765,-0.2413 -0.0635,0 -0.12065,0.0254 -0.1905,0.08255 z m 1.31445,1.2319 c 0,-0.1651 -0.0064,-0.20955 -0.04445,-0.27305 -0.05715,-0.09525 -0.17145,-0.1524 -0.2921,-0.1524 -0.127,0 -0.19685,0.0508 -0.26035,0.1905 -0.20955,-0.12065 -0.4953,-0.1905 -0.81915,-0.1905 -0.8001,0 -1.397,0.4699 -1.397,1.0922 0,0.3556 0.2032,0.6858 0.5334,0.8636 0.20955,0.1143 0.4064,0.17145 0.83185,0.2413 0.4191,0.0762 0.5207,0.1016 0.6604,0.1651 0.127,0.0635 0.20955,0.1778 0.20955,0.2921 0,0.24765 -0.3556,0.43815 -0.8128,0.43815 -0.4064,0 -0.8001,-0.17145 -0.8636,-0.37465 -0.0508,-0.1651 -0.0508,-0.1651 -0.09525,-0.2159 -0.0635,-0.05715 -0.1524,-0.0889 -0.24765,-0.0889 -0.10795,0 -0.20955,0.0508 -0.2794,0.13335 -0.04445,0.0635 -0.0635,0.13335 -0.0635,0.2921 V 19.158 c 0,0.28575 0.1143,0.42545 0.3429,0.42545 0.10795,0 0.1651,-0.03175 0.2667,-0.1397 0.32385,0.15875 0.64135,0.2286 0.98425,0.2286 0.88265,0 1.47955,-0.43815 1.47955,-1.08585 0,-0.32385 -0.127,-0.57785 -0.381,-0.7747 -0.2032,-0.1524 -0.45085,-0.2413 -1.00965,-0.33655 -0.4826,-0.0889 -0.50165,-0.09525 -0.62865,-0.15875 -0.127,-0.05715 -0.2159,-0.1905 -0.2159,-0.31115 0,-0.2413 0.3048,-0.4318 0.69215,-0.4318 0.38735,0 0.6731,0.15875 0.73025,0.38735 0.04445,0.2032 0.04445,0.2032 0.09525,0.254 0.05715,0.05715 0.1524,0.09525 0.24765,0.09525 0.10795,0 0.2032,-0.0508 0.27305,-0.13335 0.0508,-0.06985 0.0635,-0.12065 0.0635,-0.2921 z"
         style="font-style:normal;font-variant:normal;font-weight:bold;font-stretch:normal;font-size:6.3499999px;font-family:'Nimbus Mono PS';-inkscape-font-specification:'Nimbus Mono PS, Bold';font-variant-ligatures:normal;font-variant-caps:normal;font-variant-numeric:normal;font-variant-east_asian:normal;text-align:center;text-anchor:middle;stroke-width:0.26458299"
         id="path2379" />
      <path
         d="m 65.4787,16.34495 c 0,-0.1651 -0.0063,-0.20955 -0.04445,-0.27305 -0.05715,-0.09525 -0.17145,-0.1524 -0.2921,-0.1524 -0.127,0 -0.19685,0.0508 -0.26035,0.1905 -0.20955,-0.12065 -0.4953,-0.1905 -0.81915,-0.1905 -0.8001,0 -1.397,0.4699 -1.397,1.0922 0,0.3556 0.2032,0.6858 0.5334,0.8636 0.20955,0.1143 0.4064,0.17145 0.83185,0.2413 0.4191,0.0762 0.5207,0.1016 0.6604,0.1651 0.127,0.0635 0.20955,0.1778 0.20955,0.2921 0,0.24765 -0.3556,0.43815 -0.8128,0.43815 -0.4064,0 -0.8001,-0.17145 -0.8636,-0.37465 -0.0508,-0.1651 -0.0508,-0.1651 -0.09525,-0.2159 -0.0635,-0.05715 -0.1524,-0.0889 -0.24765,-0.0889 -0.10795,0 -0.20955,0.0508 -0.2794,0.13335 -0.04445,0.0635 -0.0635,0.13335 -0.0635,0.2921 V 19.158 c 0,0.28575 0.1143,0.42545 0.3429,0.42545 0.10795,0 0.1651,-0.03175 0.2667,-0.1397 0.32385,0.15875 0.64135,0.2286 0.98425,0.2286 0.88265,0 1.47955,-0.43815 1.47955,-1.08585 0,-0.32385 -0.127,-0.57785 -0.381,-0.7747 -0.2032,-0.1524 -0.45085,-0.2413 -1.00965,-0.33655 -0.4826,-0.0889 -0.50165,-0.09525 -0.62865,-0.15875 -0.127,-0.05715 -0.2159,-0.1905 -0.2159,-0.31115 0,-0.2413 0.3048,-0.4318 0.69215,-0.4318 0.38735,0 0.6731,0.15875 0.73025,0.38735 0.04445,0.2032 0.04445,0.2032 0.09525,0.254 0.05715,0.05715 0.1524,0.09525 0.24765,0.09525 0.10795,0 0.2032,-0.0508 0.27305,-0.13335 0.0508,-0.06985 0.0635,-0.12065 0.0635,-0.2921 z"
         style="font-style:normal;font-variant:normal;font-weight:bold;font-stretch:normal;font-size:6.3499999px;font-family:'Nimbus Mono PS';-inkscape-font-specification:'Nimbus Mono PS, Bold';font-variant-ligatures:normal;font-variant-caps:normal;font-variant-numeric:normal;font-variant-east_asian:normal;text-align:center;text-anchor:middle;stroke-width:0.26458299"
         id="path2381" />
      <path
         d="m 67.23764,18.3198 0.3556,-0.2921 c 0.3683,0.1016 0.8001,0.73025 1.07315,1.5621 h 0.71755 c 0.2921,0 0.4445,-0.10795 0.4445,-0.3302 0,-0.1016 -0.0508,-0.2032 -0.1397,-0.2667 -0.06985,-0.0508 -0.13335,-0.05715 -0.3048,-0.05715 h -0.18415 c -0.28575,-0.67945 -0.6731,-1.1811 -1.04775,-1.3716 l 1.0795,-0.9017 c 0.2667,0 0.41275,-0.1143 0.41275,-0.32385 0,-0.10795 -0.0508,-0.2032 -0.1397,-0.2667 -0.0635,-0.0508 -0.13335,-0.0635 -0.3048,-0.0635 h -0.635 c -0.13335,0 -0.17145,0.0063 -0.23495,0.0254 -0.12065,0.0381 -0.20955,0.17145 -0.20955,0.31115 0,0.13335 0.0635,0.2286 0.17145,0.2794 l -1.0541,0.8636 v -0.8255 h 0.19685 c 0.1524,0 0.22225,-0.0064 0.2794,-0.04445 0.1016,-0.05715 0.1651,-0.1651 0.1651,-0.2794 0,-0.10795 -0.0508,-0.2032 -0.1397,-0.2667 -0.06985,-0.0508 -0.13335,-0.0635 -0.3048,-0.0635 h -0.9525 c -0.15875,0 -0.22225,0.0127 -0.2794,0.04445 -0.1016,0.0635 -0.1651,0.17145 -0.1651,0.28575 0,0.1016 0.0508,0.2032 0.1397,0.2667 0.06985,0.04445 0.1397,0.05715 0.3048,0.05715 h 0.06985 v 2.2733 h -0.06985 c -0.15875,0 -0.2159,0.0064 -0.2794,0.04445 -0.1016,0.05715 -0.1651,0.1651 -0.1651,0.2794 0,0.10795 0.0508,0.2032 0.1397,0.2667 0.0635,0.04445 0.15875,0.0635 0.3048,0.0635 h 0.9525 c 0.2921,0 0.4445,-0.1143 0.4445,-0.3302 0,-0.1016 -0.0508,-0.2032 -0.1397,-0.2667 -0.06985,-0.04445 -0.127,-0.05715 -0.3048,-0.05715 h -0.19685 z"
         style="font-style:normal;font-variant:normal;font-weight:bold;font-stretch:normal;font-size:6.3499999px;font-family:'Nimbus Mono PS';-inkscape-font-specification:'Nimbus Mono PS, Bold';font-variant-ligatures:normal;font-variant-caps:normal;font-variant-numeric:normal;font-variant-east_asian:normal;text-align:center;text-anchor:middle;stroke-width:0.26458299"
         id="path2383" />
      <path
         d="m 72.03823,18.0912 1.0287,-1.42875 c 0.2794,0 0.42545,-0.1143 0.42545,-0.32385 0,-0.10795 -0.0508,-0.2032 -0.1397,-0.2667 -0.06985,-0.0508 -0.13335,-0.0635 -0.3048,-0.0635 h -0.5842 c -0.1524,0 -0.2286,0.0127 -0.28575,0.04445 -0.1016,0.0635 -0.1651,0.17145 -0.1651,0.2794 0,0.14605 0.0762,0.254 0.23495,0.3175 l -0.55245,0.76835 -0.56515,-0.76835 c 0.1524,-0.06985 0.2286,-0.17145 0.2286,-0.31115 0,-0.10795 -0.0508,-0.2032 -0.1397,-0.2667 -0.0635,-0.0508 -0.13335,-0.0635 -0.3048,-0.0635 h -0.56515 c -0.13335,0 -0.1778,0.0063 -0.23495,0.0254 -0.12065,0.0381 -0.2159,0.17145 -0.2159,0.3048 0,0.1016 0.0508,0.2032 0.1397,0.2667 0.0635,0.0381 0.12065,0.0508 0.2794,0.05715 l 1.03505,1.42875 v 0.84455 h -0.38735 c -0.17145,0 -0.22225,0.0064 -0.28575,0.04445 -0.1016,0.0635 -0.1651,0.17145 -0.1651,0.2794 0,0.2159 0.1524,0.3302 0.45085,0.3302 h 1.4605 c 0.29845,0 0.45085,-0.1143 0.45085,-0.3302 0,-0.1016 -0.0508,-0.19685 -0.1397,-0.26035 -0.06985,-0.0508 -0.13335,-0.0635 -0.31115,-0.0635 h -0.38735 z m 0.47625,-3.15595 c 0.12065,-0.09525 0.15875,-0.14605 0.15875,-0.23495 0,-0.1397 -0.1143,-0.24765 -0.26035,-0.24765 -0.08255,0 -0.1143,0.01905 -0.22225,0.1016 l -0.8509,0.6731 c -0.10795,0.0889 -0.1524,0.15875 -0.1524,0.2413 0,0.13335 0.12065,0.24765 0.26035,0.24765 0.06985,0 0.1143,-0.01905 0.2159,-0.1016 z"
         style="font-style:normal;font-variant:normal;font-weight:bold;font-stretch:normal;font-size:6.3499999px;font-family:'Nimbus Mono PS';-inkscape-font-specification:'Nimbus Mono PS, Bold';font-variant-ligatures:normal;font-variant-caps:normal;font-variant-numeric:normal;font-variant-east_asian:normal;text-align:center;text-anchor:middle;stroke-width:0.26458299"
         id="path2385" />
      <path
         d="m 26.902543,25.254 0.7112,1.4351 h 0.60325 l 0.66675,-1.42875 v 1.60655 h -0.19685 c -0.1651,0 -0.2159,0.0127 -0.2794,0.0508 -0.1016,0.05715 -0.1651,0.1651 -0.1651,0.2794 0,0.1016 0.0508,0.2032 0.1397,0.2667 0.0635,0.04445 0.1524,0.0635 0.3048,0.0635 h 0.8255 c 0.2921,0 0.4445,-0.1143 0.4445,-0.3302 0,-0.10795 -0.0508,-0.2032 -0.1397,-0.2667 -0.0635,-0.04445 -0.10795,-0.05715 -0.24765,-0.0635 v -2.26695 c 0.2159,-0.03175 0.3302,-0.1397 0.3302,-0.3302 0,-0.1016 -0.0508,-0.19685 -0.1397,-0.26035 -0.06985,-0.0508 -0.13335,-0.0635 -0.3048,-0.0635 h -0.7112 l -0.84455,1.7653 -0.8636,-1.7653 h -0.70485 c -0.127,0 -0.17145,0.0063 -0.2286,0.0254 -0.127,0.0381 -0.2159,0.17145 -0.2159,0.29845 0,0.1905 0.1143,0.29845 0.3302,0.3302 v 2.26695 c -0.2413,0.0063 -0.38735,0.127 -0.38735,0.3302 0,0.2159 0.1524,0.3302 0.45085,0.3302 h 0.81915 c 0.2921,0 0.4445,-0.10795 0.4445,-0.3302 0,-0.10795 -0.0508,-0.2032 -0.1397,-0.2667 -0.06985,-0.0508 -0.127,-0.0635 -0.3048,-0.0635 h -0.19685 z"
         style="font-style:normal;font-variant:normal;font-weight:bold;font-stretch:normal;font-size:6.3499999px;font-family:'Nimbus Mono PS';-inkscape-font-specification:'Nimbus Mono PS, Bold';font-variant-ligatures:normal;font-variant-caps:normal;font-variant-numeric:normal;font-variant-east_asian:normal;text-align:center;text-anchor:middle;stroke-width:0.26458299"
         id="path2387" />
      <path
         d="m 31.042733,26.0541 h 0.48895 v 0.01905 c 0,0.1524 0.0063,0.20955 0.04445,0.2667 0.0635,0.09525 0.1778,0.15875 0.2921,0.15875 0.10795,0 0.2159,-0.0508 0.2794,-0.13335 0.0508,-0.06985 0.0635,-0.12065 0.0635,-0.2921 v -0.6858 c 0,-0.127 -0.0063,-0.1651 -0.0254,-0.2286 -0.04445,-0.1143 -0.1778,-0.2032 -0.3175,-0.2032 -0.10795,0 -0.20955,0.0508 -0.27305,0.13335 -0.0508,0.06985 -0.0635,0.13335 -0.0635,0.29845 v 0.01905 h -0.48895 v -0.80645 h 1.4351 v 0.2794 c 0,0.14605 0.0127,0.2159 0.0508,0.27305 0.0635,0.09525 0.1778,0.15875 0.2921,0.15875 0.10795,0 0.20955,-0.0508 0.2794,-0.13335 0.0508,-0.06985 0.0635,-0.127 0.0635,-0.29845 V 23.9459 h -2.87655 c -0.17145,0 -0.2159,0.0063 -0.2794,0.04445 -0.1016,0.0635 -0.1651,0.1651 -0.1651,0.2794 0,0.10795 0.0508,0.2032 0.1397,0.2667 0.06985,0.0508 0.1397,0.0635 0.3048,0.0635 h 0.06985 v 2.2733 h -0.06985 c -0.15875,0 -0.2159,0.0127 -0.2794,0.04445 -0.1016,0.0635 -0.1651,0.1651 -0.1651,0.2794 0,0.2159 0.1524,0.3302 0.4445,0.3302 h 3.01625 v -0.94615 c 0,-0.1524 -0.0127,-0.2159 -0.0508,-0.27305 -0.0635,-0.1016 -0.17145,-0.15875 -0.2921,-0.15875 -0.10795,0 -0.20955,0.0508 -0.2794,0.13335 -0.0508,0.06985 -0.0635,0.127 -0.0635,0.29845 v 0.2921 h -1.5748 z"
         style="font-style:normal;font-variant:normal;font-weight:bold;font-stretch:normal;font-size:6.3499999px;font-family:'Nimbus Mono PS';-inkscape-font-specification:'Nimbus Mono PS, Bold';font-variant-ligatures:normal;font-variant-caps:normal;font-variant-numeric:normal;font-variant-east_asian:normal;text-align:center;text-anchor:middle;stroke-width:0.26458299"
         id="path2389" />
      <path
         d="m 35.246423,24.59995 h 0.33655 c 0.14605,0 0.22225,-0.0127 0.2794,-0.04445 0.1016,-0.0635 0.1651,-0.17145 0.1651,-0.28575 0,-0.1016 -0.0508,-0.19685 -0.1397,-0.26035 -0.06985,-0.0508 -0.127,-0.0635 -0.3048,-0.0635 h -1.3589 c -0.171449,0 -0.215899,0.0063 -0.279399,0.04445 -0.1016,0.0635 -0.1651,0.1651 -0.1651,0.2794 0,0.10795 0.0508,0.20955 0.1397,0.2667 0.06985,0.0508 0.1397,0.0635 0.304799,0.0635 h 0.33655 v 2.2733 h -0.33655 c -0.165099,0 -0.215899,0.0064 -0.279399,0.04445 -0.1016,0.0635 -0.1651,0.1651 -0.1651,0.2794 0,0.22225 0.1524,0.3302 0.444499,0.3302 h 3.0226 v -1.18745 c 0,-0.15875 -0.0127,-0.2159 -0.0508,-0.27305 -0.0635,-0.1016 -0.17145,-0.15875 -0.2921,-0.15875 -0.1143,0 -0.20955,0.04445 -0.2794,0.13335 -0.0508,0.06985 -0.0635,0.127 -0.0635,0.29845 v 0.5334 h -1.31445 z"
         style="font-style:normal;font-variant:normal;font-weight:bold;font-stretch:normal;font-size:6.3499999px;font-family:'Nimbus Mono PS';-inkscape-font-specification:'Nimbus Mono PS, Bold';font-variant-ligatures:normal;font-variant-caps:normal;font-variant-numeric:normal;font-variant-east_asian:normal;text-align:center;text-anchor:middle;stroke-width:0.26458299"
         id="path2391" />
      <path
         d="m 38.662714,26.0541 h 0.48895 v 0.01905 c 0,0.1524 0.0064,0.20955 0.04445,0.2667 0.0635,0.09525 0.1778,0.15875 0.2921,0.15875 0.10795,0 0.2159,-0.0508 0.2794,-0.13335 0.0508,-0.06985 0.0635,-0.12065 0.0635,-0.2921 v -0.6858 c 0,-0.127 -0.0063,-0.1651 -0.0254,-0.2286 -0.04445,-0.1143 -0.1778,-0.2032 -0.3175,-0.2032 -0.10795,0 -0.20955,0.0508 -0.27305,0.13335 -0.0508,0.06985 -0.0635,0.13335 -0.0635,0.29845 v 0.01905 h -0.48895 v -0.80645 h 1.4351 v 0.2794 c 0,0.14605 0.0127,0.2159 0.0508,0.27305 0.0635,0.09525 0.1778,0.15875 0.2921,0.15875 0.10795,0 0.20955,-0.0508 0.2794,-0.13335 0.0508,-0.06985 0.0635,-0.127 0.0635,-0.29845 V 23.9459 h -2.87655 c -0.17145,0 -0.2159,0.0063 -0.2794,0.04445 -0.1016,0.0635 -0.1651,0.1651 -0.1651,0.2794 0,0.10795 0.0508,0.2032 0.1397,0.2667 0.06985,0.0508 0.1397,0.0635 0.3048,0.0635 h 0.06985 v 2.2733 h -0.06985 c -0.15875,0 -0.2159,0.0127 -0.2794,0.04445 -0.1016,0.0635 -0.1651,0.1651 -0.1651,0.2794 0,0.2159 0.1524,0.3302 0.4445,0.3302 h 3.01625 v -0.94615 c 0,-0.1524 -0.0127,-0.2159 -0.0508,-0.27305 -0.0635,-0.1016 -0.17145,-0.15875 -0.2921,-0.15875 -0.10795,0 -0.20955,0.0508 -0.2794,0.13335 -0.0508,0.06985 -0.0635,0.127 -0.0635,0.29845 v 0.2921 h -1.5748 z"
         style="font-style:normal;font-variant:normal;font-weight:bold;font-stretch:normal;font-size:6.3499999px;font-family:'Nimbus Mono PS';-inkscape-font-specification:'Nimbus Mono PS, Bold';font-variant-ligatures:normal;font-variant-caps:normal;font-variant-numeric:normal;font-variant-east_asian:normal;text-align:center;text-anchor:middle;stroke-width:0.26458299"
         id="path2393" />
      <path
         d="m 42.472704,26.2573 0.3556,-0.2921 c 0.3683,0.1016 0.8001,0.73025 1.07315,1.5621 h 0.71755 c 0.2921,0 0.4445,-0.10795 0.4445,-0.3302 0,-0.1016 -0.0508,-0.2032 -0.1397,-0.2667 -0.06985,-0.0508 -0.13335,-0.05715 -0.3048,-0.05715 h -0.18415 c -0.28575,-0.67945 -0.6731,-1.1811 -1.04775,-1.3716 l 1.0795,-0.9017 c 0.2667,0 0.41275,-0.1143 0.41275,-0.32385 0,-0.10795 -0.0508,-0.2032 -0.1397,-0.2667 -0.0635,-0.0508 -0.13335,-0.0635 -0.3048,-0.0635 h -0.635 c -0.13335,0 -0.17145,0.0063 -0.23495,0.0254 -0.12065,0.0381 -0.20955,0.17145 -0.20955,0.31115 0,0.13335 0.0635,0.2286 0.17145,0.2794 l -1.0541,0.8636 v -0.8255 h 0.19685 c 0.1524,0 0.22225,-0.0064 0.2794,-0.04445 0.1016,-0.05715 0.1651,-0.1651 0.1651,-0.2794 0,-0.10795 -0.0508,-0.2032 -0.1397,-0.2667 -0.06985,-0.0508 -0.13335,-0.0635 -0.3048,-0.0635 h -0.9525 c -0.15875,0 -0.22225,0.0127 -0.2794,0.04445 -0.1016,0.0635 -0.1651,0.17145 -0.1651,0.28575 0,0.1016 0.0508,0.2032 0.1397,0.2667 0.06985,0.04445 0.1397,0.05715 0.3048,0.05715 h 0.06985 v 2.2733 h -0.06985 c -0.15875,0 -0.2159,0.0064 -0.2794,0.04445 -0.1016,0.05715 -0.1651,0.1651 -0.1651,0.2794 0,0.10795 0.0508,0.2032 0.1397,0.2667 0.0635,0.04445 0.15875,0.0635 0.3048,0.0635 h 0.9525 c 0.2921,0 0.4445,-0.1143 0.4445,-0.3302 0,-0.1016 -0.0508,-0.2032 -0.1397,-0.2667 -0.06985,-0.04445 -0.127,-0.05715 -0.3048,-0.05715 h -0.19685 z"
         style="font-style:normal;font-variant:normal;font-weight:bold;font-stretch:normal;font-size:6.3499999px;font-family:'Nimbus Mono PS';-inkscape-font-specification:'Nimbus Mono PS, Bold';font-variant-ligatures:normal;font-variant-caps:normal;font-variant-numeric:normal;font-variant-east_asian:normal;text-align:center;text-anchor:middle;stroke-width:0.26458299"
         id="path2395" />
      <path
         d="m 50.219685,26.8669 c 1.651,-1.32715 1.83515,-1.5367 1.83515,-2.06375 0,-0.67945 -0.59055,-1.1938 -1.37795,-1.1938 -0.38735,0 -0.74295,0.127 -1.0033,0.34925 -0.22225,0.1905 -0.3937,0.48895 -0.3937,0.69215 0,0.17145 0.15875,0.3175 0.3429,0.3175 0.14605,0 0.27305,-0.0762 0.31115,-0.1905 0.06985,-0.19685 0.0762,-0.20955 0.13335,-0.27305 0.1397,-0.1524 0.34925,-0.2413 0.5969,-0.2413 0.40005,0 0.70485,0.22225 0.70485,0.5207 0,0.19685 -0.1016,0.3175 -0.7366,0.86995 -0.26035,0.2286 -0.70485,0.59055 -1.44145,1.16205 l -0.0381,0.03175 v 0.67945 h 2.9337 v -0.5588 c 0,-0.1524 -0.0127,-0.20955 -0.0508,-0.27305 -0.0635,-0.09525 -0.17145,-0.1524 -0.2921,-0.1524 -0.2032,0 -0.31115,0.1016 -0.33655,0.32385 z"
         style="font-style:normal;font-variant:normal;font-weight:bold;font-stretch:normal;font-size:6.3499999px;font-family:'Nimbus Mono PS';-inkscape-font-specification:'Nimbus Mono PS, Bold';font-variant-ligatures:normal;font-variant-caps:normal;font-variant-numeric:normal;font-variant-east_asian:normal;text-align:center;text-anchor:middle;stroke-width:0.26458299"
         id="path2397" />
      <path
         d="m 55.953725,25.3302 c 0,-0.5588 -0.18415,-1.06045 -0.50165,-1.3843 -0.2286,-0.22225 -0.5334,-0.33655 -0.9017,-0.33655 -0.3683,0 -0.6731,0.1143 -0.9017,0.33655 -0.3175,0.32385 -0.50165,0.8255 -0.50165,1.3843 v 0.5715 c 0,0.55245 0.18415,1.06045 0.50165,1.37795 0.2286,0.22225 0.5334,0.33655 0.9017,0.33655 0.3683,0 0.6731,-0.1143 0.9017,-0.33655 0.3175,-0.3175 0.50165,-0.8255 0.50165,-1.37795 z m -2.1209,-0.04445 c 0,-0.6223 0.2794,-1.02235 0.71755,-1.02235 0.43815,0 0.71755,0.40005 0.71755,1.02235 v 0.65405 c 0,0.61595 -0.28575,1.02235 -0.71755,1.02235 -0.4318,0 -0.71755,-0.4064 -0.71755,-1.02235 z"
         style="font-style:normal;font-variant:normal;font-weight:bold;font-stretch:normal;font-size:6.3499999px;font-family:'Nimbus Mono PS';-inkscape-font-specification:'Nimbus Mono PS, Bold';font-variant-ligatures:normal;font-variant-caps:normal;font-variant-numeric:normal;font-variant-east_asian:normal;text-align:center;text-anchor:middle;stroke-width:0.26458299"
         id="path2399" />
      <path
         d="m 58.703264,23.60935 -1.377949,0.33655 c -0.2667,0.0635 -0.3556,0.1524 -0.3556,0.33655 0,0.1905 0.1397,0.3429 0.3175,0.3429 0.0635,0 0.08255,-0.0064 0.209549,-0.0381 l 0.5207,-0.13335 v 2.41935 h -0.61595 c -0.165099,0 -0.215899,0.0064 -0.279399,0.04445 -0.1016,0.0635 -0.1651,0.17145 -0.1651,0.2794 0,0.1016 0.05715,0.20955 0.1397,0.2667 0.0635,0.04445 0.15875,0.0635 0.304799,0.0635 h 1.9177 c 0.2921,0 0.4445,-0.1143 0.4445,-0.3302 0,-0.1016 -0.0508,-0.19685 -0.1397,-0.26035 -0.06985,-0.0508 -0.13335,-0.0635 -0.3048,-0.0635 h -0.61595 z"
         style="font-style:normal;font-variant:normal;font-weight:bold;font-stretch:normal;font-size:6.3499999px;font-family:'Nimbus Mono PS';-inkscape-font-specification:'Nimbus Mono PS, Bold';font-variant-ligatures:normal;font-variant-caps:normal;font-variant-numeric:normal;font-variant-east_asian:normal;text-align:center;text-anchor:middle;stroke-width:0.26458299"
         id="path2401" />
      <path
         d="m 62.976806,25.5715 c 0.3556,-0.2286 0.53975,-0.51435 0.53975,-0.8255 0,-0.635 -0.59055,-1.13665 -1.3462,-1.13665 -0.75565,0 -1.3462,0.50165 -1.3462,1.13665 0,0.3175 0.18415,0.59055 0.53975,0.8255 -0.3937,0.23495 -0.5969,0.5588 -0.5969,0.93345 0,0.6604 0.56515,1.11125 1.397,1.11125 0.8382,0 1.4097,-0.45085 1.4097,-1.11125 0,-0.37465 -0.2032,-0.6985 -0.5969,-0.93345 z m -0.80645,-1.3081 c 0.38735,0 0.6604,0.2032 0.6604,0.4953 0,0.31115 -0.2667,0.51435 -0.6604,0.51435 -0.38735,0 -0.6604,-0.20955 -0.6604,-0.508 0,-0.29845 0.2667,-0.50165 0.6604,-0.50165 z m 0,1.67005 c 0.3937,0 0.71755,0.2286 0.71755,0.51435 0,0.3048 -0.2921,0.51435 -0.71755,0.51435 -0.4191,0 -0.71755,-0.20955 -0.71755,-0.508 0,-0.2921 0.32385,-0.5207 0.71755,-0.5207 z"
         style="font-style:normal;font-variant:normal;font-weight:bold;font-stretch:normal;font-size:6.3499999px;font-family:'Nimbus Mono PS';-inkscape-font-specification:'Nimbus Mono PS, Bold';font-variant-ligatures:normal;font-variant-caps:normal;font-variant-numeric:normal;font-variant-east_asian:normal;text-align:center;text-anchor:middle;stroke-width:0.26458299"
         id="path2403" />
      <path
         d="m 25.327748,34.25195 h 0.5969 c 0.5969,0 0.92075,-0.10795 1.2065,-0.4064 0.2032,-0.2159 0.32385,-0.508 0.32385,-0.79375 0,-0.6858 -0.5842,-1.1684 -1.40335,-1.1684 h -1.47955 c -0.1651,0 -0.2159,0.0063 -0.2794,0.04445 -0.1016,0.0635 -0.1651,0.17145 -0.1651,0.2794 0,0.10795 0.05715,0.20955 0.1397,0.2667 0.06985,0.0508 0.1397,0.0635 0.3048,0.0635 h 0.06985 v 2.2733 h -0.06985 c -0.15875,0 -0.2159,0.0127 -0.2794,0.04445 -0.1016,0.0635 -0.1651,0.17145 -0.1651,0.2794 0,0.1016 0.05715,0.20955 0.1397,0.2667 0.0635,0.04445 0.15875,0.0635 0.3048,0.0635 h 1.3589 c 0.2921,0 0.4445,-0.10795 0.4445,-0.3302 0,-0.1016 -0.0508,-0.19685 -0.1397,-0.26035 -0.06985,-0.0508 -0.13335,-0.0635 -0.3048,-0.0635 h -0.60325 z m 0,-1.7145 h 0.7239 c 0.42545,0 0.67945,0.19685 0.67945,0.52705 0,0.33655 -0.254,0.5334 -0.67945,0.5334 h -0.7239 z"
         style="font-style:normal;font-variant:normal;font-weight:bold;font-stretch:normal;font-size:6.3499999px;font-family:'Nimbus Mono PS';-inkscape-font-specification:'Nimbus Mono PS, Bold';font-variant-ligatures:normal;font-variant-caps:normal;font-variant-numeric:normal;font-variant-east_asian:normal;text-align:center;text-anchor:middle;stroke-width:0.26458299"
         id="path2405" />
      <path
         d="m 29.137738,33.9916 h 0.48895 v 0.01905 c 0,0.1524 0.0063,0.20955 0.04445,0.2667 0.0635,0.09525 0.1778,0.15875 0.2921,0.15875 0.10795,0 0.2159,-0.0508 0.2794,-0.13335 0.0508,-0.06985 0.0635,-0.12065 0.0635,-0.2921 v -0.6858 c 0,-0.127 -0.0064,-0.1651 -0.0254,-0.2286 -0.04445,-0.1143 -0.1778,-0.2032 -0.3175,-0.2032 -0.10795,0 -0.20955,0.0508 -0.27305,0.13335 -0.0508,0.06985 -0.0635,0.13335 -0.0635,0.29845 v 0.01905 h -0.48895 v -0.80645 h 1.4351 v 0.2794 c 0,0.14605 0.0127,0.2159 0.0508,0.27305 0.0635,0.09525 0.1778,0.15875 0.2921,0.15875 0.10795,0 0.20955,-0.0508 0.2794,-0.13335 0.0508,-0.06985 0.0635,-0.127 0.0635,-0.29845 V 31.8834 h -2.87655 c -0.17145,0 -0.2159,0.0063 -0.2794,0.04445 -0.1016,0.0635 -0.1651,0.1651 -0.1651,0.2794 0,0.10795 0.0508,0.2032 0.1397,0.2667 0.06985,0.0508 0.1397,0.0635 0.3048,0.0635 h 0.06985 v 2.2733 h -0.06985 c -0.15875,0 -0.2159,0.0127 -0.2794,0.04445 -0.1016,0.0635 -0.1651,0.1651 -0.1651,0.2794 0,0.2159 0.1524,0.3302 0.4445,0.3302 h 3.01625 v -0.94615 c 0,-0.1524 -0.0127,-0.2159 -0.0508,-0.27305 -0.0635,-0.1016 -0.17145,-0.15875 -0.2921,-0.15875 -0.10795,0 -0.20955,0.0508 -0.2794,0.13335 -0.0508,0.06985 -0.0635,0.127 -0.0635,0.29845 v 0.2921 h -1.5748 z"
         style="font-style:normal;font-variant:normal;font-weight:bold;font-stretch:normal;font-size:6.3499999px;font-family:'Nimbus Mono PS';-inkscape-font-specification:'Nimbus Mono PS, Bold';font-variant-ligatures:normal;font-variant-caps:normal;font-variant-numeric:normal;font-variant-east_asian:normal;text-align:center;text-anchor:middle;stroke-width:0.26458299"
         id="path2407" />
      <path
         d="m 33.931978,32.53745 h 0.64135 v 0.5334 c 0,0.1524 0.0127,0.2159 0.0508,0.27305 0.0635,0.1016 0.17145,0.15875 0.2921,0.15875 0.10795,0 0.20955,-0.0508 0.2794,-0.13335 0.0508,-0.06985 0.0635,-0.12065 0.0635,-0.29845 V 31.8834 h -3.3274 v 1.18745 c 0,0.1524 0.0127,0.2159 0.0508,0.27305 0.0635,0.1016 0.1778,0.15875 0.2921,0.15875 0.10795,0 0.20955,-0.0508 0.2794,-0.13335 0.0508,-0.06985 0.0635,-0.12065 0.0635,-0.29845 v -0.5334 h 0.62865 v 2.2733 h -0.38735 c -0.1651,0 -0.2159,0.0064 -0.2794,0.04445 -0.1016,0.0635 -0.1651,0.17145 -0.1651,0.2794 0,0.1016 0.05715,0.20955 0.1397,0.2667 0.0635,0.04445 0.15875,0.0635 0.3048,0.0635 h 1.46685 c 0.2921,0 0.4445,-0.10795 0.4445,-0.3302 0,-0.1016 -0.0508,-0.19685 -0.1397,-0.26035 -0.06985,-0.0508 -0.13335,-0.0635 -0.3048,-0.0635 h -0.3937 z"
         style="font-style:normal;font-variant:normal;font-weight:bold;font-stretch:normal;font-size:6.3499999px;font-family:'Nimbus Mono PS';-inkscape-font-specification:'Nimbus Mono PS, Bold';font-variant-ligatures:normal;font-variant-caps:normal;font-variant-numeric:normal;font-variant-east_asian:normal;text-align:center;text-anchor:middle;stroke-width:0.26458299"
         id="path2409" />
      <path
         d="m 36.757719,33.9916 h 0.48895 v 0.01905 c 0,0.1524 0.0064,0.20955 0.04445,0.2667 0.0635,0.09525 0.1778,0.15875 0.2921,0.15875 0.10795,0 0.2159,-0.0508 0.2794,-0.13335 0.0508,-0.06985 0.0635,-0.12065 0.0635,-0.2921 v -0.6858 c 0,-0.127 -0.0063,-0.1651 -0.0254,-0.2286 -0.04445,-0.1143 -0.1778,-0.2032 -0.3175,-0.2032 -0.10795,0 -0.20955,0.0508 -0.27305,0.13335 -0.0508,0.06985 -0.0635,0.13335 -0.0635,0.29845 v 0.01905 h -0.48895 v -0.80645 h 1.4351 v 0.2794 c 0,0.14605 0.0127,0.2159 0.0508,0.27305 0.0635,0.09525 0.1778,0.15875 0.2921,0.15875 0.10795,0 0.20955,-0.0508 0.2794,-0.13335 0.0508,-0.06985 0.0635,-0.127 0.0635,-0.29845 V 31.8834 h -2.87655 c -0.17145,0 -0.2159,0.0063 -0.2794,0.04445 -0.1016,0.0635 -0.1651,0.1651 -0.1651,0.2794 0,0.10795 0.0508,0.2032 0.1397,0.2667 0.06985,0.0508 0.1397,0.0635 0.3048,0.0635 h 0.06985 v 2.2733 h -0.06985 c -0.15875,0 -0.2159,0.0127 -0.2794,0.04445 -0.1016,0.0635 -0.1651,0.1651 -0.1651,0.2794 0,0.2159 0.1524,0.3302 0.4445,0.3302 h 3.01625 v -0.94615 c 0,-0.1524 -0.0127,-0.2159 -0.0508,-0.27305 -0.0635,-0.1016 -0.17145,-0.15875 -0.2921,-0.15875 -0.10795,0 -0.20955,0.0508 -0.2794,0.13335 -0.0508,0.06985 -0.0635,0.127 -0.0635,0.29845 v 0.2921 h -1.5748 z"
         style="font-style:normal;font-variant:normal;font-weight:bold;font-stretch:normal;font-size:6.3499999px;font-family:'Nimbus Mono PS';-inkscape-font-specification:'Nimbus Mono PS, Bold';font-variant-ligatures:normal;font-variant-caps:normal;font-variant-numeric:normal;font-variant-east_asian:normal;text-align:center;text-anchor:middle;stroke-width:0.26458299"
         id="path2411" />
      <path
         d="m 40.567709,34.1186 h 0.5842 c 0.254,0.0889 0.80645,0.71755 1.13665,1.3081 l 0.01905,0.0381 h 0.51435 c 0.127,0 0.2286,-0.01905 0.2794,-0.04445 0.1016,-0.0635 0.1651,-0.17145 0.1651,-0.28575 0,-0.1016 -0.05715,-0.20955 -0.1397,-0.2667 -0.06985,-0.0508 -0.13335,-0.0635 -0.3048,-0.0635 h -0.06985 c -0.2413,-0.3683 -0.4953,-0.66675 -0.76835,-0.9017 0.45085,-0.23495 0.66675,-0.5334 0.66675,-0.92075 0,-0.6477 -0.57785,-1.09855 -1.4224,-1.09855 h -1.41605 c -0.17145,0 -0.2159,0.0063 -0.2794,0.04445 -0.1016,0.0635 -0.1651,0.17145 -0.1651,0.2794 0,0.10795 0.05715,0.20955 0.1397,0.2667 0.06985,0.0508 0.1397,0.0635 0.3048,0.0635 h 0.06985 v 2.26695 h -0.06985 c -0.15875,0 -0.2159,0.0127 -0.2794,0.0508 -0.1016,0.05715 -0.1651,0.1651 -0.1651,0.2794 0,0.2159 0.1524,0.3302 0.4445,0.3302 h 0.9525 c 0.13335,0 0.2286,-0.01905 0.2794,-0.04445 0.1016,-0.0635 0.1651,-0.17145 0.1651,-0.28575 0,-0.1016 -0.0508,-0.2032 -0.1397,-0.2667 -0.06985,-0.0508 -0.127,-0.0635 -0.3048,-0.0635 h -0.19685 z m 0,-0.65405 v -0.9271 h 0.6858 c 0.38735,0 0.6731,0.1778 0.6731,0.42545 0,0.2921 -0.381,0.50165 -0.9017,0.50165 z"
         style="font-style:normal;font-variant:normal;font-weight:bold;font-stretch:normal;font-size:6.3499999px;font-family:'Nimbus Mono PS';-inkscape-font-specification:'Nimbus Mono PS, Bold';font-variant-ligatures:normal;font-variant-caps:normal;font-variant-numeric:normal;font-variant-east_asian:normal;text-align:center;text-anchor:middle;stroke-width:0.26458299"
         id="path2413" />
      <path
         d="m 48.18769,34.1948 0.3556,-0.2921 c 0.368299,0.1016 0.800099,0.73025 1.073149,1.5621 h 0.71755 c 0.2921,0 0.4445,-0.10795 0.4445,-0.3302 0,-0.1016 -0.0508,-0.2032 -0.1397,-0.2667 -0.06985,-0.0508 -0.13335,-0.05715 -0.3048,-0.05715 h -0.18415 c -0.28575,-0.67945 -0.6731,-1.1811 -1.04775,-1.3716 l 1.0795,-0.9017 c 0.2667,0 0.41275,-0.1143 0.41275,-0.32385 0,-0.10795 -0.0508,-0.2032 -0.1397,-0.2667 -0.0635,-0.0508 -0.13335,-0.0635 -0.3048,-0.0635 h -0.635 c -0.13335,0 -0.17145,0.0063 -0.23495,0.0254 -0.12065,0.0381 -0.20955,0.17145 -0.20955,0.31115 0,0.13335 0.0635,0.2286 0.17145,0.2794 l -1.054099,0.8636 v -0.8255 h 0.19685 c 0.1524,0 0.22225,-0.0063 0.2794,-0.04445 0.1016,-0.05715 0.165099,-0.1651 0.165099,-0.2794 0,-0.10795 -0.0508,-0.2032 -0.139699,-0.2667 -0.06985,-0.0508 -0.13335,-0.0635 -0.3048,-0.0635 h -0.9525 c -0.15875,0 -0.22225,0.0127 -0.2794,0.04445 -0.1016,0.0635 -0.1651,0.17145 -0.1651,0.28575 0,0.1016 0.0508,0.2032 0.1397,0.2667 0.06985,0.04445 0.1397,0.05715 0.3048,0.05715 h 0.06985 v 2.2733 h -0.06985 c -0.15875,0 -0.2159,0.0064 -0.2794,0.04445 -0.1016,0.05715 -0.1651,0.1651 -0.1651,0.2794 0,0.10795 0.0508,0.2032 0.1397,0.2667 0.0635,0.04445 0.15875,0.0635 0.3048,0.0635 h 0.9525 c 0.2921,0 0.444499,-0.1143 0.444499,-0.3302 0,-0.1016 -0.0508,-0.2032 -0.139699,-0.2667 -0.06985,-0.04445 -0.127,-0.05715 -0.3048,-0.05715 h -0.19685 z"
         style="font-style:normal;font-variant:normal;font-weight:bold;font-stretch:normal;font-size:6.3499999px;font-family:'Nimbus Mono PS';-inkscape-font-specification:'Nimbus Mono PS, Bold';font-variant-ligatures:normal;font-variant-caps:normal;font-variant-numeric:normal;font-variant-east_asian:normal;text-align:center;text-anchor:middle;stroke-width:0.26458299"
         id="path2415" />
      <path
         d="m 52.645379,31.7945 c -0.42545,0 -0.8382,0.1651 -1.1938,0.47625 -0.38735,0.3429 -0.60325,0.84455 -0.60325,1.397 0,1.0414 0.80645,1.8796 1.79705,1.8796 0.98425,0 1.79705,-0.8382 1.79705,-1.84785 0,-0.59055 -0.2032,-1.0668 -0.60325,-1.42875 -0.3429,-0.31115 -0.762,-0.47625 -1.1938,-0.47625 z m 0,0.65405 c 0.60325,0 1.11125,0.55245 1.11125,1.2065 0,0.6858 -0.4953,1.23825 -1.11125,1.23825 -0.6096,0 -1.11125,-0.55245 -1.11125,-1.22555 0,-0.66675 0.50165,-1.2192 1.11125,-1.2192 z"
         style="font-style:normal;font-variant:normal;font-weight:bold;font-stretch:normal;font-size:6.3499999px;font-family:'Nimbus Mono PS';-inkscape-font-specification:'Nimbus Mono PS, Bold';font-variant-ligatures:normal;font-variant-caps:normal;font-variant-numeric:normal;font-variant-east_asian:normal;text-align:center;text-anchor:middle;stroke-width:0.26458299"
         id="path2417" />
      <path
         d="m 56.474419,34.50595 -0.8763,-1.9685 h 0.08255 c 0.15875,0 0.22225,-0.0063 0.2794,-0.04445 0.1016,-0.05715 0.1651,-0.17145 0.1651,-0.2794 0,-0.10795 -0.0508,-0.2032 -0.1397,-0.2667 -0.0635,-0.0508 -0.1397,-0.0635 -0.3048,-0.0635 h -0.84455 c -0.15875,0 -0.2159,0.0127 -0.2794,0.04445 -0.1016,0.0635 -0.1651,0.17145 -0.1651,0.28575 0,0.1016 0.0508,0.2032 0.1397,0.2667 0.06985,0.04445 0.13335,0.05715 0.29845,0.05715 l 1.28905,2.92735 h 0.65405 l 1.30175,-2.92735 c 0.127,0 0.17145,0 0.2286,-0.01905 0.127,-0.04445 0.2159,-0.17145 0.2159,-0.3048 0,-0.10795 -0.0508,-0.2032 -0.1397,-0.2667 -0.0635,-0.0508 -0.1397,-0.0635 -0.3048,-0.0635 h -0.8382 c -0.15875,0 -0.22225,0.0127 -0.2794,0.04445 -0.1016,0.0635 -0.1651,0.17145 -0.1651,0.28575 0,0.1016 0.0508,0.2032 0.1397,0.2667 0.06985,0.0508 0.13335,0.05715 0.3048,0.05715 h 0.1143 z"
         style="font-style:normal;font-variant:normal;font-weight:bold;font-stretch:normal;font-size:6.3499999px;font-family:'Nimbus Mono PS';-inkscape-font-specification:'Nimbus Mono PS, Bold';font-variant-ligatures:normal;font-variant-caps:normal;font-variant-numeric:normal;font-variant-east_asian:normal;text-align:center;text-anchor:middle;stroke-width:0.26458299"
         id="path2419" />
      <path
         d="m 60.989261,34.50595 0.12065,0.29845 h -0.10795 c -0.1651,0 -0.2159,0.0127 -0.2794,0.0508 -0.1016,0.05715 -0.1651,0.1651 -0.1651,0.2794 0,0.10795 0.0508,0.2032 0.1397,0.2667 0.0635,0.04445 0.1524,0.0635 0.3048,0.0635 h 0.88265 c 0.13335,0 0.2286,-0.0127 0.2794,-0.04445 0.1016,-0.05715 0.1651,-0.17145 0.1651,-0.28575 0,-0.1016 -0.0508,-0.2032 -0.1397,-0.2667 -0.06985,-0.04445 -0.127,-0.05715 -0.29845,-0.0635 l -1.26365,-2.921 h -1.39065 c -0.17145,0 -0.22225,0.0063 -0.28575,0.04445 -0.1016,0.0635 -0.1651,0.17145 -0.1651,0.2794 0,0.10795 0.0508,0.2032 0.14605,0.2667 0.0635,0.0508 0.13335,0.0635 0.3048,0.0635 h 0.36195 l -0.9652,2.26695 c -0.2794,0 -0.4318,0.1143 -0.4318,0.3302 0,0.22225 0.14605,0.3302 0.4445,0.3302 h 0.84455 c 0.13335,0 0.2286,-0.0127 0.2794,-0.04445 0.1016,-0.0635 0.1651,-0.17145 0.1651,-0.28575 0,-0.1016 -0.0508,-0.2032 -0.1397,-0.2667 -0.06985,-0.0508 -0.127,-0.0635 -0.3048,-0.0635 h -0.10795 l 0.127,-0.29845 z m -0.28575,-0.65405 h -0.92075 l 0.46355,-1.07315 z m 0.2794,-3.04165 c 0.1143,-0.0889 0.1524,-0.1524 0.1524,-0.23495 0,-0.1397 -0.1143,-0.24765 -0.26035,-0.24765 -0.0762,0 -0.1143,0.01905 -0.22225,0.1016 l -0.84455,0.6731 c -0.1016,0.08255 -0.1524,0.15875 -0.1524,0.2413 0,0.13335 0.1143,0.24765 0.26035,0.24765 0.06985,0 0.10795,-0.01905 0.2159,-0.1016 z"
         style="font-style:normal;font-variant:normal;font-weight:bold;font-stretch:normal;font-size:6.3499999px;font-family:'Nimbus Mono PS';-inkscape-font-specification:'Nimbus Mono PS, Bold';font-variant-ligatures:normal;font-variant-caps:normal;font-variant-numeric:normal;font-variant-east_asian:normal;text-align:center;text-anchor:middle;stroke-width:0.26458299"
         id="path2421" />
      <path
         d="m 62.354501,33.93445 c 0,0.93345 0.8001,1.6129 1.8923,1.6129 0.46355,0 0.9017,-0.1143 1.1811,-0.3048 0.2286,-0.15875 0.34925,-0.3175 0.34925,-0.46355 0,-0.1778 -0.15875,-0.3302 -0.3429,-0.3302 -0.0889,0 -0.17145,0.03175 -0.24765,0.10795 -0.1651,0.15875 -0.1651,0.15875 -0.2286,0.19685 -0.1651,0.0889 -0.4064,0.1397 -0.69215,0.1397 -0.7493,0 -1.22555,-0.381 -1.22555,-0.97155 V 33.5344 c 0,-0.635 0.4572,-1.08585 1.0922,-1.08585 0.2159,0 0.4318,0.0508 0.60325,0.14605 0.1778,0.09525 0.2413,0.1651 0.2667,0.3048 0.04445,0.24765 0.1397,0.3429 0.33655,0.3429 0.10795,0 0.20955,-0.0508 0.2794,-0.13335 0.0508,-0.0635 0.0635,-0.13335 0.0635,-0.2921 v -0.508 c 0,-0.15875 -0.0063,-0.20955 -0.0508,-0.27305 -0.0635,-0.09525 -0.17145,-0.1524 -0.2921,-0.1524 -0.1143,0 -0.1905,0.0381 -0.27305,0.1397 -0.43815,-0.1905 -0.60325,-0.2286 -0.95885,-0.2286 -0.99695,0 -1.7526,0.7493 -1.7526,1.73355 z m 1.7272,-2.9464 -0.70485,-0.5715 c -0.0762,-0.0635 -0.127,-0.08255 -0.1905,-0.08255 -0.13335,0 -0.24765,0.10795 -0.24765,0.2413 0,0.0762 0.0254,0.12065 0.10795,0.18415 l 0.0508,0.04445 0.98425,0.7874 0.9779,-0.7874 c 0.1524,-0.12065 0.15875,-0.13335 0.15875,-0.23495 0,-0.127 -0.1143,-0.23495 -0.2413,-0.23495 -0.06985,0 -0.127,0.0254 -0.19685,0.08255 z"
         style="font-style:normal;font-variant:normal;font-weight:bold;font-stretch:normal;font-size:6.3499999px;font-family:'Nimbus Mono PS';-inkscape-font-specification:'Nimbus Mono PS, Bold';font-variant-ligatures:normal;font-variant-caps:normal;font-variant-numeric:normal;font-variant-east_asian:normal;text-align:center;text-anchor:middle;stroke-width:0.26458299"
         id="path2423" />
    </g>
  </g>
</svg>
