<?xml version="1.0" encoding="UTF-8" standalone="no"?>
<svg
   xmlns:dc="http://purl.org/dc/elements/1.1/"
   xmlns:cc="http://creativecommons.org/ns#"
   xmlns:rdf="http://www.w3.org/1999/02/22-rdf-syntax-ns#"
   xmlns:svg="http://www.w3.org/2000/svg"
   xmlns="http://www.w3.org/2000/svg"
   xmlns:sodipodi="http://sodipodi.sourceforge.net/DTD/sodipodi-0.dtd"
   xmlns:inkscape="http://www.inkscape.org/namespaces/inkscape"
   sodipodi:docname="slivka.svg"
   inkscape:version="1.0 (4035a4fb49, 2020-05-01)"
   id="svg4866"
   version="1.1"
   viewBox="0 0 90 50"
   height="50mm"
   width="90mm">
  <defs
     id="defs4860">
    <clipPath
       clipPathUnits="userSpaceOnUse"
       id="clipPath4426">
      <rect
         y="33.846336"
         x="224.79062"
         height="211.51077"
         width="56.821796"
         id="rect4428"
         style="display:none;fill:#ffff00;fill-opacity:1;stroke-width:0;stroke-miterlimit:4;stroke-dasharray:none" />
      <path
         id="lpe_path-effect4430"
         style="fill:#ffff00;fill-opacity:1;stroke-width:0;stroke-miterlimit:4;stroke-dasharray:none"
         class="powerclip"
         d="M 170.74166,48.724682 H 280.6323 V 243.94553 H 170.74166 Z M 224.79062,33.846336 V 245.35711 h 56.8218 V 33.846336 Z" />
    </clipPath>
    <clipPath
       clipPathUnits="userSpaceOnUse"
       id="clipPath4434">
      <rect
         y="30.462763"
         x="21.147821"
         height="207.41371"
         width="58.064548"
         id="rect4436"
         style="display:block;fill:#ffff00;fill-opacity:1;stroke-width:0;stroke-miterlimit:4;stroke-dasharray:none" />
    </clipPath>
    <inkscape:path-effect
       effect="powerclip"
       id="path-effect4438"
       is_visible="true"
       lpeversion="1"
       inverse="true"
       flatten="false"
       hide_clip="false"
       message="Use fill-rule evenodd on &lt;b&gt;fill and stroke&lt;/b&gt; dialog if no flatten result after convert clip to paths." />
    <clipPath
       clipPathUnits="userSpaceOnUse"
       id="clipPath4418">
      <rect
         y="157.56874"
         x="465.69931"
         height="214.80771"
         width="90.489647"
         id="rect4420"
         style="display:block;fill:#ffff00;fill-opacity:1;stroke-width:0;stroke-miterlimit:4;stroke-dasharray:none" />
    </clipPath>
    <inkscape:path-effect
       effect="powerclip"
       id="path-effect4422"
       is_visible="true"
       lpeversion="1"
       inverse="true"
       flatten="false"
       hide_clip="false"
       message=" ‚Uêî" />
  </defs>
  <sodipodi:namedview
     inkscape:window-maximized="0"
     inkscape:window-y="110"
     inkscape:window-x="0"
     inkscape:window-height="943"
     inkscape:window-width="1920"
     showgrid="false"
     inkscape:document-rotation="0"
     inkscape:current-layer="layer1"
     inkscape:document-units="mm"
     inkscape:cy="4.7551079"
     inkscape:cx="-138.17653"
     inkscape:zoom="1.4963358"
     inkscape:pageshadow="2"
     inkscape:pageopacity="0.0"
     borderopacity="1.0"
     bordercolor="#666666"
     pagecolor="#ffffff"
     id="base"
     inkscape:snap-bbox="false"
     showguides="true"
     inkscape:guide-bbox="true" />
  <metadata
     id="metadata4863">
    <rdf:RDF>
      <cc:Work
         rdf:about="">
        <dc:format>image/svg+xml</dc:format>
        <dc:type
           rdf:resource="http://purl.org/dc/dcmitype/StillImage" />
        <dc:title />
      </cc:Work>
    </rdf:RDF>
  </metadata>
  <g
     id="layer1"
     inkscape:groupmode="layer"
     inkscape:label="Layer 1">
    <g
       id="g8950"
       transform="matrix(0.50362313,0,0,0.50362313,20.485545,8.0699402)"
       style="opacity:1" />
    <text
       id="text8026-6-3-6"
       y="27.776464"
       x="-33.474846"
       style="font-style:normal;font-variant:normal;font-weight:bold;font-stretch:normal;font-size:6.16123px;line-height:1.25;font-family:sans-serif;-inkscape-font-specification:'sans-serif Bold';letter-spacing:0px;word-spacing:0px;fill:#000000;fill-opacity:1;stroke:none;stroke-width:0.154031"
       xml:space="preserve"><tspan
         style="font-style:normal;font-variant:normal;font-weight:normal;font-stretch:normal;font-size:14.787px;font-family:'Jaapokki subtract';-inkscape-font-specification:'Jaapokki subtract';stroke-width:0.154031"
         y="27.776464"
         x="-33.474846"
         id="tspan8024-6-5-7"
         sodipodi:role="line" /></text>
    <g
       style="font-style:normal;font-variant:normal;font-weight:bold;font-stretch:normal;font-size:6.35px;line-height:1.25;font-family:'Nimbus Mono PS';-inkscape-font-specification:'Nimbus Mono PS, Bold';font-variant-ligatures:normal;font-variant-caps:normal;font-variant-numeric:normal;font-variant-east-asian:normal;stroke-width:0.264583"
       id="text3931"
       aria-label="SLIVOVICA 53%
MELEK 2019
PETER KOVÃÄŒ
">
      <path
         id="path4443"
         style="font-style:normal;font-variant:normal;font-weight:bold;font-stretch:normal;font-size:6.35px;font-family:'Nimbus Mono PS';-inkscape-font-specification:'Nimbus Mono PS, Bold';font-variant-ligatures:normal;font-variant-caps:normal;font-variant-numeric:normal;font-variant-east-asian:normal;text-align:center;text-anchor:middle;stroke-width:0.264583"
         d="m 23.610083,15.73535 c 0,-0.1651 -0.0064,-0.20955 -0.04445,-0.27305 -0.05715,-0.09525 -0.17145,-0.1524 -0.2921,-0.1524 -0.127,0 -0.19685,0.0508 -0.26035,0.1905 -0.20955,-0.12065 -0.4953,-0.1905 -0.81915,-0.1905 -0.8001,0 -1.397,0.4699 -1.397,1.0922 0,0.3556 0.2032,0.6858 0.5334,0.8636 0.20955,0.1143 0.4064,0.17145 0.83185,0.2413 0.4191,0.0762 0.5207,0.1016 0.6604,0.1651 0.127,0.0635 0.20955,0.1778 0.20955,0.2921 0,0.24765 -0.3556,0.43815 -0.8128,0.43815 -0.4064,0 -0.8001,-0.17145 -0.8636,-0.37465 -0.0508,-0.1651 -0.0508,-0.1651 -0.09525,-0.2159 -0.0635,-0.05715 -0.1524,-0.0889 -0.24765,-0.0889 -0.10795,0 -0.20955,0.0508 -0.2794,0.13335 -0.04445,0.0635 -0.0635,0.13335 -0.0635,0.2921 v 0.40005 c 0,0.28575 0.1143,0.42545 0.3429,0.42545 0.10795,0 0.1651,-0.03175 0.2667,-0.1397 0.32385,0.15875 0.64135,0.2286 0.98425,0.2286 0.88265,0 1.47955,-0.43815 1.47955,-1.08585 0,-0.32385 -0.127,-0.57785 -0.381,-0.7747 -0.2032,-0.1524 -0.45085,-0.2413 -1.00965,-0.33655 -0.4826,-0.0889 -0.50165,-0.09525 -0.62865,-0.15875 -0.127,-0.05715 -0.2159,-0.1905 -0.2159,-0.31115 0,-0.2413 0.3048,-0.4318 0.69215,-0.4318 0.38735,0 0.6731,0.15875 0.73025,0.38735 0.04445,0.2032 0.04445,0.2032 0.09525,0.254 0.05715,0.05715 0.1524,0.09525 0.24765,0.09525 0.10795,0 0.2032,-0.0508 0.27305,-0.13335 0.0508,-0.06985 0.0635,-0.12065 0.0635,-0.2921 z" />
      <path
         id="path4445"
         style="font-style:normal;font-variant:normal;font-weight:bold;font-stretch:normal;font-size:6.35px;font-family:'Nimbus Mono PS';-inkscape-font-specification:'Nimbus Mono PS, Bold';font-variant-ligatures:normal;font-variant-caps:normal;font-variant-numeric:normal;font-variant-east-asian:normal;text-align:center;text-anchor:middle;stroke-width:0.264583"
         d="m 25.762723,16.05285 h 0.33655 c 0.14605,0 0.22225,-0.0127 0.2794,-0.04445 0.1016,-0.0635 0.1651,-0.17145 0.1651,-0.28575 0,-0.1016 -0.0508,-0.19685 -0.1397,-0.26035 -0.06985,-0.0508 -0.127,-0.0635 -0.3048,-0.0635 h -1.3589 c -0.17145,0 -0.2159,0.0064 -0.2794,0.04445 -0.1016,0.0635 -0.1651,0.1651 -0.1651,0.2794 0,0.10795 0.0508,0.20955 0.1397,0.2667 0.06985,0.0508 0.1397,0.0635 0.3048,0.0635 h 0.33655 v 2.2733 h -0.33655 c -0.1651,0 -0.2159,0.0064 -0.2794,0.04445 -0.1016,0.0635 -0.1651,0.1651 -0.1651,0.2794 0,0.22225 0.1524,0.3302 0.4445,0.3302 h 3.0226 v -1.18745 c 0,-0.15875 -0.0127,-0.2159 -0.0508,-0.27305 -0.0635,-0.1016 -0.17145,-0.15875 -0.2921,-0.15875 -0.1143,0 -0.20955,0.04445 -0.2794,0.13335 -0.0508,0.06985 -0.0635,0.127 -0.0635,0.29845 v 0.5334 h -1.31445 z" />
      <path
         id="path4447"
         style="font-style:normal;font-variant:normal;font-weight:bold;font-stretch:normal;font-size:6.35px;font-family:'Nimbus Mono PS';-inkscape-font-specification:'Nimbus Mono PS, Bold';font-variant-ligatures:normal;font-variant-caps:normal;font-variant-numeric:normal;font-variant-east-asian:normal;text-align:center;text-anchor:middle;stroke-width:0.264583"
         d="m 30.169613,16.05285 h 0.61595 c 0.14605,0 0.22225,-0.0127 0.2794,-0.04445 0.1016,-0.0635 0.1651,-0.17145 0.1651,-0.28575 0,-0.1016 -0.0508,-0.19685 -0.1397,-0.26035 -0.06985,-0.0508 -0.127,-0.0635 -0.3048,-0.0635 h -1.9177 c -0.1651,0 -0.2159,0.0064 -0.2794,0.04445 -0.1016,0.0635 -0.1651,0.17145 -0.1651,0.2794 0,0.10795 0.0508,0.20955 0.1397,0.2667 0.06985,0.0508 0.1397,0.0635 0.3048,0.0635 h 0.61595 v 2.2733 h -0.61595 c -0.1651,0 -0.2159,0.0064 -0.2794,0.04445 -0.1016,0.0635 -0.1651,0.17145 -0.1651,0.2794 0,0.22225 0.1524,0.3302 0.4445,0.3302 h 1.9177 c 0.2921,0 0.4445,-0.10795 0.4445,-0.3302 0,-0.1016 -0.0508,-0.19685 -0.1397,-0.26035 -0.06985,-0.0508 -0.13335,-0.0635 -0.3048,-0.0635 h -0.61595 z" />
      <path
         id="path4449"
         style="font-style:normal;font-variant:normal;font-weight:bold;font-stretch:normal;font-size:6.35px;font-family:'Nimbus Mono PS';-inkscape-font-specification:'Nimbus Mono PS, Bold';font-variant-ligatures:normal;font-variant-caps:normal;font-variant-numeric:normal;font-variant-east-asian:normal;text-align:center;text-anchor:middle;stroke-width:0.264583"
         d="m 33.655754,18.02135 -0.8763,-1.9685 h 0.08255 c 0.15875,0 0.22225,-0.0063 0.2794,-0.04445 0.1016,-0.05715 0.1651,-0.17145 0.1651,-0.2794 0,-0.10795 -0.0508,-0.2032 -0.1397,-0.2667 -0.0635,-0.0508 -0.1397,-0.0635 -0.3048,-0.0635 h -0.84455 c -0.15875,0 -0.2159,0.0127 -0.2794,0.04445 -0.1016,0.0635 -0.1651,0.17145 -0.1651,0.28575 0,0.1016 0.0508,0.2032 0.1397,0.2667 0.06985,0.04445 0.13335,0.05715 0.29845,0.05715 l 1.28905,2.92735 h 0.65405 l 1.30175,-2.92735 c 0.127,0 0.17145,0 0.2286,-0.01905 0.126999,-0.04445 0.215899,-0.17145 0.215899,-0.3048 0,-0.10795 -0.0508,-0.2032 -0.139699,-0.2667 -0.0635,-0.0508 -0.1397,-0.0635 -0.3048,-0.0635 h -0.8382 c -0.15875,0 -0.22225,0.0127 -0.2794,0.04445 -0.1016,0.0635 -0.1651,0.17145 -0.1651,0.28575 0,0.1016 0.0508,0.2032 0.1397,0.2667 0.06985,0.0508 0.13335,0.05715 0.3048,0.05715 h 0.1143 z" />
      <path
         id="path4451"
         style="font-style:normal;font-variant:normal;font-weight:bold;font-stretch:normal;font-size:6.35px;font-family:'Nimbus Mono PS';-inkscape-font-specification:'Nimbus Mono PS, Bold';font-variant-ligatures:normal;font-variant-caps:normal;font-variant-numeric:normal;font-variant-east-asian:normal;text-align:center;text-anchor:middle;stroke-width:0.264583"
         d="m 37.446693,15.3099 c -0.42545,0 -0.8382,0.1651 -1.1938,0.47625 -0.38735,0.3429 -0.60325,0.84455 -0.60325,1.397 0,1.0414 0.80645,1.8796 1.79705,1.8796 0.98425,0 1.79705,-0.8382 1.79705,-1.84785 0,-0.59055 -0.2032,-1.0668 -0.60325,-1.42875 -0.3429,-0.31115 -0.762,-0.47625 -1.1938,-0.47625 z m 0,0.65405 c 0.60325,0 1.11125,0.55245 1.11125,1.2065 0,0.6858 -0.4953,1.23825 -1.11125,1.23825 -0.6096,0 -1.11125,-0.55245 -1.11125,-1.22555 0,-0.66675 0.50165,-1.2192 1.11125,-1.2192 z" />
      <path
         id="path4453"
         style="font-style:normal;font-variant:normal;font-weight:bold;font-stretch:normal;font-size:6.35px;font-family:'Nimbus Mono PS';-inkscape-font-specification:'Nimbus Mono PS, Bold';font-variant-ligatures:normal;font-variant-caps:normal;font-variant-numeric:normal;font-variant-east-asian:normal;text-align:center;text-anchor:middle;stroke-width:0.264583"
         d="m 41.275734,18.02135 -0.8763,-1.9685 h 0.08255 c 0.15875,0 0.22225,-0.0063 0.2794,-0.04445 0.1016,-0.05715 0.1651,-0.17145 0.1651,-0.2794 0,-0.10795 -0.0508,-0.2032 -0.1397,-0.2667 -0.0635,-0.0508 -0.1397,-0.0635 -0.3048,-0.0635 h -0.84455 c -0.15875,0 -0.2159,0.0127 -0.2794,0.04445 -0.1016,0.0635 -0.1651,0.17145 -0.1651,0.28575 0,0.1016 0.0508,0.2032 0.1397,0.2667 0.06985,0.04445 0.13335,0.05715 0.29845,0.05715 l 1.28905,2.92735 h 0.65405 l 1.30175,-2.92735 c 0.127,0 0.17145,0 0.2286,-0.01905 0.127,-0.04445 0.2159,-0.17145 0.2159,-0.3048 0,-0.10795 -0.0508,-0.2032 -0.1397,-0.2667 -0.0635,-0.0508 -0.1397,-0.0635 -0.3048,-0.0635 h -0.8382 c -0.15875,0 -0.22225,0.0127 -0.2794,0.04445 -0.1016,0.0635 -0.1651,0.17145 -0.1651,0.28575 0,0.1016 0.0508,0.2032 0.1397,0.2667 0.06985,0.0508 0.13335,0.05715 0.3048,0.05715 h 0.1143 z" />
      <path
         id="path4455"
         style="font-style:normal;font-variant:normal;font-weight:bold;font-stretch:normal;font-size:6.35px;font-family:'Nimbus Mono PS';-inkscape-font-specification:'Nimbus Mono PS, Bold';font-variant-ligatures:normal;font-variant-caps:normal;font-variant-numeric:normal;font-variant-east-asian:normal;text-align:center;text-anchor:middle;stroke-width:0.264583"
         d="m 45.409574,16.05285 h 0.61595 c 0.14605,0 0.22225,-0.0127 0.2794,-0.04445 0.1016,-0.0635 0.1651,-0.17145 0.1651,-0.28575 0,-0.1016 -0.0508,-0.19685 -0.1397,-0.26035 -0.06985,-0.0508 -0.127,-0.0635 -0.3048,-0.0635 h -1.9177 c -0.1651,0 -0.2159,0.0064 -0.2794,0.04445 -0.1016,0.0635 -0.1651,0.17145 -0.1651,0.2794 0,0.10795 0.0508,0.20955 0.1397,0.2667 0.06985,0.0508 0.1397,0.0635 0.3048,0.0635 h 0.61595 v 2.2733 h -0.61595 c -0.1651,0 -0.2159,0.0064 -0.2794,0.04445 -0.1016,0.0635 -0.1651,0.17145 -0.1651,0.2794 0,0.22225 0.1524,0.3302 0.4445,0.3302 h 1.9177 c 0.2921,0 0.4445,-0.10795 0.4445,-0.3302 0,-0.1016 -0.0508,-0.19685 -0.1397,-0.26035 -0.06985,-0.0508 -0.13335,-0.0635 -0.3048,-0.0635 h -0.61595 z" />
      <path
         id="path4457"
         style="font-style:normal;font-variant:normal;font-weight:bold;font-stretch:normal;font-size:6.35px;font-family:'Nimbus Mono PS';-inkscape-font-specification:'Nimbus Mono PS, Bold';font-variant-ligatures:normal;font-variant-caps:normal;font-variant-numeric:normal;font-variant-east-asian:normal;text-align:center;text-anchor:middle;stroke-width:0.264583"
         d="m 47.155814,17.44985 c 0,0.93345 0.8001,1.6129 1.8923,1.6129 0.46355,0 0.9017,-0.1143 1.1811,-0.3048 0.2286,-0.15875 0.34925,-0.3175 0.34925,-0.46355 0,-0.1778 -0.15875,-0.3302 -0.3429,-0.3302 -0.0889,0 -0.17145,0.03175 -0.24765,0.10795 -0.1651,0.15875 -0.1651,0.15875 -0.2286,0.19685 -0.1651,0.0889 -0.4064,0.1397 -0.69215,0.1397 -0.7493,0 -1.22555,-0.381 -1.22555,-0.97155 V 17.0498 c 0,-0.635 0.4572,-1.08585 1.0922,-1.08585 0.2159,0 0.4318,0.0508 0.60325,0.14605 0.1778,0.09525 0.2413,0.1651 0.2667,0.3048 0.04445,0.24765 0.1397,0.3429 0.33655,0.3429 0.10795,0 0.20955,-0.0508 0.2794,-0.13335 0.0508,-0.0635 0.0635,-0.13335 0.0635,-0.2921 v -0.508 c 0,-0.15875 -0.0063,-0.20955 -0.0508,-0.27305 -0.0635,-0.09525 -0.17145,-0.1524 -0.2921,-0.1524 -0.1143,0 -0.1905,0.0381 -0.27305,0.1397 -0.43815,-0.1905 -0.60325,-0.2286 -0.95885,-0.2286 -0.99695,0 -1.7526,0.7493 -1.7526,1.73355 z" />
      <path
         id="path4459"
         style="font-style:normal;font-variant:normal;font-weight:bold;font-stretch:normal;font-size:6.35px;font-family:'Nimbus Mono PS';-inkscape-font-specification:'Nimbus Mono PS, Bold';font-variant-ligatures:normal;font-variant-caps:normal;font-variant-numeric:normal;font-variant-east-asian:normal;text-align:center;text-anchor:middle;stroke-width:0.264583"
         d="m 53.410554,18.02135 0.12065,0.29845 h -0.10795 c -0.1651,0 -0.2159,0.0127 -0.2794,0.0508 -0.1016,0.05715 -0.1651,0.1651 -0.1651,0.2794 0,0.10795 0.0508,0.2032 0.1397,0.2667 0.0635,0.04445 0.1524,0.0635 0.3048,0.0635 h 0.88265 c 0.13335,0 0.2286,-0.0127 0.2794,-0.04445 0.1016,-0.05715 0.1651,-0.17145 0.1651,-0.28575 0,-0.1016 -0.0508,-0.2032 -0.1397,-0.2667 -0.06985,-0.04445 -0.127,-0.05715 -0.29845,-0.0635 l -1.26365,-2.921 h -1.39065 c -0.17145,0 -0.22225,0.0064 -0.28575,0.04445 -0.1016,0.0635 -0.1651,0.17145 -0.1651,0.2794 0,0.10795 0.0508,0.2032 0.14605,0.2667 0.0635,0.0508 0.13335,0.0635 0.3048,0.0635 h 0.36195 l -0.9652,2.26695 c -0.2794,0 -0.4318,0.1143 -0.4318,0.3302 0,0.22225 0.14605,0.3302 0.4445,0.3302 h 0.84455 c 0.13335,0 0.2286,-0.0127 0.2794,-0.04445 0.1016,-0.0635 0.1651,-0.17145 0.1651,-0.28575 0,-0.1016 -0.0508,-0.2032 -0.1397,-0.2667 -0.06985,-0.0508 -0.127,-0.0635 -0.3048,-0.0635 h -0.10795 l 0.127,-0.29845 z m -0.28575,-0.65405 h -0.92075 l 0.46355,-1.07315 z" />
      <path
         id="path4461"
         style="font-style:normal;font-variant:normal;font-weight:bold;font-stretch:normal;font-size:6.35px;font-family:'Nimbus Mono PS';-inkscape-font-specification:'Nimbus Mono PS, Bold';font-variant-ligatures:normal;font-variant-caps:normal;font-variant-numeric:normal;font-variant-east-asian:normal;text-align:center;text-anchor:middle;stroke-width:0.264583"
         d="m 59.817686,15.8179 h 1.2573 c 0.1397,0 0.2286,-0.0127 0.2794,-0.04445 0.1016,-0.0635 0.1651,-0.17145 0.1651,-0.28575 0,-0.10795 -0.0508,-0.2032 -0.1397,-0.2667 -0.06985,-0.04445 -0.13335,-0.05715 -0.3048,-0.05715 h -1.9431 v 1.74625 c 0,0.20955 0.14605,0.36195 0.3429,0.36195 0.06985,0 0.09525,-0.0064 0.18415,-0.0508 0.26035,-0.127 0.55245,-0.20955 0.7493,-0.20955 0.4191,0 0.69215,0.28575 0.69215,0.71755 0,0.4699 -0.2921,0.6858 -0.93345,0.6858 -0.4191,0 -0.5969,-0.04445 -0.7874,-0.1905 -0.09525,-0.08255 -0.14605,-0.1016 -0.2413,-0.1016 -0.18415,0 -0.3429,0.14605 -0.3429,0.32385 0,0.3556 0.5842,0.6223 1.3716,0.6223 0.6096,0 0.9779,-0.12065 1.26365,-0.4191 0.2286,-0.2413 0.3556,-0.56515 0.3556,-0.92075 0,-0.79375 -0.57785,-1.3716 -1.36525,-1.3716 -0.18415,0 -0.381,0.03175 -0.60325,0.09525 z" />
      <path
         id="path4463"
         style="font-style:normal;font-variant:normal;font-weight:bold;font-stretch:normal;font-size:6.35px;font-family:'Nimbus Mono PS';-inkscape-font-specification:'Nimbus Mono PS, Bold';font-variant-ligatures:normal;font-variant-caps:normal;font-variant-numeric:normal;font-variant-east-asian:normal;text-align:center;text-anchor:middle;stroke-width:0.264583"
         d="m 63.964226,16.61165 c -0.2032,0 -0.3556,0.1397 -0.3556,0.32385 0,0.18415 0.127,0.2921 0.34925,0.3048 0.28575,0.0127 0.3556,0.0254 0.4826,0.0762 0.2921,0.1143 0.4699,0.3175 0.4699,0.5334 0,0.13335 -0.06985,0.2794 -0.17145,0.36195 -0.1651,0.14605 -0.3937,0.2032 -0.8255,0.2032 -0.4064,0 -0.59055,-0.03175 -0.74295,-0.13335 -0.10795,-0.0635 -0.1397,-0.0762 -0.22225,-0.0762 -0.19685,0 -0.3429,0.14605 -0.3429,0.3302 0,0.32385 0.52705,0.5334 1.32715,0.5334 0.5588,0 0.89535,-0.08255 1.1811,-0.2921 0.29845,-0.2159 0.4826,-0.56515 0.4826,-0.9271 0,-0.381 -0.23495,-0.6985 -0.6858,-0.9144 0.381,-0.22225 0.5461,-0.46355 0.5461,-0.7874 0,-0.2667 -0.12065,-0.5334 -0.32385,-0.73025 -0.24765,-0.23495 -0.57785,-0.3556 -1.00965,-0.3556 -0.70485,0 -1.3335,0.3302 -1.3335,0.6985 0,0.18415 0.1524,0.3302 0.33655,0.3302 0.09525,0 0.18415,-0.0381 0.2413,-0.1016 0.2032,-0.20955 0.3683,-0.27305 0.7112,-0.27305 0.42545,0 0.69215,0.1651 0.69215,0.4318 0,0.24765 -0.254,0.46355 -0.55245,0.46355 z" />
      <path
         id="path4465"
         style="font-style:normal;font-variant:normal;font-weight:bold;font-stretch:normal;font-size:6.35px;font-family:'Nimbus Mono PS';-inkscape-font-specification:'Nimbus Mono PS, Bold';font-variant-ligatures:normal;font-variant-caps:normal;font-variant-numeric:normal;font-variant-east-asian:normal;text-align:center;text-anchor:middle;stroke-width:0.264583"
         d="m 67.469416,15.1956 c -0.48895,0 -0.88265,0.381 -0.88265,0.85725 0,0.4699 0.40005,0.85725 0.889,0.85725 0.4826,0 0.88265,-0.381 0.88265,-0.8509 0,-0.4826 -0.38735,-0.8636 -0.889,-0.8636 z m 0,0.40005 c 0.26035,0 0.47625,0.2032 0.47625,0.45085 0,0.26035 -0.20955,0.46355 -0.47625,0.46355 -0.254,0 -0.4699,-0.20955 -0.4699,-0.4572 0,-0.254 0.20955,-0.4572 0.4699,-0.4572 z m 1.67005,1.3589 c 0.1397,-0.04445 0.1905,-0.09525 0.1905,-0.1905 0,-0.10795 -0.0889,-0.19685 -0.18415,-0.19685 -0.03175,0 -0.06985,0.0064 -0.127,0.0254 l -2.2987,0.71755 c -0.14605,0.04445 -0.1905,0.0889 -0.1905,0.1905 0,0.10795 0.08255,0.19685 0.18415,0.19685 0.03175,0 0.08255,-0.0127 0.127,-0.0254 z m -0.78105,0.4064 c -0.48895,0 -0.88265,0.381 -0.88265,0.8509 0,0.47625 0.3937,0.85725 0.889,0.85725 0.4826,0 0.88265,-0.381 0.88265,-0.84455 0,-0.4826 -0.38735,-0.8636 -0.889,-0.8636 z m 0.0063,0.40005 c 0.254,0 0.4699,0.2032 0.4699,0.45085 0,0.254 -0.20955,0.4572 -0.47625,0.4572 -0.254,0 -0.4699,-0.2032 -0.4699,-0.4572 0,-0.24765 0.20955,-0.45085 0.47625,-0.45085 z" />
      <path
         id="path4467"
         style="font-style:normal;font-variant:normal;font-weight:bold;font-stretch:normal;font-size:6.35px;font-family:'Nimbus Mono PS';-inkscape-font-specification:'Nimbus Mono PS, Bold';font-variant-ligatures:normal;font-variant-caps:normal;font-variant-numeric:normal;font-variant-east-asian:normal;text-align:center;text-anchor:middle;stroke-width:0.264583"
         d="m 26.943818,24.6444 0.7112,1.4351 h 0.60325 l 0.66675,-1.42875 v 1.60655 h -0.19685 c -0.1651,0 -0.2159,0.0127 -0.2794,0.0508 -0.1016,0.05715 -0.1651,0.1651 -0.1651,0.2794 0,0.1016 0.0508,0.2032 0.1397,0.2667 0.0635,0.04445 0.1524,0.0635 0.3048,0.0635 h 0.8255 c 0.2921,0 0.4445,-0.1143 0.4445,-0.3302 0,-0.10795 -0.0508,-0.2032 -0.1397,-0.2667 -0.0635,-0.04445 -0.10795,-0.05715 -0.24765,-0.0635 v -2.26695 c 0.2159,-0.03175 0.3302,-0.1397 0.3302,-0.3302 0,-0.1016 -0.0508,-0.19685 -0.1397,-0.26035 -0.06985,-0.0508 -0.13335,-0.0635 -0.3048,-0.0635 h -0.7112 l -0.84455,1.7653 -0.8636,-1.7653 h -0.70485 c -0.127,0 -0.17145,0.0063 -0.2286,0.0254 -0.127,0.0381 -0.2159,0.17145 -0.2159,0.29845 0,0.1905 0.1143,0.29845 0.3302,0.3302 v 2.26695 c -0.2413,0.0063 -0.38735,0.127 -0.38735,0.3302 0,0.2159 0.1524,0.3302 0.45085,0.3302 h 0.81915 c 0.2921,0 0.4445,-0.10795 0.4445,-0.3302 0,-0.10795 -0.0508,-0.2032 -0.1397,-0.2667 -0.06985,-0.0508 -0.127,-0.0635 -0.3048,-0.0635 h -0.19685 z" />
      <path
         id="path4469"
         style="font-style:normal;font-variant:normal;font-weight:bold;font-stretch:normal;font-size:6.35px;font-family:'Nimbus Mono PS';-inkscape-font-specification:'Nimbus Mono PS, Bold';font-variant-ligatures:normal;font-variant-caps:normal;font-variant-numeric:normal;font-variant-east-asian:normal;text-align:center;text-anchor:middle;stroke-width:0.264583"
         d="m 31.084008,25.4445 h 0.48895 v 0.01905 c 0,0.1524 0.0064,0.20955 0.04445,0.2667 0.0635,0.09525 0.1778,0.15875 0.2921,0.15875 0.10795,0 0.2159,-0.0508 0.2794,-0.13335 0.0508,-0.06985 0.0635,-0.12065 0.0635,-0.2921 v -0.6858 c 0,-0.127 -0.0064,-0.1651 -0.0254,-0.2286 -0.04445,-0.1143 -0.1778,-0.2032 -0.3175,-0.2032 -0.10795,0 -0.20955,0.0508 -0.27305,0.13335 -0.0508,0.06985 -0.0635,0.13335 -0.0635,0.29845 v 0.01905 h -0.48895 v -0.80645 h 1.4351 v 0.2794 c 0,0.14605 0.0127,0.2159 0.0508,0.27305 0.0635,0.09525 0.1778,0.15875 0.2921,0.15875 0.10795,0 0.20955,-0.0508 0.2794,-0.13335 0.0508,-0.06985 0.0635,-0.127 0.0635,-0.29845 V 23.3363 h -2.87655 c -0.17145,0 -0.2159,0.0063 -0.2794,0.04445 -0.1016,0.0635 -0.1651,0.1651 -0.1651,0.2794 0,0.10795 0.0508,0.2032 0.1397,0.2667 0.06985,0.0508 0.1397,0.0635 0.3048,0.0635 h 0.06985 v 2.2733 h -0.06985 c -0.15875,0 -0.2159,0.0127 -0.2794,0.04445 -0.1016,0.0635 -0.1651,0.1651 -0.1651,0.2794 0,0.2159 0.1524,0.3302 0.4445,0.3302 h 3.01625 v -0.94615 c 0,-0.1524 -0.0127,-0.2159 -0.0508,-0.27305 -0.0635,-0.1016 -0.17145,-0.15875 -0.2921,-0.15875 -0.10795,0 -0.20955,0.0508 -0.2794,0.13335 -0.0508,0.06985 -0.0635,0.127 -0.0635,0.29845 v 0.2921 h -1.5748 z" />
      <path
         id="path4471"
         style="font-style:normal;font-variant:normal;font-weight:bold;font-stretch:normal;font-size:6.35px;font-family:'Nimbus Mono PS';-inkscape-font-specification:'Nimbus Mono PS, Bold';font-variant-ligatures:normal;font-variant-caps:normal;font-variant-numeric:normal;font-variant-east-asian:normal;text-align:center;text-anchor:middle;stroke-width:0.264583"
         d="m 35.287699,23.99035 h 0.33655 c 0.14605,0 0.222249,-0.0127 0.279399,-0.04445 0.1016,-0.0635 0.1651,-0.17145 0.1651,-0.28575 0,-0.1016 -0.0508,-0.19685 -0.1397,-0.26035 -0.06985,-0.0508 -0.127,-0.0635 -0.304799,-0.0635 h -1.3589 c -0.17145,0 -0.2159,0.0063 -0.2794,0.04445 -0.1016,0.0635 -0.1651,0.1651 -0.1651,0.2794 0,0.10795 0.0508,0.20955 0.1397,0.2667 0.06985,0.0508 0.1397,0.0635 0.3048,0.0635 h 0.33655 v 2.2733 h -0.33655 c -0.1651,0 -0.2159,0.0064 -0.2794,0.04445 -0.1016,0.0635 -0.1651,0.1651 -0.1651,0.2794 0,0.22225 0.1524,0.3302 0.4445,0.3302 h 3.022599 v -1.18745 c 0,-0.15875 -0.0127,-0.2159 -0.0508,-0.27305 -0.0635,-0.1016 -0.17145,-0.15875 -0.2921,-0.15875 -0.1143,0 -0.20955,0.04445 -0.2794,0.13335 -0.0508,0.06985 -0.0635,0.127 -0.0635,0.29845 v 0.5334 h -1.314449 z" />
      <path
         id="path4473"
         style="font-style:normal;font-variant:normal;font-weight:bold;font-stretch:normal;font-size:6.35px;font-family:'Nimbus Mono PS';-inkscape-font-specification:'Nimbus Mono PS, Bold';font-variant-ligatures:normal;font-variant-caps:normal;font-variant-numeric:normal;font-variant-east-asian:normal;text-align:center;text-anchor:middle;stroke-width:0.264583"
         d="m 38.703989,25.4445 h 0.48895 v 0.01905 c 0,0.1524 0.0063,0.20955 0.04445,0.2667 0.0635,0.09525 0.1778,0.15875 0.2921,0.15875 0.10795,0 0.2159,-0.0508 0.2794,-0.13335 0.0508,-0.06985 0.0635,-0.12065 0.0635,-0.2921 v -0.6858 c 0,-0.127 -0.0063,-0.1651 -0.0254,-0.2286 -0.04445,-0.1143 -0.1778,-0.2032 -0.3175,-0.2032 -0.10795,0 -0.20955,0.0508 -0.27305,0.13335 -0.0508,0.06985 -0.0635,0.13335 -0.0635,0.29845 v 0.01905 h -0.48895 v -0.80645 h 1.4351 v 0.2794 c 0,0.14605 0.0127,0.2159 0.0508,0.27305 0.0635,0.09525 0.1778,0.15875 0.2921,0.15875 0.10795,0 0.20955,-0.0508 0.2794,-0.13335 0.0508,-0.06985 0.0635,-0.127 0.0635,-0.29845 V 23.3363 h -2.87655 c -0.17145,0 -0.2159,0.0063 -0.2794,0.04445 -0.1016,0.0635 -0.1651,0.1651 -0.1651,0.2794 0,0.10795 0.0508,0.2032 0.1397,0.2667 0.06985,0.0508 0.1397,0.0635 0.3048,0.0635 h 0.06985 v 2.2733 h -0.06985 c -0.15875,0 -0.2159,0.0127 -0.2794,0.04445 -0.1016,0.0635 -0.1651,0.1651 -0.1651,0.2794 0,0.2159 0.1524,0.3302 0.4445,0.3302 h 3.01625 v -0.94615 c 0,-0.1524 -0.0127,-0.2159 -0.0508,-0.27305 -0.0635,-0.1016 -0.17145,-0.15875 -0.2921,-0.15875 -0.10795,0 -0.20955,0.0508 -0.2794,0.13335 -0.0508,0.06985 -0.0635,0.127 -0.0635,0.29845 v 0.2921 h -1.5748 z" />
      <path
         id="path4475"
         style="font-style:normal;font-variant:normal;font-weight:bold;font-stretch:normal;font-size:6.35px;font-family:'Nimbus Mono PS';-inkscape-font-specification:'Nimbus Mono PS, Bold';font-variant-ligatures:normal;font-variant-caps:normal;font-variant-numeric:normal;font-variant-east-asian:normal;text-align:center;text-anchor:middle;stroke-width:0.264583"
         d="m 42.513979,25.6477 0.3556,-0.2921 c 0.3683,0.1016 0.8001,0.73025 1.07315,1.5621 h 0.71755 c 0.2921,0 0.4445,-0.10795 0.4445,-0.3302 0,-0.1016 -0.0508,-0.2032 -0.1397,-0.2667 -0.06985,-0.0508 -0.13335,-0.05715 -0.3048,-0.05715 h -0.18415 c -0.28575,-0.67945 -0.6731,-1.1811 -1.04775,-1.3716 l 1.0795,-0.9017 c 0.2667,0 0.41275,-0.1143 0.41275,-0.32385 0,-0.10795 -0.0508,-0.2032 -0.1397,-0.2667 -0.0635,-0.0508 -0.13335,-0.0635 -0.3048,-0.0635 h -0.635 c -0.13335,0 -0.17145,0.0063 -0.23495,0.0254 -0.12065,0.0381 -0.20955,0.17145 -0.20955,0.31115 0,0.13335 0.0635,0.2286 0.17145,0.2794 l -1.0541,0.8636 v -0.8255 h 0.19685 c 0.1524,0 0.22225,-0.0063 0.2794,-0.04445 0.1016,-0.05715 0.1651,-0.1651 0.1651,-0.2794 0,-0.10795 -0.0508,-0.2032 -0.1397,-0.2667 -0.06985,-0.0508 -0.13335,-0.0635 -0.3048,-0.0635 h -0.9525 c -0.15875,0 -0.22225,0.0127 -0.2794,0.04445 -0.1016,0.0635 -0.1651,0.17145 -0.1651,0.28575 0,0.1016 0.0508,0.2032 0.1397,0.2667 0.06985,0.04445 0.1397,0.05715 0.3048,0.05715 h 0.06985 v 2.2733 h -0.06985 c -0.15875,0 -0.2159,0.0064 -0.2794,0.04445 -0.1016,0.05715 -0.1651,0.1651 -0.1651,0.2794 0,0.10795 0.0508,0.2032 0.1397,0.2667 0.0635,0.04445 0.15875,0.0635 0.3048,0.0635 h 0.9525 c 0.2921,0 0.4445,-0.1143 0.4445,-0.3302 0,-0.1016 -0.0508,-0.2032 -0.1397,-0.2667 -0.06985,-0.04445 -0.127,-0.05715 -0.3048,-0.05715 h -0.19685 z" />
      <path
         id="path4477"
         style="font-style:normal;font-variant:normal;font-weight:bold;font-stretch:normal;font-size:6.35px;font-family:'Nimbus Mono PS';-inkscape-font-specification:'Nimbus Mono PS, Bold';font-variant-ligatures:normal;font-variant-caps:normal;font-variant-numeric:normal;font-variant-east-asian:normal;text-align:center;text-anchor:middle;stroke-width:0.264583"
         d="m 50.26096,26.2573 c 1.651,-1.32715 1.83515,-1.5367 1.83515,-2.06375 0,-0.67945 -0.59055,-1.1938 -1.37795,-1.1938 -0.38735,0 -0.74295,0.127 -1.0033,0.34925 -0.22225,0.1905 -0.3937,0.48895 -0.3937,0.69215 0,0.17145 0.15875,0.3175 0.3429,0.3175 0.14605,0 0.27305,-0.0762 0.31115,-0.1905 0.06985,-0.19685 0.0762,-0.20955 0.13335,-0.27305 0.1397,-0.1524 0.34925,-0.2413 0.5969,-0.2413 0.40005,0 0.70485,0.22225 0.70485,0.5207 0,0.19685 -0.1016,0.3175 -0.7366,0.86995 -0.26035,0.2286 -0.70485,0.59055 -1.44145,1.16205 l -0.0381,0.03175 v 0.67945 h 2.9337 v -0.5588 c 0,-0.1524 -0.0127,-0.20955 -0.0508,-0.27305 -0.0635,-0.09525 -0.17145,-0.1524 -0.2921,-0.1524 -0.2032,0 -0.31115,0.1016 -0.33655,0.32385 z" />
      <path
         id="path4479"
         style="font-style:normal;font-variant:normal;font-weight:bold;font-stretch:normal;font-size:6.35px;font-family:'Nimbus Mono PS';-inkscape-font-specification:'Nimbus Mono PS, Bold';font-variant-ligatures:normal;font-variant-caps:normal;font-variant-numeric:normal;font-variant-east-asian:normal;text-align:center;text-anchor:middle;stroke-width:0.264583"
         d="m 55.995,24.7206 c 0,-0.5588 -0.18415,-1.06045 -0.50165,-1.3843 -0.2286,-0.22225 -0.5334,-0.33655 -0.9017,-0.33655 -0.3683,0 -0.6731,0.1143 -0.9017,0.33655 -0.3175,0.32385 -0.50165,0.8255 -0.50165,1.3843 v 0.5715 c 0,0.55245 0.18415,1.06045 0.50165,1.37795 0.2286,0.22225 0.5334,0.33655 0.9017,0.33655 0.3683,0 0.6731,-0.1143 0.9017,-0.33655 0.3175,-0.3175 0.50165,-0.8255 0.50165,-1.37795 z m -2.1209,-0.04445 c 0,-0.6223 0.2794,-1.02235 0.71755,-1.02235 0.43815,0 0.71755,0.40005 0.71755,1.02235 v 0.65405 c 0,0.61595 -0.28575,1.02235 -0.71755,1.02235 -0.4318,0 -0.71755,-0.4064 -0.71755,-1.02235 z" />
      <path
         id="path4481"
         style="font-style:normal;font-variant:normal;font-weight:bold;font-stretch:normal;font-size:6.35px;font-family:'Nimbus Mono PS';-inkscape-font-specification:'Nimbus Mono PS, Bold';font-variant-ligatures:normal;font-variant-caps:normal;font-variant-numeric:normal;font-variant-east-asian:normal;text-align:center;text-anchor:middle;stroke-width:0.264583"
         d="m 58.74454,22.99975 -1.37795,0.33655 c -0.2667,0.0635 -0.3556,0.1524 -0.3556,0.33655 0,0.1905 0.1397,0.3429 0.3175,0.3429 0.0635,0 0.08255,-0.0064 0.20955,-0.0381 l 0.5207,-0.13335 v 2.41935 h -0.61595 c -0.1651,0 -0.2159,0.0064 -0.2794,0.04445 -0.1016,0.0635 -0.1651,0.17145 -0.1651,0.2794 0,0.1016 0.05715,0.20955 0.1397,0.2667 0.0635,0.04445 0.15875,0.0635 0.3048,0.0635 h 1.917699 c 0.2921,0 0.4445,-0.1143 0.4445,-0.3302 0,-0.1016 -0.0508,-0.19685 -0.1397,-0.26035 -0.06985,-0.0508 -0.13335,-0.0635 -0.3048,-0.0635 H 58.74454 Z" />
      <path
         id="path4483"
         style="font-style:normal;font-variant:normal;font-weight:bold;font-stretch:normal;font-size:6.35px;font-family:'Nimbus Mono PS';-inkscape-font-specification:'Nimbus Mono PS, Bold';font-variant-ligatures:normal;font-variant-caps:normal;font-variant-numeric:normal;font-variant-east-asian:normal;text-align:center;text-anchor:middle;stroke-width:0.264583"
         d="m 63.049831,25.15875 c -0.17145,0.69215 -0.73025,1.17475 -1.3716,1.17475 -0.05715,0 -0.0762,-0.0064 -0.1397,-0.0254 -0.10795,-0.0381 -0.17145,-0.0508 -0.23495,-0.0508 -0.1905,0 -0.34925,0.14605 -0.34925,0.33655 0,0.24765 0.3048,0.41275 0.762,0.41275 0.60325,0 1.12395,-0.254 1.55575,-0.762 0.3302,-0.38735 0.4953,-0.85725 0.4953,-1.40335 0,-0.43815 -0.1143,-0.92075 -0.28575,-1.21285 -0.24765,-0.4191 -0.635,-0.62865 -1.17475,-0.62865 -0.4318,0 -0.7493,0.12065 -0.98425,0.3683 -0.2159,0.2286 -0.33655,0.5461 -0.33655,0.89535 0,0.70485 0.55245,1.27 1.23825,1.27 0.3048,0 0.5461,-0.10795 0.8255,-0.37465 z m -0.0508,-0.78105 c -0.1651,0.28575 -0.47625,0.4953 -0.7366,0.4953 -0.3302,0 -0.59055,-0.2667 -0.59055,-0.60325 0,-0.38735 0.2286,-0.61595 0.6096,-0.61595 0.4064,0 0.6223,0.22225 0.71755,0.7239 z" />
      <path
         id="path4485"
         style="font-style:normal;font-variant:normal;font-weight:bold;font-stretch:normal;font-size:6.35px;font-family:'Nimbus Mono PS';-inkscape-font-specification:'Nimbus Mono PS, Bold';font-variant-ligatures:normal;font-variant-caps:normal;font-variant-numeric:normal;font-variant-east-asian:normal;text-align:center;text-anchor:middle;stroke-width:0.264583"
         d="m 25.369023,33.64235 h 0.5969 c 0.5969,0 0.92075,-0.10795 1.2065,-0.4064 0.2032,-0.2159 0.32385,-0.508 0.32385,-0.79375 0,-0.6858 -0.5842,-1.1684 -1.40335,-1.1684 h -1.47955 c -0.1651,0 -0.2159,0.0063 -0.2794,0.04445 -0.1016,0.0635 -0.1651,0.17145 -0.1651,0.2794 0,0.10795 0.05715,0.20955 0.1397,0.2667 0.06985,0.0508 0.1397,0.0635 0.3048,0.0635 h 0.06985 v 2.2733 h -0.06985 c -0.15875,0 -0.2159,0.0127 -0.2794,0.04445 -0.1016,0.0635 -0.1651,0.17145 -0.1651,0.2794 0,0.1016 0.05715,0.20955 0.1397,0.2667 0.0635,0.04445 0.15875,0.0635 0.3048,0.0635 h 1.3589 c 0.2921,0 0.4445,-0.10795 0.4445,-0.3302 0,-0.1016 -0.0508,-0.19685 -0.1397,-0.26035 -0.06985,-0.0508 -0.13335,-0.0635 -0.3048,-0.0635 h -0.60325 z m 0,-1.7145 h 0.7239 c 0.42545,0 0.67945,0.19685 0.67945,0.52705 0,0.33655 -0.254,0.5334 -0.67945,0.5334 h -0.7239 z" />
      <path
         id="path4487"
         style="font-style:normal;font-variant:normal;font-weight:bold;font-stretch:normal;font-size:6.35px;font-family:'Nimbus Mono PS';-inkscape-font-specification:'Nimbus Mono PS, Bold';font-variant-ligatures:normal;font-variant-caps:normal;font-variant-numeric:normal;font-variant-east-asian:normal;text-align:center;text-anchor:middle;stroke-width:0.264583"
         d="m 29.179013,33.382 h 0.48895 v 0.01905 c 0,0.1524 0.0064,0.20955 0.04445,0.2667 0.0635,0.09525 0.1778,0.15875 0.2921,0.15875 0.10795,0 0.2159,-0.0508 0.2794,-0.13335 0.0508,-0.06985 0.0635,-0.12065 0.0635,-0.2921 v -0.6858 c 0,-0.127 -0.0064,-0.1651 -0.0254,-0.2286 -0.04445,-0.1143 -0.1778,-0.2032 -0.3175,-0.2032 -0.10795,0 -0.20955,0.0508 -0.27305,0.13335 -0.0508,0.06985 -0.0635,0.13335 -0.0635,0.29845 v 0.01905 h -0.48895 v -0.80645 h 1.4351 v 0.2794 c 0,0.14605 0.0127,0.2159 0.0508,0.27305 0.0635,0.09525 0.1778,0.15875 0.2921,0.15875 0.10795,0 0.20955,-0.0508 0.2794,-0.13335 0.0508,-0.06985 0.0635,-0.127 0.0635,-0.29845 V 31.2738 h -2.87655 c -0.17145,0 -0.2159,0.0063 -0.2794,0.04445 -0.1016,0.0635 -0.1651,0.1651 -0.1651,0.2794 0,0.10795 0.0508,0.2032 0.1397,0.2667 0.06985,0.0508 0.1397,0.0635 0.3048,0.0635 h 0.06985 v 2.2733 h -0.06985 c -0.15875,0 -0.2159,0.0127 -0.2794,0.04445 -0.1016,0.0635 -0.1651,0.1651 -0.1651,0.2794 0,0.2159 0.1524,0.3302 0.4445,0.3302 h 3.01625 v -0.94615 c 0,-0.1524 -0.0127,-0.2159 -0.0508,-0.27305 -0.0635,-0.1016 -0.17145,-0.15875 -0.2921,-0.15875 -0.10795,0 -0.20955,0.0508 -0.2794,0.13335 -0.0508,0.06985 -0.0635,0.127 -0.0635,0.29845 v 0.2921 h -1.5748 z" />
      <path
         id="path4489"
         style="font-style:normal;font-variant:normal;font-weight:bold;font-stretch:normal;font-size:6.35px;font-family:'Nimbus Mono PS';-inkscape-font-specification:'Nimbus Mono PS, Bold';font-variant-ligatures:normal;font-variant-caps:normal;font-variant-numeric:normal;font-variant-east-asian:normal;text-align:center;text-anchor:middle;stroke-width:0.264583"
         d="m 33.973253,31.92785 h 0.64135 v 0.5334 c 0,0.1524 0.0127,0.2159 0.0508,0.27305 0.0635,0.1016 0.17145,0.15875 0.2921,0.15875 0.10795,0 0.20955,-0.0508 0.2794,-0.13335 0.0508,-0.06985 0.0635,-0.12065 0.0635,-0.29845 V 31.2738 h -3.3274 v 1.18745 c 0,0.1524 0.0127,0.2159 0.0508,0.27305 0.0635,0.1016 0.1778,0.15875 0.2921,0.15875 0.10795,0 0.20955,-0.0508 0.2794,-0.13335 0.0508,-0.06985 0.0635,-0.12065 0.0635,-0.29845 v -0.5334 h 0.62865 v 2.2733 h -0.38735 c -0.1651,0 -0.2159,0.0064 -0.2794,0.04445 -0.1016,0.0635 -0.1651,0.17145 -0.1651,0.2794 0,0.1016 0.05715,0.20955 0.1397,0.2667 0.0635,0.04445 0.15875,0.0635 0.3048,0.0635 h 1.46685 c 0.2921,0 0.4445,-0.10795 0.4445,-0.3302 0,-0.1016 -0.0508,-0.19685 -0.1397,-0.26035 -0.06985,-0.0508 -0.13335,-0.0635 -0.3048,-0.0635 h -0.3937 z" />
      <path
         id="path4491"
         style="font-style:normal;font-variant:normal;font-weight:bold;font-stretch:normal;font-size:6.35px;font-family:'Nimbus Mono PS';-inkscape-font-specification:'Nimbus Mono PS, Bold';font-variant-ligatures:normal;font-variant-caps:normal;font-variant-numeric:normal;font-variant-east-asian:normal;text-align:center;text-anchor:middle;stroke-width:0.264583"
         d="m 36.798994,33.382 h 0.48895 v 0.01905 c 0,0.1524 0.0063,0.20955 0.04445,0.2667 0.0635,0.09525 0.1778,0.15875 0.2921,0.15875 0.10795,0 0.2159,-0.0508 0.2794,-0.13335 0.0508,-0.06985 0.0635,-0.12065 0.0635,-0.2921 v -0.6858 c 0,-0.127 -0.0063,-0.1651 -0.0254,-0.2286 -0.04445,-0.1143 -0.1778,-0.2032 -0.3175,-0.2032 -0.10795,0 -0.20955,0.0508 -0.27305,0.13335 -0.0508,0.06985 -0.0635,0.13335 -0.0635,0.29845 v 0.01905 h -0.48895 v -0.80645 h 1.4351 v 0.2794 c 0,0.14605 0.0127,0.2159 0.0508,0.27305 0.0635,0.09525 0.1778,0.15875 0.2921,0.15875 0.10795,0 0.20955,-0.0508 0.2794,-0.13335 0.0508,-0.06985 0.0635,-0.127 0.0635,-0.29845 V 31.2738 h -2.87655 c -0.17145,0 -0.2159,0.0063 -0.2794,0.04445 -0.1016,0.0635 -0.1651,0.1651 -0.1651,0.2794 0,0.10795 0.0508,0.2032 0.1397,0.2667 0.06985,0.0508 0.1397,0.0635 0.3048,0.0635 h 0.06985 v 2.2733 h -0.06985 c -0.15875,0 -0.2159,0.0127 -0.2794,0.04445 -0.1016,0.0635 -0.1651,0.1651 -0.1651,0.2794 0,0.2159 0.1524,0.3302 0.4445,0.3302 h 3.01625 v -0.94615 c 0,-0.1524 -0.0127,-0.2159 -0.0508,-0.27305 -0.0635,-0.1016 -0.17145,-0.15875 -0.2921,-0.15875 -0.10795,0 -0.20955,0.0508 -0.2794,0.13335 -0.0508,0.06985 -0.0635,0.127 -0.0635,0.29845 v 0.2921 h -1.5748 z" />
      <path
         id="path4493"
         style="font-style:normal;font-variant:normal;font-weight:bold;font-stretch:normal;font-size:6.35px;font-family:'Nimbus Mono PS';-inkscape-font-specification:'Nimbus Mono PS, Bold';font-variant-ligatures:normal;font-variant-caps:normal;font-variant-numeric:normal;font-variant-east-asian:normal;text-align:center;text-anchor:middle;stroke-width:0.264583"
         d="m 40.608984,33.509 h 0.5842 c 0.254,0.0889 0.80645,0.71755 1.13665,1.3081 l 0.01905,0.0381 h 0.51435 c 0.127,0 0.2286,-0.01905 0.2794,-0.04445 0.1016,-0.0635 0.1651,-0.17145 0.1651,-0.28575 0,-0.1016 -0.05715,-0.20955 -0.1397,-0.2667 -0.06985,-0.0508 -0.13335,-0.0635 -0.3048,-0.0635 h -0.06985 c -0.2413,-0.3683 -0.4953,-0.66675 -0.76835,-0.9017 0.45085,-0.23495 0.66675,-0.5334 0.66675,-0.92075 0,-0.6477 -0.57785,-1.09855 -1.4224,-1.09855 h -1.41605 c -0.17145,0 -0.2159,0.0063 -0.2794,0.04445 -0.1016,0.0635 -0.1651,0.17145 -0.1651,0.2794 0,0.10795 0.05715,0.20955 0.1397,0.2667 0.06985,0.0508 0.1397,0.0635 0.3048,0.0635 h 0.06985 v 2.26695 h -0.06985 c -0.15875,0 -0.2159,0.0127 -0.2794,0.0508 -0.1016,0.05715 -0.1651,0.1651 -0.1651,0.2794 0,0.2159 0.1524,0.3302 0.4445,0.3302 h 0.9525 c 0.13335,0 0.2286,-0.01905 0.2794,-0.04445 0.1016,-0.0635 0.1651,-0.17145 0.1651,-0.28575 0,-0.1016 -0.0508,-0.2032 -0.1397,-0.2667 -0.06985,-0.0508 -0.127,-0.0635 -0.3048,-0.0635 h -0.19685 z m 0,-0.65405 v -0.9271 h 0.6858 c 0.38735,0 0.6731,0.1778 0.6731,0.42545 0,0.2921 -0.381,0.50165 -0.9017,0.50165 z" />
      <path
         id="path4495"
         style="font-style:normal;font-variant:normal;font-weight:bold;font-stretch:normal;font-size:6.35px;font-family:'Nimbus Mono PS';-inkscape-font-specification:'Nimbus Mono PS, Bold';font-variant-ligatures:normal;font-variant-caps:normal;font-variant-numeric:normal;font-variant-east-asian:normal;text-align:center;text-anchor:middle;stroke-width:0.264583"
         d="m 48.228965,33.5852 0.3556,-0.2921 c 0.3683,0.1016 0.8001,0.73025 1.07315,1.5621 h 0.71755 c 0.292099,0 0.444499,-0.10795 0.444499,-0.3302 0,-0.1016 -0.0508,-0.2032 -0.1397,-0.2667 -0.06985,-0.0508 -0.13335,-0.05715 -0.304799,-0.05715 h -0.18415 c -0.28575,-0.67945 -0.6731,-1.1811 -1.04775,-1.3716 l 1.0795,-0.9017 c 0.266699,0 0.412749,-0.1143 0.412749,-0.32385 0,-0.10795 -0.0508,-0.2032 -0.1397,-0.2667 -0.0635,-0.0508 -0.133349,-0.0635 -0.304799,-0.0635 h -0.635 c -0.13335,0 -0.17145,0.0063 -0.23495,0.0254 -0.12065,0.0381 -0.20955,0.17145 -0.20955,0.31115 0,0.13335 0.0635,0.2286 0.17145,0.2794 l -1.0541,0.8636 v -0.8255 h 0.19685 c 0.1524,0 0.22225,-0.0063 0.2794,-0.04445 0.1016,-0.05715 0.1651,-0.1651 0.1651,-0.2794 0,-0.10795 -0.0508,-0.2032 -0.1397,-0.2667 -0.06985,-0.0508 -0.13335,-0.0635 -0.3048,-0.0635 h -0.9525 c -0.15875,0 -0.22225,0.0127 -0.2794,0.04445 -0.1016,0.0635 -0.1651,0.17145 -0.1651,0.28575 0,0.1016 0.0508,0.2032 0.1397,0.2667 0.06985,0.04445 0.1397,0.05715 0.3048,0.05715 h 0.06985 v 2.2733 h -0.06985 c -0.15875,0 -0.2159,0.0064 -0.2794,0.04445 -0.1016,0.05715 -0.1651,0.1651 -0.1651,0.2794 0,0.10795 0.0508,0.2032 0.1397,0.2667 0.0635,0.04445 0.15875,0.0635 0.3048,0.0635 h 0.9525 c 0.2921,0 0.4445,-0.1143 0.4445,-0.3302 0,-0.1016 -0.0508,-0.2032 -0.1397,-0.2667 -0.06985,-0.04445 -0.127,-0.05715 -0.3048,-0.05715 h -0.19685 z" />
      <path
         id="path4497"
         style="font-style:normal;font-variant:normal;font-weight:bold;font-stretch:normal;font-size:6.35px;font-family:'Nimbus Mono PS';-inkscape-font-specification:'Nimbus Mono PS, Bold';font-variant-ligatures:normal;font-variant-caps:normal;font-variant-numeric:normal;font-variant-east-asian:normal;text-align:center;text-anchor:middle;stroke-width:0.264583"
         d="m 52.686654,31.1849 c -0.42545,0 -0.8382,0.1651 -1.1938,0.47625 -0.38735,0.3429 -0.60325,0.84455 -0.60325,1.397 0,1.0414 0.80645,1.8796 1.79705,1.8796 0.98425,0 1.79705,-0.8382 1.79705,-1.84785 0,-0.59055 -0.2032,-1.0668 -0.60325,-1.42875 -0.3429,-0.31115 -0.762,-0.47625 -1.1938,-0.47625 z m 0,0.65405 c 0.60325,0 1.11125,0.55245 1.11125,1.2065 0,0.6858 -0.4953,1.23825 -1.11125,1.23825 -0.6096,0 -1.11125,-0.55245 -1.11125,-1.22555 0,-0.66675 0.50165,-1.2192 1.11125,-1.2192 z" />
      <path
         id="path4499"
         style="font-style:normal;font-variant:normal;font-weight:bold;font-stretch:normal;font-size:6.35px;font-family:'Nimbus Mono PS';-inkscape-font-specification:'Nimbus Mono PS, Bold';font-variant-ligatures:normal;font-variant-caps:normal;font-variant-numeric:normal;font-variant-east-asian:normal;text-align:center;text-anchor:middle;stroke-width:0.264583"
         d="m 56.515694,33.89635 -0.8763,-1.9685 h 0.08255 c 0.15875,0 0.22225,-0.0063 0.2794,-0.04445 0.1016,-0.05715 0.1651,-0.17145 0.1651,-0.2794 0,-0.10795 -0.0508,-0.2032 -0.1397,-0.2667 -0.0635,-0.0508 -0.1397,-0.0635 -0.3048,-0.0635 h -0.84455 c -0.15875,0 -0.2159,0.0127 -0.2794,0.04445 -0.1016,0.0635 -0.1651,0.17145 -0.1651,0.28575 0,0.1016 0.0508,0.2032 0.1397,0.2667 0.06985,0.04445 0.13335,0.05715 0.29845,0.05715 l 1.28905,2.92735 h 0.65405 l 1.30175,-2.92735 c 0.127,0 0.17145,0 0.2286,-0.01905 0.127,-0.04445 0.2159,-0.17145 0.2159,-0.3048 0,-0.10795 -0.0508,-0.2032 -0.1397,-0.2667 -0.0635,-0.0508 -0.1397,-0.0635 -0.3048,-0.0635 h -0.8382 c -0.15875,0 -0.22225,0.0127 -0.2794,0.04445 -0.1016,0.0635 -0.1651,0.17145 -0.1651,0.28575 0,0.1016 0.0508,0.2032 0.1397,0.2667 0.06985,0.0508 0.13335,0.05715 0.3048,0.05715 h 0.1143 z" />
      <path
         id="path4501"
         style="font-style:normal;font-variant:normal;font-weight:bold;font-stretch:normal;font-size:6.35px;font-family:'Nimbus Mono PS';-inkscape-font-specification:'Nimbus Mono PS, Bold';font-variant-ligatures:normal;font-variant-caps:normal;font-variant-numeric:normal;font-variant-east-asian:normal;text-align:center;text-anchor:middle;stroke-width:0.264583"
         d="m 61.030536,33.89635 0.12065,0.29845 h -0.10795 c -0.1651,0 -0.2159,0.0127 -0.2794,0.0508 -0.1016,0.05715 -0.1651,0.1651 -0.1651,0.2794 0,0.10795 0.0508,0.2032 0.1397,0.2667 0.0635,0.04445 0.1524,0.0635 0.3048,0.0635 h 0.88265 c 0.13335,0 0.2286,-0.0127 0.2794,-0.04445 0.1016,-0.05715 0.1651,-0.17145 0.1651,-0.28575 0,-0.1016 -0.0508,-0.2032 -0.1397,-0.2667 -0.06985,-0.04445 -0.127,-0.05715 -0.29845,-0.0635 l -1.26365,-2.921 h -1.39065 c -0.17145,0 -0.22225,0.0063 -0.28575,0.04445 -0.1016,0.0635 -0.1651,0.17145 -0.1651,0.2794 0,0.10795 0.0508,0.2032 0.14605,0.2667 0.0635,0.0508 0.13335,0.0635 0.3048,0.0635 h 0.36195 l -0.9652,2.26695 c -0.2794,0 -0.4318,0.1143 -0.4318,0.3302 0,0.22225 0.14605,0.3302 0.4445,0.3302 h 0.84455 c 0.13335,0 0.2286,-0.0127 0.2794,-0.04445 0.1016,-0.0635 0.1651,-0.17145 0.1651,-0.28575 0,-0.1016 -0.0508,-0.2032 -0.1397,-0.2667 -0.06985,-0.0508 -0.127,-0.0635 -0.3048,-0.0635 h -0.10795 l 0.127,-0.29845 z m -0.28575,-0.65405 h -0.92075 l 0.46355,-1.07315 z m 0.2794,-3.04165 c 0.1143,-0.0889 0.1524,-0.1524 0.1524,-0.23495 0,-0.1397 -0.1143,-0.24765 -0.26035,-0.24765 -0.0762,0 -0.1143,0.01905 -0.22225,0.1016 l -0.84455,0.6731 c -0.1016,0.08255 -0.1524,0.15875 -0.1524,0.2413 0,0.13335 0.1143,0.24765 0.26035,0.24765 0.06985,0 0.10795,-0.01905 0.2159,-0.1016 z" />
      <path
         id="path4503"
         style="font-style:normal;font-variant:normal;font-weight:bold;font-stretch:normal;font-size:6.35px;font-family:'Nimbus Mono PS';-inkscape-font-specification:'Nimbus Mono PS, Bold';font-variant-ligatures:normal;font-variant-caps:normal;font-variant-numeric:normal;font-variant-east-asian:normal;text-align:center;text-anchor:middle;stroke-width:0.264583"
         d="m 62.395776,33.32485 c 0,0.93345 0.8001,1.6129 1.8923,1.6129 0.46355,0 0.9017,-0.1143 1.1811,-0.3048 0.2286,-0.15875 0.34925,-0.3175 0.34925,-0.46355 0,-0.1778 -0.15875,-0.3302 -0.3429,-0.3302 -0.0889,0 -0.17145,0.03175 -0.24765,0.10795 -0.1651,0.15875 -0.1651,0.15875 -0.2286,0.19685 -0.1651,0.0889 -0.4064,0.1397 -0.69215,0.1397 -0.7493,0 -1.22555,-0.381 -1.22555,-0.97155 V 32.9248 c 0,-0.635 0.4572,-1.08585 1.0922,-1.08585 0.2159,0 0.4318,0.0508 0.60325,0.14605 0.1778,0.09525 0.2413,0.1651 0.2667,0.3048 0.04445,0.24765 0.1397,0.3429 0.33655,0.3429 0.10795,0 0.20955,-0.0508 0.2794,-0.13335 0.0508,-0.0635 0.0635,-0.13335 0.0635,-0.2921 v -0.508 c 0,-0.15875 -0.0063,-0.20955 -0.0508,-0.27305 -0.0635,-0.09525 -0.17145,-0.1524 -0.2921,-0.1524 -0.1143,0 -0.1905,0.0381 -0.27305,0.1397 -0.43815,-0.1905 -0.60325,-0.2286 -0.95885,-0.2286 -0.99695,0 -1.7526,0.7493 -1.7526,1.73355 z m 1.7272,-2.9464 -0.70485,-0.5715 c -0.0762,-0.0635 -0.127,-0.08255 -0.1905,-0.08255 -0.13335,0 -0.24765,0.10795 -0.24765,0.2413 0,0.0762 0.0254,0.12065 0.10795,0.18415 l 0.0508,0.04445 0.98425,0.7874 0.9779,-0.7874 c 0.1524,-0.12065 0.15875,-0.13335 0.15875,-0.23495 0,-0.127 -0.1143,-0.23495 -0.2413,-0.23495 -0.06985,0 -0.127,0.0254 -0.19685,0.08255 z" />
    </g>
  </g>
</svg>
