<?xml version="1.0" encoding="UTF-8" standalone="no"?>
<svg
   xmlns:dc="http://purl.org/dc/elements/1.1/"
   xmlns:cc="http://creativecommons.org/ns#"
   xmlns:rdf="http://www.w3.org/1999/02/22-rdf-syntax-ns#"
   xmlns:svg="http://www.w3.org/2000/svg"
   xmlns="http://www.w3.org/2000/svg"
   xmlns:sodipodi="http://sodipodi.sourceforge.net/DTD/sodipodi-0.dtd"
   xmlns:inkscape="http://www.inkscape.org/namespaces/inkscape"
   width="235.76619mm"
   height="123.12929mm"
   viewBox="0 0 235.76619 123.12929"
   version="1.1"
   id="svg2934"
   sodipodi:docname="zabava.svg"
   inkscape:version="1.0 (1.0+r73+1)">
  <defs
     id="defs2928" />
  <sodipodi:namedview
     id="base"
     pagecolor="#ffffff"
     bordercolor="#666666"
     borderopacity="1.0"
     inkscape:pageopacity="0.0"
     inkscape:pageshadow="2"
     inkscape:zoom="0.7"
     inkscape:cx="233.71205"
     inkscape:cy="385.92714"
     inkscape:document-units="mm"
     inkscape:current-layer="layer1"
     inkscape:document-rotation="0"
     showgrid="true"
     showguides="true"
     inkscape:guide-bbox="true"
     inkscape:window-width="1680"
     inkscape:window-height="994"
     inkscape:window-x="0"
     inkscape:window-y="0"
     inkscape:window-maximized="1">
    <sodipodi:guide
       position="154.85668,4.3086037"
       orientation="0,-1"
       id="guide3195" />
    <inkscape:grid
       type="xygrid"
       id="grid3197" />
  </sodipodi:namedview>
  <metadata
     id="metadata2931">
    <rdf:RDF>
      <cc:Work
         rdf:about="">
        <dc:format>image/svg+xml</dc:format>
        <dc:type
           rdf:resource="http://purl.org/dc/dcmitype/StillImage" />
      </cc:Work>
    </rdf:RDF>
  </metadata>
  <g
     inkscape:label="Layer 1"
     inkscape:groupmode="layer"
     id="layer1"
     transform="translate(50.603329,-20.834166)">
    <text
       id="text1139-2-0-7-0"
       y="65.676186"
       x="67.473557"
       style="font-style:normal;font-variant:normal;font-weight:bold;font-stretch:normal;font-size:10.5833px;line-height:1.25;font-family:sans-serif;-inkscape-font-specification:'sans-serif Bold';letter-spacing:0px;word-spacing:0px;display:inline;fill:#000000;fill-opacity:1;stroke:none;stroke-width:0.264583"
       xml:space="preserve"><tspan
         style="font-style:normal;font-variant:normal;font-weight:bold;font-stretch:normal;font-size:14.1111px;font-family:'Nimbus Mono L';-inkscape-font-specification:'Nimbus Mono L Bold';text-align:center;text-anchor:middle;stroke-width:0.264583"
         y="65.676186"
         x="67.473557"
         sodipodi:role="line"
         id="tspan3435">TEŠÍME SA NA VÁS</tspan><tspan
         id="tspan96"
         style="font-style:normal;font-variant:normal;font-weight:bold;font-stretch:normal;font-size:14.1111px;font-family:'Nimbus Mono L';-inkscape-font-specification:'Nimbus Mono L Bold';text-align:center;text-anchor:middle;stroke-width:0.264583"
         y="83.315063"
         x="67.473557"
         sodipodi:role="line">NA ZÁBAVE</tspan><tspan
         id="tspan94"
         style="font-style:normal;font-variant:normal;font-weight:bold;font-stretch:normal;font-size:14.1111px;font-family:'Nimbus Mono L';-inkscape-font-specification:'Nimbus Mono L Bold';text-align:center;text-anchor:middle;stroke-width:0.264583"
         y="100.95393"
         x="67.473557"
         sodipodi:role="line">POD GAŠTANKOU</tspan></text>
    <g
       transform="matrix(0.34721057,0,0,0.34721057,570.40947,-16.644897)"
       id="g2461-8-9">
      <g
         aria-label="JAKUB"
         id="text2640-0-8-8-8-7"
         style="font-style:normal;font-variant:normal;font-weight:bold;font-stretch:normal;font-size:11.2889px;line-height:1.25;font-family:sans-serif;-inkscape-font-specification:'sans-serif Bold';letter-spacing:0px;word-spacing:0px;fill:#000000;fill-opacity:1;stroke:none;stroke-width:0.264583">
        <path
           d="m -1224.6439,153.86789 -0.1059,4.48028 h 5.2211 v 12.10028 h -0.1058 v 0.0353 c 0,0.84667 -0.3175,1.62278 -0.9172,2.2225 -0.5997,0.59973 -1.3759,0.9525 -2.2225,0.9525 -0.8467,0 -1.6581,-0.35277 -2.2578,-0.9525 -0.5997,-0.59972 -0.9172,-1.37583 -0.9172,-2.2225 v -0.0353 h -4.9389 v 0.0353 c 0,4.48028 3.6336,8.1139 8.1139,8.1139 4.445,0 8.0786,-3.63362 8.0786,-8.1139 v -0.0353 h 0.035 v -16.58056 z"
           style="font-style:normal;font-variant:normal;font-weight:normal;font-stretch:normal;font-size:35.2778px;font-family:'Jaapokki subtract';-inkscape-font-specification:'Jaapokki subtract';text-align:center;text-anchor:middle;stroke-width:0.264583"
           id="path2835" />
        <path
           d="m -1200.8617,153.86789 -12.5942,24.72974 h 5.5386 l 7.6553,-15.02835 7.0555,15.02835 h 5.4681 l -11.677,-24.72974 z"
           style="font-style:normal;font-variant:normal;font-weight:normal;font-stretch:normal;font-size:35.2778px;font-family:'Jaapokki subtract';-inkscape-font-specification:'Jaapokki subtract';text-align:center;text-anchor:middle;stroke-width:0.264583"
           id="path2837" />
        <path
           d="m -1172.0916,178.56235 h 5.8914 l -8.8547,-15.02835 8.643,-9.66611 h -6.6675 l -7.2319,7.97278 v -7.97278 h -4.9389 v 24.69446 h 4.9389 v -9.34862 l 1.905,-1.94028 z"
           style="font-style:normal;font-variant:normal;font-weight:normal;font-stretch:normal;font-size:35.2778px;font-family:'Jaapokki subtract';-inkscape-font-specification:'Jaapokki subtract';text-align:center;text-anchor:middle;stroke-width:0.264583"
           id="path2839" />
        <path
           d="m -1143.0254,169.46068 v -15.59279 h -4.9389 v 15.62806 h 0.035 c -0.035,1.23473 -0.4938,2.36362 -1.3758,3.24556 -0.8819,0.88195 -2.0108,1.34056 -3.2456,1.34056 -1.2347,0 -2.3988,-0.45861 -3.2808,-1.34056 -0.8819,-0.88194 -1.3758,-2.04611 -1.3758,-3.28083 v -15.59279 h -4.9389 v 15.62806 c 0.035,5.2564 4.3039,9.52501 9.5955,9.52501 5.2564,0 9.5603,-4.26861 9.5603,-9.56028 z"
           style="font-style:normal;font-variant:normal;font-weight:normal;font-stretch:normal;font-size:35.2778px;font-family:'Jaapokki subtract';-inkscape-font-specification:'Jaapokki subtract';text-align:center;text-anchor:middle;stroke-width:0.264583"
           id="path2841" />
        <path
           d="m -1132.9156,174.36429 v 4.19806 h 1.7639 c 4.1275,0 7.4789,-3.31612 7.4789,-7.4789 0,-2.39889 -1.1289,-4.55083 -2.9281,-5.92667 0.8114,-1.16416 1.27,-2.54 1.27,-4.05694 0,-3.9864 -3.2455,-7.23195 -7.2319,-7.23195 h -6.7381 v 14.53445 h 8.0786 c 1.6581,0 3.0339,1.34056 3.0339,2.99861 0,1.65806 -1.3758,2.96334 -3.0339,2.96334 z m -2.0108,-10.72445 v -5.64445 h 2.1519 c 1.3759,0 2.8575,1.05833 2.8575,2.78695 0,1.72861 -1.4816,2.8575 -2.8575,2.8575 z"
           style="font-style:normal;font-variant:normal;font-weight:normal;font-stretch:normal;font-size:35.2778px;font-family:'Jaapokki subtract';-inkscape-font-specification:'Jaapokki subtract';text-align:center;text-anchor:middle;stroke-width:0.264583"
           id="path2843" />
      </g>
      <g
         transform="translate(-612.27564,21.534187)"
         aria-label="LUCIA"
         style="font-style:normal;font-variant:normal;font-weight:bold;font-stretch:normal;font-size:11.2889px;line-height:1.25;font-family:sans-serif;-inkscape-font-specification:'sans-serif Bold';letter-spacing:0px;word-spacing:0px;fill:#000000;fill-opacity:1;stroke:none;stroke-width:0.264583"
         id="text2640-0-9-8-9-0-9">
        <path
           d="m -671.81672,101.40249 h -4.93888 v 24.69445 h 14.14639 v -4.90361 h -9.20751 z"
           style="font-style:normal;font-variant:normal;font-weight:normal;font-stretch:normal;font-size:35.2778px;font-family:'Jaapokki subtract';-inkscape-font-specification:'Jaapokki subtract';text-align:center;text-anchor:middle;stroke-width:0.264583"
           id="path1991-3-4-7"
           inkscape:connector-curvature="0" />
        <path
           d="m -639.4229,116.99527 v -15.59278 h -4.93888 v 15.62806 h 0.0353 c -0.0353,1.23472 -0.49389,2.36361 -1.37583,3.24556 -0.88194,0.88194 -2.01083,1.34055 -3.24556,1.34055 -1.23472,0 -2.39888,-0.45861 -3.28083,-1.34055 -0.88194,-0.88195 -1.37583,-2.04612 -1.37583,-3.28084 v -15.59278 h -4.93889 v 15.62806 c 0.0353,5.25639 4.30389,9.525 9.59555,9.525 5.25639,0 9.56028,-4.26861 9.56028,-9.56028 z"
           style="font-style:normal;font-variant:normal;font-weight:normal;font-stretch:normal;font-size:35.2778px;font-family:'Jaapokki subtract';-inkscape-font-specification:'Jaapokki subtract';text-align:center;text-anchor:middle;stroke-width:0.264583"
           id="path1993-9-6-8"
           inkscape:connector-curvature="0" />
        <path
           d="m -614.26264,103.73083 c -2.18723,-1.69334 -4.93889,-2.71639 -7.90223,-2.71639 -7.05555,0 -12.80583,5.75028 -12.80583,12.80583 0,7.05556 5.75028,12.80584 12.80583,12.80584 3.10445,0 5.96195,-1.12889 8.18445,-2.96334 l -3.175,-3.63361 c -4.65667,3.52778 -12.31195,0.74084 -12.31195,-6.20889 0,-6.63222 7.23195,-9.525 12.02973,-6.42055 z"
           style="font-style:normal;font-variant:normal;font-weight:normal;font-stretch:normal;font-size:35.2778px;font-family:'Jaapokki subtract';-inkscape-font-specification:'Jaapokki subtract';text-align:center;text-anchor:middle;stroke-width:0.264583"
           id="path1995-2-7-5"
           inkscape:connector-curvature="0" />
        <path
           d="m -609.40809,126.09694 v -24.69445 h 4.93889 v 24.69445 z"
           style="font-style:normal;font-variant:normal;font-weight:normal;font-stretch:normal;font-size:35.2778px;font-family:'Jaapokki subtract';-inkscape-font-specification:'Jaapokki subtract';text-align:center;text-anchor:middle;stroke-width:0.264583"
           id="path1997-8-6-3"
           inkscape:connector-curvature="0" />
        <path
           d="m -588.3638,101.40249 -12.59417,24.72973 h 5.53862 l 7.65527,-15.02834 7.05556,15.02834 h 5.46806 l -11.67695,-24.72973 z"
           style="font-style:normal;font-variant:normal;font-weight:normal;font-stretch:normal;font-size:35.2778px;font-family:'Jaapokki subtract';-inkscape-font-specification:'Jaapokki subtract';text-align:center;text-anchor:middle;stroke-width:0.264583"
           id="path1999-3-0-3"
           inkscape:connector-curvature="0" />
      </g>
    </g>
    <g
       aria-label="www.luckakubo.xyz"
       id="text3596"
       style="font-style:normal;font-variant:normal;font-weight:bold;font-stretch:normal;font-size:10.5833px;line-height:1.25;font-family:sans-serif;-inkscape-font-specification:'sans-serif Bold';letter-spacing:0px;word-spacing:0px;fill:#000000;fill-opacity:1;stroke:none;stroke-width:0.264583"
       transform="translate(882.32115,649.66178)">
      <g
         id="g3654"
         transform="matrix(0.87272497,0,0,0.87272497,-88.355509,-65.002239)">
        <path
           id="path3616"
           style="font-style:normal;font-variant:normal;font-weight:bold;font-stretch:normal;font-family:'Nimbus Mono L';-inkscape-font-specification:'Nimbus Mono L Bold';stroke-width:0.264583"
           d="m -799.30668,-512.08126 0.75142,1.91558 h 0.97366 l 0.889,-3.57716 c 0.34925,-0.0212 0.55033,-0.21166 0.55033,-0.51858 0,-0.16933 -0.0847,-0.32808 -0.22225,-0.43391 -0.0953,-0.0741 -0.20108,-0.0952 -0.47625,-0.0952 h -0.98424 c -0.22225,0 -0.39159,0.0317 -0.47625,0.10583 -0.13758,0.0952 -0.22225,0.26458 -0.22225,0.42333 0,0.15875 0.0847,0.32809 0.22225,0.42334 0.0952,0.0741 0.20108,0.0952 0.47625,0.0952 h 0.0741 l -0.42333,1.61925 -0.64558,-1.67216 h -0.93133 l -0.635,1.67216 -0.41275,-1.61925 c 0.26458,0 0.34925,-0.0212 0.43391,-0.0741 0.14817,-0.0952 0.24342,-0.26458 0.24342,-0.4445 0,-0.16933 -0.0847,-0.32808 -0.21167,-0.43391 -0.10583,-0.0741 -0.21166,-0.0952 -0.48683,-0.0952 h -0.97366 c -0.0847,0 -0.0952,0 -0.22225,0.0212 -0.29633,0.0317 -0.47625,0.22225 -0.47625,0.508 0,0.30692 0.21167,0.49742 0.5715,0.51858 l 0.89958,3.57716 h 0.99483 z" />
        <path
           id="path3618"
           style="font-style:normal;font-variant:normal;font-weight:bold;font-stretch:normal;font-family:'Nimbus Mono L';-inkscape-font-specification:'Nimbus Mono L Bold';stroke-width:0.264583"
           d="m -792.96083,-512.08126 0.75141,1.91558 h 0.97367 l 0.889,-3.57716 c 0.34924,-0.0212 0.55033,-0.21166 0.55033,-0.51858 0,-0.16933 -0.0847,-0.32808 -0.22225,-0.43391 -0.0952,-0.0741 -0.20109,-0.0952 -0.47625,-0.0952 h -0.98425 c -0.22225,0 -0.39158,0.0317 -0.47625,0.10583 -0.13758,0.0952 -0.22225,0.26458 -0.22225,0.42333 0,0.15875 0.0847,0.32809 0.22225,0.42334 0.0952,0.0741 0.20109,0.0952 0.47625,0.0952 h 0.0741 l -0.42334,1.61925 -0.64558,-1.67216 h -0.93133 l -0.635,1.67216 -0.41274,-1.61925 c 0.26458,0 0.34924,-0.0212 0.43391,-0.0741 0.14817,-0.0952 0.24342,-0.26458 0.24342,-0.4445 0,-0.16933 -0.0847,-0.32808 -0.21167,-0.43391 -0.10583,-0.0741 -0.21167,-0.0952 -0.48683,-0.0952 h -0.97367 c -0.0847,0 -0.0952,0 -0.22224,0.0212 -0.29634,0.0317 -0.47625,0.22225 -0.47625,0.508 0,0.30692 0.21166,0.49742 0.5715,0.51858 l 0.89958,3.57716 h 0.99483 z" />
        <path
           id="path3620"
           style="font-style:normal;font-variant:normal;font-weight:bold;font-stretch:normal;font-family:'Nimbus Mono L';-inkscape-font-specification:'Nimbus Mono L Bold';stroke-width:0.264583"
           d="m -786.61498,-512.08126 0.75141,1.91558 h 0.97366 l 0.889,-3.57716 c 0.34925,-0.0212 0.55033,-0.21166 0.55033,-0.51858 0,-0.16933 -0.0847,-0.32808 -0.22225,-0.43391 -0.0953,-0.0741 -0.20108,-0.0952 -0.47625,-0.0952 h -0.98424 c -0.22225,0 -0.39158,0.0317 -0.47625,0.10583 -0.13758,0.0952 -0.22225,0.26458 -0.22225,0.42333 0,0.15875 0.0847,0.32809 0.22225,0.42334 0.0952,0.0741 0.20108,0.0952 0.47625,0.0952 h 0.0741 l -0.42333,1.61925 -0.64558,-1.67216 h -0.93133 l -0.635,1.67216 -0.41275,-1.61925 c 0.26458,0 0.34925,-0.0212 0.43392,-0.0741 0.14816,-0.0952 0.24341,-0.26458 0.24341,-0.4445 0,-0.16933 -0.0847,-0.32808 -0.21166,-0.43391 -0.10584,-0.0741 -0.21167,-0.0952 -0.48684,-0.0952 h -0.97366 c -0.0847,0 -0.0952,0 -0.22225,0.0212 -0.29633,0.0317 -0.47625,0.22225 -0.47625,0.508 0,0.30692 0.21167,0.49742 0.5715,0.51858 l 0.89958,3.57716 h 0.99483 z" />
      </g>
      <path
         d="m -771.55104,-510.098 c 0.34175,0 0.6096,-0.26787 0.6096,-0.6096 0,-0.34175 -0.26785,-0.6096 -0.6096,-0.6096 h -0.16625 c -0.33251,0 -0.6096,0.27709 -0.6096,0.6096 0,0.3325 0.27709,0.6096 0.6096,0.6096 z"
         style="font-style:normal;font-variant:normal;font-weight:bold;font-stretch:normal;font-family:'Nimbus Mono L';-inkscape-font-specification:'Nimbus Mono L Bold';stroke-width:0.230908"
         id="path3622" />
      <g
         id="g3670"
         transform="matrix(0.87272497,0,0,0.87272497,-92.511862,-65.002239)">
        <path
           id="path3624"
           style="font-style:normal;font-variant:normal;font-weight:bold;font-stretch:normal;font-family:'Nimbus Mono L';-inkscape-font-specification:'Nimbus Mono L Bold';stroke-width:0.264583"
           d="m -773.40471,-516.76966 h -1.88383 c -0.26458,0 -0.35983,0.0106 -0.45508,0.0741 -0.15875,0.0952 -0.254,0.26459 -0.254,0.45509 0,0.16933 0.0741,0.32808 0.22225,0.42333 0.0952,0.0847 0.22225,0.10583 0.48683,0.10583 h 0.8255 v 4.48732 h -1.29116 c -0.27517,0 -0.34925,0.0106 -0.4445,0.0741 -0.15875,0.0952 -0.254,0.27517 -0.254,0.45509 0,0.15874 0.0847,0.32808 0.22225,0.42333 0.0847,0.0741 0.23283,0.10583 0.47625,0.10583 h 3.64065 c 0.21167,0 0.37042,-0.0317 0.4445,-0.0741 0.15875,-0.10584 0.254,-0.27517 0.254,-0.45508 0,-0.16934 -0.0847,-0.32809 -0.22225,-0.43392 -0.10583,-0.0741 -0.1905,-0.0953 -0.47625,-0.0953 h -1.29116 z" />
        <path
           id="path3626"
           style="font-style:normal;font-variant:normal;font-weight:bold;font-stretch:normal;font-family:'Nimbus Mono L';-inkscape-font-specification:'Nimbus Mono L Bold';stroke-width:0.264583"
           d="m -765.36554,-514.79058 h -1.42874 c -0.254,0 -0.34925,0.0106 -0.4445,0.0741 -0.15875,0.0952 -0.254,0.27517 -0.254,0.45508 0,0.15875 0.0847,0.32809 0.22225,0.42334 0.0952,0.0847 0.21167,0.10583 0.47625,0.10583 h 0.37041 v 1.92616 c -0.55033,0.58208 -0.81491,0.71966 -1.34408,0.71966 -0.63499,0 -0.93133,-0.24341 -0.93133,-0.76199 v -2.94216 h -1.22766 c -0.26458,0 -0.34925,0.0106 -0.4445,0.0741 -0.15875,0.0952 -0.254,0.27517 -0.254,0.45508 0,0.30692 0.26459,0.55033 0.58208,0.52917 l 0.11642,-0.0106 h 0.16933 v 1.92617 c 0,0.62441 0.20109,1.07949 0.62442,1.39699 0.33866,0.254 0.78316,0.39158 1.25941,0.39158 0.58208,0 0.92075,-0.14816 1.44991,-0.64558 v 0.508 h 1.00542 c 0.22225,0 0.35983,-0.0212 0.4445,-0.0741 0.15874,-0.10584 0.25399,-0.27517 0.25399,-0.45508 0,-0.33867 -0.23283,-0.52917 -0.64558,-0.52917 z" />
        <path
           id="path3628"
           style="font-style:normal;font-variant:normal;font-weight:bold;font-stretch:normal;font-family:'Nimbus Mono L';-inkscape-font-specification:'Nimbus Mono L Bold';stroke-width:0.264583"
           d="m -758.70219,-514.22967 c 0,-0.48683 -0.15875,-0.69849 -0.508,-0.69849 -0.22225,0 -0.33867,0.0952 -0.40217,0.31749 -0.41275,-0.21166 -0.92074,-0.31749 -1.52399,-0.31749 -1.59808,0 -2.70933,1.05833 -2.70933,2.57174 0,0.64558 0.22225,1.20649 0.64558,1.62983 0.51859,0.50799 1.17475,0.73024 2.20133,0.73024 0.77258,0 1.44991,-0.127 1.88383,-0.33866 0.43391,-0.22225 0.67733,-0.49742 0.67733,-0.77258 0,-0.29634 -0.24342,-0.53975 -0.52917,-0.53975 -0.127,0 -0.22225,0.0423 -0.31749,0.127 -0.27517,0.22225 -0.32809,0.26458 -0.52917,0.32808 -0.254,0.0847 -0.68791,0.13758 -1.11125,0.13758 -1.23824,0 -1.86266,-0.43391 -1.86266,-1.30174 0,-0.40217 0.14817,-0.78317 0.42333,-1.05833 0.29634,-0.30692 0.68792,-0.45508 1.22767,-0.45508 0.46566,0 0.84666,0.0952 1.12183,0.26458 0.13758,0.0952 0.20108,0.1905 0.24341,0.381 0.0529,0.23283 0.0741,0.29633 0.15875,0.35983 0.0847,0.0847 0.24342,0.14816 0.381,0.14816 0.16933,0 0.32808,-0.0847 0.43392,-0.22224 0.0741,-0.0953 0.0953,-0.20109 0.0953,-0.47625 z" />
        <path
           id="path3630"
           style="font-style:normal;font-variant:normal;font-weight:bold;font-stretch:normal;font-family:'Nimbus Mono L';-inkscape-font-specification:'Nimbus Mono L Bold';stroke-width:0.264583"
           d="m -755.79592,-511.90134 0.1905,-0.14817 1.09008,0.96308 c -0.127,0.13759 -0.16933,0.24342 -0.16933,0.39159 0,0.34924 0.23283,0.52916 0.6985,0.52916 h 1.24883 c 0.23283,0 0.37041,-0.0212 0.45508,-0.0741 0.15875,-0.10584 0.254,-0.27517 0.254,-0.45508 0,-0.16934 -0.0847,-0.32809 -0.22225,-0.43392 -0.10584,-0.0741 -0.1905,-0.0953 -0.48683,-0.0953 h -0.34925 l -1.69333,-1.49225 1.24883,-1.01599 h 0.29633 c 0.24342,0 0.35983,-0.0212 0.4445,-0.0741 0.15875,-0.10583 0.254,-0.27516 0.254,-0.45508 0,-0.16933 -0.0741,-0.32808 -0.21167,-0.43391 -0.10583,-0.0741 -0.22225,-0.0952 -0.48683,-0.0952 h -1.18533 c -0.254,0 -0.37041,0.0212 -0.45508,0.0741 -0.15875,0.10583 -0.254,0.27517 -0.254,0.45508 0,0.14817 0.0423,0.24342 0.16933,0.39159 l -0.83608,0.66674 v -3.56657 h -1.22766 c -0.254,0 -0.34925,0.0106 -0.4445,0.0741 -0.15875,0.0952 -0.254,0.27517 -0.254,0.45509 0,0.16933 0.0847,0.32808 0.21167,0.43391 0.10583,0.0741 0.21166,0.0953 0.48683,0.0953 h 0.16933 v 4.48732 h -0.16933 c -0.26458,0 -0.34925,0.0106 -0.4445,0.0741 -0.15875,0.0952 -0.254,0.27517 -0.254,0.45509 0,0.34924 0.23283,0.52916 0.6985,0.52916 h 1.22766 z" />
        <path
           id="path3632"
           style="font-style:normal;font-variant:normal;font-weight:bold;font-stretch:normal;font-family:'Nimbus Mono L';-inkscape-font-specification:'Nimbus Mono L Bold';stroke-width:0.264583"
           d="m -747.61916,-510.16568 h 1.23824 c 0.22225,0 0.37042,-0.0212 0.4445,-0.0741 0.15875,-0.0953 0.254,-0.27517 0.254,-0.45508 0,-0.16934 -0.0847,-0.32809 -0.21166,-0.43392 -0.10584,-0.0741 -0.20109,-0.0953 -0.48684,-0.0953 h -0.16933 v -2.13783 c 0,-0.98424 -0.78316,-1.56632 -2.08491,-1.56632 -0.52916,0 -1.31233,0.13758 -1.82033,0.31749 -0.21166,0.0741 -0.3175,0.22225 -0.3175,0.4445 0,0.30692 0.22225,0.53975 0.51859,0.53975 0.0953,0 0.24341,-0.0212 0.42333,-0.0635 0.48683,-0.127 0.87841,-0.17991 1.22766,-0.17991 0.67733,0 0.98425,0.15874 0.98425,0.51858 v 0.24341 c -0.43392,-0.0741 -0.762,-0.10583 -1.10067,-0.10583 -0.94191,0 -1.67216,0.27517 -2.14841,0.80433 -0.25399,0.28575 -0.41274,0.65617 -0.41274,0.98425 0,0.78316 0.85724,1.42874 1.90499,1.42874 0.62441,0 1.24883,-0.14816 1.75683,-0.41275 z m 0.0106,-1.42875 c -0.58208,0.35984 -1.17475,0.53975 -1.74624,0.53975 -0.45509,0 -0.80433,-0.17991 -0.80433,-0.41275 0,-0.40216 0.65616,-0.77258 1.37582,-0.77258 0.35984,0 0.75142,0.0423 1.17475,0.11642 z" />
        <path
           id="path3634"
           style="font-style:normal;font-variant:normal;font-weight:bold;font-stretch:normal;font-family:'Nimbus Mono L';-inkscape-font-specification:'Nimbus Mono L Bold';stroke-width:0.264583"
           d="m -743.10423,-511.90134 0.1905,-0.14817 1.09008,0.96308 c -0.127,0.13759 -0.16933,0.24342 -0.16933,0.39159 0,0.34924 0.23283,0.52916 0.69849,0.52916 h 1.24883 c 0.23284,0 0.37042,-0.0212 0.45509,-0.0741 0.15875,-0.10584 0.254,-0.27517 0.254,-0.45508 0,-0.16934 -0.0847,-0.32809 -0.22225,-0.43392 -0.10584,-0.0741 -0.1905,-0.0953 -0.48684,-0.0953 h -0.34924 l -1.69333,-1.49225 1.24883,-1.01599 h 0.29633 c 0.24342,0 0.35983,-0.0212 0.4445,-0.0741 0.15875,-0.10583 0.254,-0.27516 0.254,-0.45508 0,-0.16933 -0.0741,-0.32808 -0.21167,-0.43391 -0.10583,-0.0741 -0.22225,-0.0952 -0.48683,-0.0952 h -1.18533 c -0.254,0 -0.37042,0.0212 -0.45508,0.0741 -0.15875,0.10583 -0.254,0.27517 -0.254,0.45508 0,0.14817 0.0423,0.24342 0.16933,0.39159 l -0.83608,0.66674 v -3.56657 h -1.22766 c -0.254,0 -0.34925,0.0106 -0.4445,0.0741 -0.15875,0.0952 -0.254,0.27517 -0.254,0.45509 0,0.16933 0.0847,0.32808 0.21167,0.43391 0.10583,0.0741 0.21166,0.0953 0.48683,0.0953 h 0.16933 v 4.48732 h -0.16933 c -0.26458,0 -0.34925,0.0106 -0.4445,0.0741 -0.15875,0.0952 -0.254,0.27517 -0.254,0.45509 0,0.34924 0.23283,0.52916 0.6985,0.52916 h 1.22766 z" />
        <path
           id="path3636"
           style="font-style:normal;font-variant:normal;font-weight:bold;font-stretch:normal;font-family:'Nimbus Mono L';-inkscape-font-specification:'Nimbus Mono L Bold';stroke-width:0.264583"
           d="m -733.63631,-514.79058 h -1.42874 c -0.254,0 -0.34925,0.0106 -0.4445,0.0741 -0.15875,0.0952 -0.254,0.27517 -0.254,0.45508 0,0.15875 0.0847,0.32809 0.22225,0.42334 0.0952,0.0847 0.21166,0.10583 0.47625,0.10583 h 0.37041 v 1.92616 c -0.55033,0.58208 -0.81491,0.71966 -1.34408,0.71966 -0.63499,0 -0.93133,-0.24341 -0.93133,-0.76199 v -2.94216 h -1.22766 c -0.26458,0 -0.34925,0.0106 -0.4445,0.0741 -0.15875,0.0952 -0.254,0.27517 -0.254,0.45508 0,0.30692 0.26458,0.55033 0.58208,0.52917 l 0.11642,-0.0106 h 0.16933 v 1.92617 c 0,0.62441 0.20109,1.07949 0.62442,1.39699 0.33866,0.254 0.78316,0.39158 1.25941,0.39158 0.58208,0 0.92075,-0.14816 1.44991,-0.64558 v 0.508 h 1.00542 c 0.22225,0 0.35983,-0.0212 0.44449,-0.0741 0.15875,-0.10584 0.254,-0.27517 0.254,-0.45508 0,-0.33867 -0.23283,-0.52917 -0.64558,-0.52917 z" />
        <path
           id="path3638"
           style="font-style:normal;font-variant:normal;font-weight:bold;font-stretch:normal;font-family:'Nimbus Mono L';-inkscape-font-specification:'Nimbus Mono L Bold';stroke-width:0.264583"
           d="m -730.84645,-516.76966 h -1.22766 c -0.254,0 -0.34925,0.0106 -0.4445,0.0741 -0.15875,0.0952 -0.254,0.27517 -0.254,0.45509 0,0.16933 0.0847,0.32808 0.21167,0.43391 0.10583,0.0741 0.21166,0.0953 0.48683,0.0953 h 0.16933 v 4.48732 h -0.16933 c -0.26458,0 -0.34925,0.0106 -0.4445,0.0741 -0.15875,0.0952 -0.254,0.27517 -0.254,0.45509 0,0.16933 0.0847,0.32808 0.21167,0.43391 0.0952,0.0635 0.23283,0.0952 0.48683,0.0952 h 1.22766 v -0.37042 c 0.55033,0.381 0.97367,0.51859 1.59808,0.51859 0.78316,0 1.37583,-0.22225 1.86266,-0.68792 0.48683,-0.47625 0.74083,-1.07949 0.74083,-1.76741 0,-0.6985 -0.254,-1.31233 -0.74083,-1.77799 -0.48683,-0.46567 -1.0795,-0.68792 -1.87324,-0.68792 -0.635,0 -1.13242,0.16933 -1.5875,0.52917 z m 1.57691,2.88924 c 0.508,0 0.84667,0.127 1.15358,0.42333 0.254,0.26459 0.41275,0.62442 0.41275,0.97367 0,0.35983 -0.14816,0.71966 -0.41275,0.98424 -0.29633,0.28575 -0.65616,0.42334 -1.15358,0.42334 -0.93133,0 -1.57691,-0.58209 -1.57691,-1.41817 0,-0.34924 0.14817,-0.69849 0.41275,-0.96308 0.29633,-0.29633 0.64558,-0.42333 1.16416,-0.42333 z" />
        <path
           id="path3640"
           style="font-style:normal;font-variant:normal;font-weight:bold;font-stretch:normal;font-family:'Nimbus Mono L';-inkscape-font-specification:'Nimbus Mono L Bold';stroke-width:0.264583"
           d="m -723.13536,-514.92816 c -1.56633,0 -2.76224,1.06891 -2.76224,2.4659 0,1.37583 1.20649,2.46591 2.73049,2.46591 1.52399,0 2.73049,-1.09008 2.73049,-2.46591 0,-1.36524 -1.2065,-2.4659 -2.69874,-2.4659 z m -0.0106,1.05833 c 0.92075,0 1.651,0.62441 1.651,1.40757 0,0.79375 -0.73025,1.40758 -1.67216,1.40758 -0.94192,0 -1.67216,-0.61383 -1.67216,-1.40758 0,-0.80433 0.73024,-1.40757 1.69332,-1.40757 z" />
      </g>
      <path
         d="m -720.32564,-510.098 c 0.34175,0 0.6096,-0.26787 0.6096,-0.6096 0,-0.34175 -0.26785,-0.6096 -0.6096,-0.6096 h -0.16625 c -0.33251,0 -0.60959,0.27709 -0.60959,0.6096 0,0.3325 0.27708,0.6096 0.60959,0.6096 z"
         style="font-style:normal;font-variant:normal;font-weight:bold;font-stretch:normal;font-family:'Nimbus Mono L';-inkscape-font-specification:'Nimbus Mono L Bold';stroke-width:0.230908"
         id="path3642" />
      <g
         id="g3659"
         transform="matrix(0.87272497,0,0,0.87272497,-96.206399,-65.002239)">
        <path
           id="path3644"
           style="font-style:normal;font-variant:normal;font-weight:bold;font-stretch:normal;font-family:'Nimbus Mono L';-inkscape-font-specification:'Nimbus Mono L Bold';stroke-width:0.264583"
           d="m -710.23201,-512.56809 1.397,-1.16416 c 0.35983,-0.0317 0.56092,-0.22225 0.56092,-0.52917 0,-0.16933 -0.0847,-0.32808 -0.22225,-0.43391 -0.10584,-0.0741 -0.21167,-0.0952 -0.48684,-0.0952 h -0.96308 c -0.0847,0 -0.0952,0 -0.22225,0.0212 -0.29633,0.0317 -0.47624,0.22225 -0.47624,0.51859 0,0.17991 0.0741,0.3175 0.27516,0.45508 l -0.64558,0.52916 -0.64558,-0.51858 c 0.17992,-0.11641 0.27517,-0.29633 0.27517,-0.48683 0,-0.15875 -0.0847,-0.3175 -0.21167,-0.41275 -0.10583,-0.0847 -0.21167,-0.10583 -0.48683,-0.10583 h -0.97367 c -0.0847,0 -0.0952,0 -0.22225,0.0212 -0.29633,0.0317 -0.47624,0.22225 -0.47624,0.508 0,0.30692 0.20108,0.49742 0.55033,0.52917 l 1.35466,1.15358 -1.53458,1.35466 c -0.35983,0.0212 -0.5715,0.21167 -0.5715,0.52917 0,0.34924 0.23284,0.52916 0.6985,0.52916 h 1.17475 c 0.46566,0 0.6985,-0.17992 0.6985,-0.53975 0,-0.254 -0.10584,-0.39158 -0.40217,-0.51858 l 0.77258,-0.64558 0.79375,0.64558 c -0.26458,0.0741 -0.42333,0.27517 -0.42333,0.51858 0,0.17992 0.0741,0.32808 0.21166,0.43392 0.10584,0.0741 0.23283,0.10583 0.49742,0.10583 h 1.18533 c 0.22225,0 0.35983,-0.0212 0.4445,-0.0741 0.14816,-0.0953 0.25399,-0.27517 0.25399,-0.45508 0,-0.3175 -0.21166,-0.508 -0.57149,-0.52917 z" />
        <path
           id="path3646"
           style="font-style:normal;font-variant:normal;font-weight:bold;font-stretch:normal;font-family:'Nimbus Mono L';-inkscape-font-specification:'Nimbus Mono L Bold';stroke-width:0.264583"
           d="m -705.27258,-510.19743 -0.58208,1.143 h -1.05833 c -0.254,0 -0.34925,0.0212 -0.4445,0.0741 -0.15875,0.0952 -0.254,0.27517 -0.254,0.45508 0,0.16933 0.0847,0.32808 0.22225,0.42333 0.0952,0.0847 0.21167,0.10584 0.47625,0.10584 h 2.27541 c 0.23283,0 0.35983,-0.0212 0.4445,-0.0741 0.15875,-0.10583 0.254,-0.27516 0.254,-0.45508 0,-0.16933 -0.0847,-0.32808 -0.21167,-0.43391 -0.10583,-0.0741 -0.21166,-0.0953 -0.48683,-0.0953 h -0.0529 l 2.43416,-4.67782 c 0.34925,-0.0317 0.55034,-0.22225 0.55034,-0.52917 0,-0.16933 -0.0741,-0.32808 -0.22225,-0.43391 -0.0952,-0.0741 -0.20109,-0.0952 -0.47625,-0.0952 h -0.97367 c -0.0847,0 -0.10583,0 -0.22225,0.0212 -0.30691,0.0317 -0.48683,0.22225 -0.48683,0.508 0,0.33867 0.24342,0.52917 0.67733,0.52917 l -1.26999,2.36007 -1.2065,-2.36007 c 0.40217,-0.0106 0.62442,-0.20108 0.62442,-0.52917 0,-0.16933 -0.0847,-0.32808 -0.21167,-0.43391 -0.10583,-0.0741 -0.21167,-0.0952 -0.48683,-0.0952 h -0.9525 c -0.0741,0 -0.0952,0 -0.21166,0.0212 -0.30692,0.0317 -0.48684,0.22225 -0.48684,0.508 0,0.29634 0.1905,0.48683 0.51859,0.52917 z" />
        <path
           id="path3648"
           style="font-style:normal;font-variant:normal;font-weight:bold;font-stretch:normal;font-family:'Nimbus Mono L';-inkscape-font-specification:'Nimbus Mono L Bold';stroke-width:0.264583"
           d="m -698.90556,-511.22401 2.77282,-2.70932 v -0.85725 h -4.32857 v 1.15358 c 0,0.24341 0.0212,0.34925 0.0741,0.4445 0.0953,0.15875 0.27516,0.254 0.45508,0.254 0.16933,0 0.32808,-0.0847 0.43391,-0.22225 0.0741,-0.10584 0.0952,-0.1905 0.0952,-0.47625 v -0.0953 h 1.57691 l -2.76224,2.68816 v 0.87841 h 4.59316 v -0.93133 c 0,-0.27517 -0.0106,-0.34925 -0.0741,-0.4445 -0.0952,-0.15875 -0.27516,-0.254 -0.45508,-0.254 -0.3175,0 -0.508,0.20108 -0.52916,0.5715 z" />
      </g>
    </g>
    <g
       id="g1753-3-2-6-78-0"
       transform="matrix(0.16874306,0,0,0.16874306,41.876397,99.299192)"
       style="display:inline;opacity:0.639">
      <path
         transform="matrix(1.6584864,0,0,2.7922108,36.372725,-158.75764)"
         inkscape:transform-center-y="-23.816963"
         inkscape:transform-center-x="-0.31343217"
         d="m 113.58185,76.098238 15.34098,25.916692 15.34098,25.91668 -30.115,0.32734 -30.115,0.32734 14.774017,-26.24403 z"
         inkscape:randomized="0"
         inkscape:rounded="0"
         inkscape:flatsided="false"
         sodipodi:arg2="-0.53446791"
         sodipodi:arg1="-1.5816655"
         sodipodi:r2="17.387934"
         sodipodi:r1="34.775864"
         sodipodi:cy="110.87205"
         sodipodi:cx="113.95982"
         sodipodi:sides="3"
         id="path1446-3-7-5-6-5-9-9-7"
         style="opacity:1;fill:#003a00;fill-opacity:1;stroke-width:0.264583"
         sodipodi:type="star" />
      <rect
         y="162.59433"
         x="220.28461"
         height="76.351196"
         width="11.339282"
         id="rect1497-3-6-6-2-15-7"
         style="opacity:1;fill:#000000;fill-opacity:1;stroke-width:0.264583" />
    </g>
    <g
       id="g1730-0-5-9-2-4-3"
       transform="matrix(0.1326837,0,0,0.1326837,32.258348,107.87579)"
       style="display:inline;opacity:0.639">
      <path
         sodipodi:arc-type="arc"
         transform="matrix(0.97084476,0.2397091,-0.22012928,0.97547071,0,0)"
         d="M -173.24782,215.75871 A 90.664459,83.138031 0 0 1 -164.1831,120.7496 90.664459,83.138031 0 0 1 -63.721023,96.065503 90.664459,83.138031 0 0 1 -4.0656357,174.1897"
         sodipodi:open="true"
         sodipodi:end="0"
         sodipodi:start="2.6179939"
         sodipodi:ry="83.138031"
         sodipodi:rx="90.664459"
         sodipodi:cy="174.1897"
         sodipodi:cx="-94.730095"
         sodipodi:type="arc"
         id="path1631-63-4-6-4-9-1"
         style="opacity:1;fill:#c95501;fill-opacity:1;stroke-width:0.335516" />
      <path
         sodipodi:nodetypes="ccccccccccccc"
         inkscape:connector-curvature="0"
         id="path1661-2-7-7-2-2-4"
         d="m -138.33929,106.5 7.55166,6.21924 2.14209,28.51264 23.12533,-21.83483 3.46664,4.48985 -24.94643,24.19048 0.75595,91.47024 h -15.875 l 2.26786,-77.10714 -27.97024,-15.11905 4.53571,-7.55953 23.43453,8.31548 z"
         style="fill:#000000;fill-opacity:1;stroke:#000000;stroke-width:0.264583px;stroke-linecap:butt;stroke-linejoin:miter;stroke-opacity:1" />
    </g>
    <g
       id="g1749-8-5-5-7"
       transform="matrix(0.24900864,0,0,0.24900864,13.68523,84.979281)"
       style="opacity:0.639269">
      <g
         style="fill:#003a00;fill-opacity:1"
         id="g1636-5-5-7-9">
        <path
           sodipodi:type="star"
           style="opacity:1;fill:#003a00;fill-opacity:1;stroke-width:0.264583"
           id="path1446-6-3-4-4"
           sodipodi:sides="3"
           sodipodi:cx="112.6369"
           sodipodi:cy="72.48214"
           sodipodi:r1="34.775864"
           sodipodi:r2="17.387932"
           sodipodi:arg1="-1.5816655"
           sodipodi:arg2="-0.53446791"
           inkscape:flatsided="false"
           inkscape:rounded="0"
           inkscape:randomized="0"
           d="m 112.25892,37.70833 15.34099,25.916689 15.34098,25.916687 -30.115,0.327338 -30.115002,0.327338 14.774019,-26.244026 z"
           inkscape:transform-center-x="-0.18898258"
           inkscape:transform-center-y="-7.0463439"
           transform="matrix(0.99998464,0,0,0.82608696,0.0017301,21.299041)" />
        <path
           sodipodi:type="star"
           style="opacity:1;fill:#003a00;fill-opacity:1;stroke-width:0.264583"
           id="path1446-3-1-3-9-3"
           sodipodi:sides="3"
           sodipodi:cx="113.95982"
           sodipodi:cy="110.87205"
           sodipodi:r1="34.775864"
           sodipodi:r2="17.387934"
           sodipodi:arg1="-1.5816655"
           sodipodi:arg2="-0.53446791"
           inkscape:flatsided="false"
           inkscape:rounded="0"
           inkscape:randomized="0"
           d="m 113.58185,76.098238 15.34098,25.916692 15.34098,25.91668 -30.115,0.32734 -30.115,0.32734 14.774017,-26.24403 z"
           inkscape:transform-center-x="-0.24710152"
           inkscape:transform-center-y="-10.986768"
           transform="matrix(1.3075018,0,0,1.2880474,-36.249538,-30.235376)" />
        <path
           sodipodi:type="star"
           style="opacity:1;fill:#003a00;fill-opacity:1;stroke-width:0.264583"
           id="path1446-3-7-1-6-9-8"
           sodipodi:sides="3"
           sodipodi:cx="113.95982"
           sodipodi:cy="110.87205"
           sodipodi:r1="34.775864"
           sodipodi:r2="17.387934"
           sodipodi:arg1="-1.5816655"
           sodipodi:arg2="-0.53446791"
           inkscape:flatsided="false"
           inkscape:rounded="0"
           inkscape:randomized="0"
           d="m 113.58185,76.098238 15.34098,25.916692 15.34098,25.91668 -30.115,0.32734 -30.115,0.32734 14.774017,-26.24403 z"
           inkscape:transform-center-x="-0.32181646"
           inkscape:transform-center-y="-13.566598"
           transform="matrix(1.7028612,0,0,1.5904972,-81.155189,-23.391154)" />
      </g>
      <rect
         y="142.9747"
         x="106.58929"
         height="76.351196"
         width="11.339282"
         id="rect1497-59-5-4-6"
         style="opacity:1;fill:#000000;fill-opacity:1;stroke-width:0.264583" />
    </g>
    <g
       transform="matrix(0.23730366,0,0,0.23730366,-117.74422,82.125983)"
       id="g1887-9-6-5-5-9"
       style="display:inline;opacity:0.639">
      <path
         sodipodi:arc-type="arc"
         transform="rotate(66.412037)"
         d="m 290.91601,-246.39526 a 67.619186,78.309975 0 0 1 -84.62873,2.13855 67.619186,78.309975 0 0 1 -20.11984,-95.2227 67.619186,78.309975 0 0 1 75.91926,-43.35849 67.619186,78.309975 0 0 1 52.98372,76.45371"
         sodipodi:open="true"
         sodipodi:end="0"
         sodipodi:start="0.87266463"
         sodipodi:ry="78.309975"
         sodipodi:rx="67.619186"
         sodipodi:cy="-306.38419"
         sodipodi:cx="247.45123"
         sodipodi:type="arc"
         id="path1684-0-0-4-1-9-7"
         style="opacity:1;fill:#eaa81b;fill-opacity:1;stroke-width:0.264583" />
      <path
         sodipodi:nodetypes="ccccccc"
         inkscape:connector-curvature="0"
         id="path1678-2-6-7-9-3-0"
         d="m 376.86409,36.555073 6.94902,4.276313 2.67269,106.373264 9.62171,91.40618 -22.45065,3.74178 -1.60361,-96.21704 z"
         style="fill:#000000;fill-opacity:1;stroke:#000000;stroke-width:0.264583px;stroke-linecap:butt;stroke-linejoin:miter;stroke-opacity:1" />
      <path
         inkscape:connector-curvature="0"
         id="path1686-3-6-4-2-5-46"
         d="m 383.81313,64.351104 30.4687,-22.985179 5.3454,2.672695 -36.34867,29.934187 z"
         style="fill:#000000;fill-opacity:1;stroke:#000000;stroke-width:0.264583px;stroke-linecap:butt;stroke-linejoin:miter;stroke-opacity:1" />
      <path
         inkscape:connector-curvature="0"
         id="path1688-7-8-4-2-7-7"
         d="m 384.8822,108.18331 55.59206,-48.108519 4.81084,4.810852 -61.47197,56.126597 z"
         style="fill:#000000;fill-opacity:1;stroke:#000000;stroke-width:0.264583px;stroke-linecap:butt;stroke-linejoin:miter;stroke-opacity:1" />
      <path
         inkscape:connector-curvature="0"
         id="path1690-5-5-6-6-0-2"
         d="m 386.48579,147.20465 64.67925,-31.00326 -2.13815,8.55263 -62.54107,36.34865 z"
         style="fill:#000000;fill-opacity:1;stroke:#000000;stroke-width:0.264583px;stroke-linecap:butt;stroke-linejoin:miter;stroke-opacity:1" />
      <path
         inkscape:connector-curvature="0"
         id="path1692-9-0-3-1-8-4"
         d="m 377.39865,54.194862 -19.77795,-11.759859 -5.87994,0.534539 32.07237,21.381562 z"
         style="fill:#000000;fill-opacity:1;stroke:#000000;stroke-width:0.264583px;stroke-linecap:butt;stroke-linejoin:miter;stroke-opacity:1" />
      <path
         inkscape:connector-curvature="0"
         id="path1694-2-9-9-0-1-0"
         d="m 374.64984,111.44075 -43.07431,-53.54307 -6.15348,4.059222 51.01425,62.821288 z"
         style="fill:#000000;fill-opacity:1;stroke:#000000;stroke-width:0.274233px;stroke-linecap:butt;stroke-linejoin:miter;stroke-opacity:1" />
      <path
         inkscape:connector-curvature="0"
         id="path1696-2-7-6-1-9-89"
         d="m 373.96256,147.45372 -69.54764,-43.65625 -0.37795,7.55953 69.7366,53.29464 z"
         style="fill:#000000;fill-opacity:1;stroke:#000000;stroke-width:0.264583px;stroke-linecap:butt;stroke-linejoin:miter;stroke-opacity:1" />
    </g>
    <g
       transform="matrix(0.08151171,0,0,0.08151171,26.183204,109.6963)"
       id="g1897-3-0-1-6-5-5"
       style="opacity:0.639269">
      <g
         id="g1946-9-9-3-3-1">
        <path
           sodipodi:arc-type="arc"
           style="opacity:1;fill:#7d0000;fill-opacity:1;stroke-width:0.264583"
           id="path1684-0-8-1-2-3-6-4-0"
           sodipodi:type="arc"
           sodipodi:cx="400.49106"
           sodipodi:cy="-331.94681"
           sodipodi:rx="67.619186"
           sodipodi:ry="78.309975"
           sodipodi:start="0.87266463"
           sodipodi:end="0"
           sodipodi:open="true"
           d="m 443.95583,-271.95789 a 67.619186,78.309975 0 0 1 -84.62872,2.13856 67.619186,78.309975 0 0 1 -20.11985,-95.2227 67.619186,78.309975 0 0 1 75.91927,-43.35849 67.619186,78.309975 0 0 1 52.98371,76.45371"
           transform="rotate(66.412036)" />
        <path
           style="fill:#000000;fill-opacity:1;stroke:#000000;stroke-width:0.264583px;stroke-linecap:butt;stroke-linejoin:miter;stroke-opacity:1"
           d="m 461.53077,166.57888 6.94901,4.27631 2.6727,106.37327 9.62171,91.40618 -22.45065,3.74178 -1.60361,-96.21704 z"
           id="path1678-2-9-9-5-6-5-9-9"
           inkscape:connector-curvature="0"
           sodipodi:nodetypes="ccccccc" />
        <path
           style="fill:#000000;fill-opacity:1;stroke:#000000;stroke-width:0.264583px;stroke-linecap:butt;stroke-linejoin:miter;stroke-opacity:1"
           d="m 468.47981,194.37491 30.4687,-22.98518 5.3454,2.6727 -36.34867,29.93419 z"
           id="path1686-3-7-4-4-7-9-0-6"
           inkscape:connector-curvature="0" />
        <path
           style="fill:#000000;fill-opacity:1;stroke:#000000;stroke-width:0.264583px;stroke-linecap:butt;stroke-linejoin:miter;stroke-opacity:1"
           d="m 469.54888,238.20712 55.59206,-48.10852 4.81084,4.81085 -61.47197,56.1266 z"
           id="path1688-7-3-7-0-2-3-2-3"
           inkscape:connector-curvature="0" />
        <path
           style="fill:#000000;fill-opacity:1;stroke:#000000;stroke-width:0.264583px;stroke-linecap:butt;stroke-linejoin:miter;stroke-opacity:1"
           d="m 471.15247,277.22846 64.67925,-31.00326 -2.13815,8.55263 -62.54108,36.34865 z"
           id="path1690-5-6-8-5-4-3-0-2"
           inkscape:connector-curvature="0" />
        <path
           style="fill:#000000;fill-opacity:1;stroke:#000000;stroke-width:0.264583px;stroke-linecap:butt;stroke-linejoin:miter;stroke-opacity:1"
           d="m 462.06532,184.21867 -19.77794,-11.75986 -5.87994,0.53454 32.07237,21.38156 z"
           id="path1692-9-1-4-9-4-0-1-4"
           inkscape:connector-curvature="0" />
        <path
           style="fill:#000000;fill-opacity:1;stroke:#000000;stroke-width:0.274233px;stroke-linecap:butt;stroke-linejoin:miter;stroke-opacity:1"
           d="m 459.31652,241.46456 -43.07431,-53.54307 -6.15348,4.05922 51.01425,62.82129 z"
           id="path1694-2-2-5-4-1-6-9-5"
           inkscape:connector-curvature="0" />
        <path
           style="fill:#000000;fill-opacity:1;stroke:#000000;stroke-width:0.264583px;stroke-linecap:butt;stroke-linejoin:miter;stroke-opacity:1"
           d="m 458.62924,277.47753 -69.54765,-43.65625 -0.37795,7.55953 69.7366,53.29464 z"
           id="path1696-2-9-0-6-9-8-6-03"
           inkscape:connector-curvature="0" />
      </g>
    </g>
    <g
       id="g1742-5-7-5-2-9"
       transform="matrix(0.12419987,0,0,0.12419987,-9.0598616,110.11563)"
       style="opacity:0.639269">
      <rect
         y="65.842766"
         x="16.090687"
         height="172.03369"
         width="11.339282"
         id="rect1497-5-4-7-6-1-10"
         style="opacity:1;fill:#000000;fill-opacity:1;stroke-width:0.397156" />
      <g
         transform="matrix(1,0,0,0.94041768,0,3.2716042)"
         id="g1579-7-6-9-2-8">
        <rect
           style="opacity:1;fill:#000000;fill-opacity:1;stroke-width:0.264583"
           id="rect1551-65-7-2-0-3"
           width="8.0180855"
           height="57.195675"
           x="6.2100463"
           y="-119.7988"
           transform="rotate(151.41363)" />
        <rect
           style="opacity:1;fill:#000000;fill-opacity:1;stroke-width:0.264583"
           id="rect1551-6-6-3-5-7-6"
           width="8.0180855"
           height="57.195679"
           x="-50.597466"
           y="-97.546921"
           transform="rotate(-154.06684)" />
      </g>
      <g
         id="g1579-2-9-6-1-3-1"
         transform="matrix(1.2285214,0,0,1.0463418,-6.7669122,42.01555)">
        <rect
           style="opacity:1;fill:#000000;fill-opacity:1;stroke-width:0.264583"
           id="rect1551-9-3-5-6-1-1"
           width="8.0180855"
           height="57.195675"
           x="6.2100463"
           y="-119.7988"
           transform="rotate(151.41363)" />
        <rect
           style="opacity:1;fill:#000000;fill-opacity:1;stroke-width:0.264583"
           id="rect1551-6-1-7-6-0-1-3"
           width="8.0180855"
           height="57.195679"
           x="-50.597466"
           y="-97.546921"
           transform="rotate(-154.06684)" />
      </g>
      <g
         id="g1579-2-2-4-3-4-9-3"
         transform="matrix(1.5376974,0,0,1.231709,-15.354463,75.144092)">
        <rect
           style="opacity:1;fill:#000000;fill-opacity:1;stroke-width:0.264583"
           id="rect1551-9-7-5-9-3-0-0"
           width="8.0180855"
           height="57.195675"
           x="6.2100463"
           y="-119.7988"
           transform="rotate(151.41363)" />
        <rect
           style="opacity:1;fill:#000000;fill-opacity:1;stroke-width:0.264583"
           id="rect1551-6-1-0-2-4-1-5-3"
           width="8.0180855"
           height="57.195679"
           x="-50.597466"
           y="-97.546921"
           transform="rotate(-154.06684)" />
      </g>
    </g>
  </g>
</svg>
