<?xml version="1.0" encoding="UTF-8" standalone="no"?>
<svg
   xmlns:dc="http://purl.org/dc/elements/1.1/"
   xmlns:cc="http://creativecommons.org/ns#"
   xmlns:rdf="http://www.w3.org/1999/02/22-rdf-syntax-ns#"
   xmlns:svg="http://www.w3.org/2000/svg"
   xmlns="http://www.w3.org/2000/svg"
   xmlns:sodipodi="http://sodipodi.sourceforge.net/DTD/sodipodi-0.dtd"
   xmlns:inkscape="http://www.inkscape.org/namespaces/inkscape"
   sodipodi:docname="deniska.svg"
   inkscape:version="1.0 (4035a4fb49, 2020-05-01)"
   id="svg4866"
   version="1.1"
   viewBox="0 0 90 50"
   height="50mm"
   width="90mm">
  <defs
     id="defs4860" />
  <sodipodi:namedview
     inkscape:window-maximized="0"
     inkscape:window-y="198"
     inkscape:window-x="0"
     inkscape:window-height="855"
     inkscape:window-width="1920"
     showgrid="false"
     inkscape:document-rotation="0"
     inkscape:current-layer="layer1"
     inkscape:document-units="mm"
     inkscape:cy="87.128751"
     inkscape:cx="-0.30294019"
     inkscape:zoom="1.82786"
     inkscape:pageshadow="2"
     inkscape:pageopacity="0.0"
     borderopacity="1.0"
     bordercolor="#666666"
     pagecolor="#ffffff"
     id="base" />
  <metadata
     id="metadata4863">
    <rdf:RDF>
      <cc:Work
         rdf:about="">
        <dc:format>image/svg+xml</dc:format>
        <dc:type
           rdf:resource="http://purl.org/dc/dcmitype/StillImage" />
        <dc:title />
      </cc:Work>
    </rdf:RDF>
  </metadata>
  <g
     id="g1730-06-89"
     transform="matrix(0.12205061,0,0,0.12205061,33.371965,16.106075)"
     style="opacity:0.639">
    <path
       sodipodi:arc-type="arc"
       transform="matrix(0.97084476,0.2397091,-0.22012928,0.97547071,0,0)"
       d="M -173.24782,215.75871 A 90.664459,83.138031 0 0 1 -164.1831,120.7496 90.664459,83.138031 0 0 1 -63.721023,96.065503 90.664459,83.138031 0 0 1 -4.0656357,174.1897"
       sodipodi:open="true"
       sodipodi:end="0"
       sodipodi:start="2.6179939"
       sodipodi:ry="83.138031"
       sodipodi:rx="90.664459"
       sodipodi:cy="174.1897"
       sodipodi:cx="-94.730095"
       sodipodi:type="arc"
       id="path1631-1-2"
       style="opacity:1;fill:#7d0000;fill-opacity:1;stroke-width:0.335516" />
    <path
       sodipodi:nodetypes="ccccccccccccc"
       inkscape:connector-curvature="0"
       id="path1661-5-6"
       d="m -138.33929,106.5 7.55166,6.21924 2.14209,28.51264 23.12533,-21.83483 3.46664,4.48985 -24.94643,24.19048 0.75595,91.47024 h -15.875 l 2.26786,-77.10714 -27.97024,-15.11905 4.53571,-7.55953 23.43453,8.31548 z"
       style="fill:#000000;fill-opacity:1;stroke:#000000;stroke-width:0.264583px;stroke-linecap:butt;stroke-linejoin:miter;stroke-opacity:1" />
  </g>
  <g
     id="layer1"
     inkscape:groupmode="layer"
     inkscape:label="Layer 1">
    <text
       id="text8026-6-3-6"
       y="27.776464"
       x="-33.474846"
       style="font-style:normal;font-variant:normal;font-weight:bold;font-stretch:normal;font-size:6.16123px;line-height:1.25;font-family:sans-serif;-inkscape-font-specification:'sans-serif Bold';letter-spacing:0px;word-spacing:0px;fill:#000000;fill-opacity:1;stroke:none;stroke-width:0.154031"
       xml:space="preserve"><tspan
         style="font-style:normal;font-variant:normal;font-weight:normal;font-stretch:normal;font-size:14.787px;font-family:'Jaapokki subtract';-inkscape-font-specification:'Jaapokki subtract';stroke-width:0.154031"
         y="27.776464"
         x="-33.474846"
         id="tspan8024-6-5-7"
         sodipodi:role="line" /></text>
    <g
       style="font-size:25.4px;line-height:1.25;font-family:sans-serif;stroke-width:0.264583"
       id="text3052-2-5"
       aria-label="DENISKA">
      <path
         id="path13933"
         style="font-style:normal;font-variant:normal;font-weight:normal;font-stretch:normal;font-size:16.9333px;font-family:'Jaapokki subtract';-inkscape-font-specification:'Jaapokki subtract';stroke-width:0.264583"
         d="m 9.846557,19.031011 v 11.85331 h 0.965198 v 0.01693 h 2.387595 c 0.795866,0 1.574797,-0.1524 2.302929,-0.474133 0.711199,-0.287866 1.337731,-0.728132 1.879597,-1.269997 0.558798,-0.541866 0.982131,-1.168398 1.269997,-1.879597 0.321733,-0.728131 0.474132,-1.507063 0.474132,-2.319862 0,-0.795865 -0.152399,-1.574797 -0.474132,-2.302928 -0.287866,-0.711199 -0.711199,-1.337731 -1.269997,-1.89653 C 16.84001,20.216342 16.213478,19.79301 15.502279,19.48821 14.774147,19.183411 13.995216,19.031011 13.19935,19.031011 Z m 2.370662,9.499582 v -7.12892 h 0.982131 c 1.964263,0 3.555993,1.591731 3.555993,3.555993 0,1.964263 -1.59173,3.572927 -3.555993,3.572927 z" />
      <path
         id="path13935"
         style="font-style:normal;font-variant:normal;font-weight:normal;font-stretch:normal;font-size:16.9333px;font-family:'Jaapokki subtract';-inkscape-font-specification:'Jaapokki subtract';stroke-width:0.264583"
         d="m 28.896504,19.031011 h -7.907851 v 2.370662 h 7.907851 z m -7.907851,6.942653 h 6.553187 v -2.370662 h -6.553187 z m 0,4.927591 h 7.857051 v -2.370662 h -7.857051 z" />
      <path
         id="path13937"
         style="font-style:normal;font-variant:normal;font-weight:normal;font-stretch:normal;font-size:16.9333px;font-family:'Jaapokki subtract';-inkscape-font-specification:'Jaapokki subtract';stroke-width:0.264583"
         d="m 40.140185,30.901255 -6.67172,-6.92572 v 6.92572 H 31.097803 V 19.031011 h 0.745065 l 6.553187,6.637854 v -6.637854 h 2.370662 v 11.870244 z" />
      <path
         id="path13939"
         style="font-style:normal;font-variant:normal;font-weight:normal;font-stretch:normal;font-size:16.9333px;font-family:'Jaapokki subtract';-inkscape-font-specification:'Jaapokki subtract';stroke-width:0.264583"
         d="m 42.968017,30.884321 v -11.85331 h 2.370662 v 11.85331 z" />
      <path
         id="path13941"
         style="font-style:normal;font-variant:normal;font-weight:normal;font-stretch:normal;font-size:16.9333px;font-family:'Jaapokki subtract';-inkscape-font-specification:'Jaapokki subtract';stroke-width:0.264583"
         d="m 51.400777,25.888998 0.0508,0.01693 c 1.236131,0.423333 1.964263,1.015998 1.964263,1.659464 0,0.304799 -0.321733,1.202264 -1.303864,1.202264 -0.524932,0 -1.930396,0 -3.18346,-1.337731 l -1.727197,1.625597 c 0.812798,0.863598 1.761063,1.456264 2.827861,1.79493 0.846665,0.253999 1.557864,0.287866 2.082796,0.287866 1.066798,0 2.031996,-0.440266 2.726261,-1.219198 0.592666,-0.660398 0.948265,-1.523997 0.948265,-2.353728 0,-0.846665 -0.321733,-1.642531 -0.931331,-2.319863 -0.609599,-0.660398 -1.490131,-1.185331 -2.624662,-1.574796 -0.1016,-0.03387 -0.203199,-0.06773 -0.338666,-0.1016 -1.083731,-0.270933 -1.507064,-0.609599 -1.523997,-1.219198 -0.01693,-0.389466 0.1016,-0.575732 0.2032,-0.677332 0.304799,-0.321733 0.897465,-0.440266 1.049864,-0.440266 1.032932,0 1.523997,0.321733 2.285996,0.812799 l 0.423332,0.270933 1.236131,-2.015063 -0.389466,-0.254 c -0.863598,-0.558799 -1.828796,-1.185331 -3.555993,-1.185331 -0.609598,0 -1.879596,0.254 -2.760128,1.168398 -0.609598,0.643465 -0.914398,1.473197 -0.863598,2.421462 0.0508,1.134531 0.575732,2.048929 1.523997,2.675461 0.677332,0.457199 1.405464,0.643466 1.79493,0.745066 z" />
      <path
         id="path13943"
         style="font-style:normal;font-variant:normal;font-weight:normal;font-stretch:normal;font-size:16.9333px;font-family:'Jaapokki subtract';-inkscape-font-specification:'Jaapokki subtract';stroke-width:0.264583"
         d="m 63.965256,30.884321 h 2.827861 l -4.250258,-7.213585 4.148658,-4.639725 h -3.200393 l -3.471327,3.826926 v -3.826926 h -2.370662 v 11.85331 h 2.370662 v -4.487324 l 0.914398,-0.931332 z" />
      <path
         id="path13945"
         style="font-style:normal;font-variant:normal;font-weight:normal;font-stretch:normal;font-size:16.9333px;font-family:'Jaapokki subtract';-inkscape-font-specification:'Jaapokki subtract';stroke-width:0.264583"
         d="m 73.854255,19.031011 -6.045188,11.870244 h 2.658528 l 3.674526,-7.213586 3.38666,7.213586 h 2.624661 L 74.54852,19.031011 Z" />
    </g>
  </g>
</svg>
