<?xml version="1.0" encoding="UTF-8" standalone="no"?>
<svg
   xmlns:dc="http://purl.org/dc/elements/1.1/"
   xmlns:cc="http://creativecommons.org/ns#"
   xmlns:rdf="http://www.w3.org/1999/02/22-rdf-syntax-ns#"
   xmlns:svg="http://www.w3.org/2000/svg"
   xmlns="http://www.w3.org/2000/svg"
   xmlns:sodipodi="http://sodipodi.sourceforge.net/DTD/sodipodi-0.dtd"
   xmlns:inkscape="http://www.inkscape.org/namespaces/inkscape"
   sodipodi:docname="jozko.svg"
   inkscape:version="1.0 (4035a4fb49, 2020-05-01)"
   id="svg4866"
   version="1.1"
   viewBox="0 0 90 50"
   height="50mm"
   width="90mm">
  <defs
     id="defs4860" />
  <sodipodi:namedview
     inkscape:window-maximized="0"
     inkscape:window-y="0"
     inkscape:window-x="0"
     inkscape:window-height="1053"
     inkscape:window-width="1920"
     showgrid="false"
     inkscape:document-rotation="0"
     inkscape:current-layer="layer1"
     inkscape:document-units="mm"
     inkscape:cy="47.177366"
     inkscape:cx="72.49614"
     inkscape:zoom="1.9639576"
     inkscape:pageshadow="2"
     inkscape:pageopacity="0.0"
     borderopacity="1.0"
     bordercolor="#666666"
     pagecolor="#ffffff"
     id="base"
     inkscape:snap-bbox="false" />
  <metadata
     id="metadata4863">
    <rdf:RDF>
      <cc:Work
         rdf:about="">
        <dc:format>image/svg+xml</dc:format>
        <dc:type
           rdf:resource="http://purl.org/dc/dcmitype/StillImage" />
        <dc:title />
      </cc:Work>
    </rdf:RDF>
  </metadata>
  <g
     id="layer1"
     inkscape:groupmode="layer"
     inkscape:label="Layer 1">
    <g
       style="opacity:0.639"
       transform="matrix(0.11995102,0,0,0.11995102,83.494379,17.81854)"
       id="g1730-0-9">
      <path
         style="opacity:1;fill:#c95501;fill-opacity:1;stroke-width:0.335516"
         id="path1631-63-2"
         sodipodi:type="arc"
         sodipodi:cx="-94.730095"
         sodipodi:cy="174.1897"
         sodipodi:rx="90.664459"
         sodipodi:ry="83.138031"
         sodipodi:start="2.6179939"
         sodipodi:end="0"
         sodipodi:open="true"
         d="M -173.24782,215.75871 A 90.664459,83.138031 0 0 1 -164.1831,120.7496 90.664459,83.138031 0 0 1 -63.721023,96.065503 90.664459,83.138031 0 0 1 -4.0656357,174.1897"
         transform="matrix(0.97084476,0.2397091,-0.22012928,0.97547071,0,0)"
         sodipodi:arc-type="arc" />
      <path
         style="fill:#000000;fill-opacity:1;stroke:#000000;stroke-width:0.264583px;stroke-linecap:butt;stroke-linejoin:miter;stroke-opacity:1"
         d="m -138.33929,106.5 7.55166,6.21924 2.14209,28.51264 23.12533,-21.83483 3.46664,4.48985 -24.94643,24.19048 0.75595,91.47024 h -15.875 l 2.26786,-77.10714 -27.97024,-15.11905 4.53571,-7.55953 23.43453,8.31548 z"
         id="path1661-2-06"
         inkscape:connector-curvature="0"
         sodipodi:nodetypes="ccccccccccccc" />
    </g>
    <g
       id="g8950"
       transform="matrix(0.50362313,0,0,0.50362313,20.485545,8.0699402)"
       style="opacity:1" />
    <text
       id="text8026-6-3-6"
       y="27.776464"
       x="-33.474846"
       style="font-style:normal;font-variant:normal;font-weight:bold;font-stretch:normal;font-size:6.16123px;line-height:1.25;font-family:sans-serif;-inkscape-font-specification:'sans-serif Bold';letter-spacing:0px;word-spacing:0px;fill:#000000;fill-opacity:1;stroke:none;stroke-width:0.154031"
       xml:space="preserve"><tspan
         style="font-style:normal;font-variant:normal;font-weight:normal;font-stretch:normal;font-size:14.787px;font-family:'Jaapokki subtract';-inkscape-font-specification:'Jaapokki subtract';stroke-width:0.154031"
         y="27.776464"
         x="-33.474846"
         id="tspan8024-6-5-7"
         sodipodi:role="line" /></text>
    <g
       aria-label="JOŽKO"
       id="text3052-2-82"
       style="font-style:normal;font-variant:normal;font-weight:bold;font-stretch:normal;font-size:16.9333px;line-height:1.25;font-family:'Jaapokki subtract';-inkscape-font-specification:'Jaapokki subtract, Bold';font-variant-ligatures:normal;font-variant-caps:normal;font-variant-numeric:normal;font-variant-east-asian:normal;stroke-width:0.264583">
      <path
         d="m 19.515448,20.969875 -0.0508,2.150529 h 2.506129 v 5.808122 h -0.0508 v 0.01693 c 0,0.4064 -0.1524,0.778932 -0.440266,1.066798 -0.287866,0.287866 -0.660399,0.457199 -1.066798,0.457199 -0.406399,0 -0.795865,-0.169333 -1.083731,-0.457199 -0.287866,-0.287866 -0.440266,-0.660398 -0.440266,-1.066798 v -0.01693 h -2.370662 v 0.01693 c 0,2.15053 1.74413,3.894659 3.894659,3.894659 2.133596,0 3.877726,-1.744129 3.877726,-3.894659 v -0.01693 h 0.01693 v -7.958651 z"
         style="font-style:normal;font-variant:normal;font-weight:bold;font-stretch:normal;font-size:16.9333px;font-family:'Jaapokki subtract';-inkscape-font-specification:'Jaapokki subtract, Bold';font-variant-ligatures:normal;font-variant-caps:normal;font-variant-numeric:normal;font-variant-east-asian:normal;stroke-width:0.264583"
         id="path22504" />
      <path
         d="m 32.232326,20.749742 c -3.38666,0 -6.146788,2.760128 -6.146788,6.146788 0,3.38666 2.760128,6.146788 6.146788,6.146788 3.38666,0 6.146788,-2.760128 6.146788,-6.146788 0,-3.38666 -2.760128,-6.146788 -6.146788,-6.146788 z m 0,2.438395 c 2.048929,0 3.708392,1.659464 3.708392,3.708393 0,2.048929 -1.659463,3.708393 -3.708392,3.708393 -2.04893,0 -3.708393,-1.659464 -3.708393,-3.708393 0,-2.048929 1.659463,-3.708393 3.708393,-3.708393 z"
         style="font-style:normal;font-variant:normal;font-weight:bold;font-stretch:normal;font-size:16.9333px;font-family:'Jaapokki subtract';-inkscape-font-specification:'Jaapokki subtract, Bold';font-variant-ligatures:normal;font-variant-caps:normal;font-variant-numeric:normal;font-variant-east-asian:normal;stroke-width:0.264583"
         id="path22506" />
      <path
         d="m 48.047977,18.345214 -1.439331,-1.388531 -1.896529,1.79493 -1.89653,-1.79493 -1.43933,1.388531 2.844794,1.659463 h 0.982131 z m -8.991583,14.494904 v -0.677332 l 6.553188,-8.974649 h -5.48639 v -2.218262 h 9.719715 v 0.694265 l -6.570121,8.974649 h 6.197588 v 2.201329 z"
         style="font-style:normal;font-variant:normal;font-weight:bold;font-stretch:normal;font-size:16.9333px;font-family:'Jaapokki subtract';-inkscape-font-specification:'Jaapokki subtract, Bold';font-variant-ligatures:normal;font-variant-caps:normal;font-variant-numeric:normal;font-variant-east-asian:normal;stroke-width:0.264583"
         id="path22508" />
      <path
         d="m 58.02168,32.823185 h 2.827861 l -4.250258,-7.213586 4.148658,-4.639724 h -3.200393 l -3.471327,3.826926 v -3.826926 h -2.370662 v 11.85331 h 2.370662 v -4.487324 l 0.914398,-0.931332 z"
         style="font-style:normal;font-variant:normal;font-weight:bold;font-stretch:normal;font-size:16.9333px;font-family:'Jaapokki subtract';-inkscape-font-specification:'Jaapokki subtract, Bold';font-variant-ligatures:normal;font-variant-caps:normal;font-variant-numeric:normal;font-variant-east-asian:normal;stroke-width:0.264583"
         id="path22510" />
      <path
         d="m 67.334957,20.749742 c -3.38666,0 -6.146788,2.760128 -6.146788,6.146788 0,3.38666 2.760128,6.146788 6.146788,6.146788 3.38666,0 6.146788,-2.760128 6.146788,-6.146788 0,-3.38666 -2.760128,-6.146788 -6.146788,-6.146788 z m 0,2.438395 c 2.04893,0 3.708393,1.659464 3.708393,3.708393 0,2.048929 -1.659463,3.708393 -3.708393,3.708393 -2.048929,0 -3.708392,-1.659464 -3.708392,-3.708393 0,-2.048929 1.659463,-3.708393 3.708392,-3.708393 z"
         style="font-style:normal;font-variant:normal;font-weight:bold;font-stretch:normal;font-size:16.9333px;font-family:'Jaapokki subtract';-inkscape-font-specification:'Jaapokki subtract, Bold';font-variant-ligatures:normal;font-variant-caps:normal;font-variant-numeric:normal;font-variant-east-asian:normal;stroke-width:0.264583"
         id="path22512" />
    </g>
  </g>
</svg>
