<?xml version="1.0" encoding="UTF-8" standalone="no"?>
<svg
   xmlns:dc="http://purl.org/dc/elements/1.1/"
   xmlns:cc="http://creativecommons.org/ns#"
   xmlns:rdf="http://www.w3.org/1999/02/22-rdf-syntax-ns#"
   xmlns:svg="http://www.w3.org/2000/svg"
   xmlns="http://www.w3.org/2000/svg"
   xmlns:sodipodi="http://sodipodi.sourceforge.net/DTD/sodipodi-0.dtd"
   xmlns:inkscape="http://www.inkscape.org/namespaces/inkscape"
   width="90mm"
   height="50mm"
   viewBox="0 0 90 50"
   version="1.1"
   id="svg4866"
   inkscape:version="1.0 (4035a4fb49, 2020-05-01)"
   sodipodi:docname="lujza.svg">
  <defs
     id="defs4860" />
  <sodipodi:namedview
     inkscape:snap-bbox="false"
     id="base"
     pagecolor="#ffffff"
     bordercolor="#666666"
     borderopacity="1.0"
     inkscape:pageopacity="0.0"
     inkscape:pageshadow="2"
     inkscape:zoom="2.9004887"
     inkscape:cx="8.9779812"
     inkscape:cy="78.861659"
     inkscape:document-units="mm"
     inkscape:current-layer="layer1"
     inkscape:document-rotation="0"
     showgrid="false"
     inkscape:window-width="1920"
     inkscape:window-height="855"
     inkscape:window-x="0"
     inkscape:window-y="198"
     inkscape:window-maximized="0" />
  <metadata
     id="metadata4863">
    <rdf:RDF>
      <cc:Work
         rdf:about="">
        <dc:format>image/svg+xml</dc:format>
        <dc:type
           rdf:resource="http://purl.org/dc/dcmitype/StillImage" />
        <dc:title />
      </cc:Work>
    </rdf:RDF>
  </metadata>
  <g
     inkscape:label="Layer 1"
     inkscape:groupmode="layer"
     id="layer1">
    <g
       style="opacity:1"
       transform="matrix(0.50362313,0,0,0.50362313,20.485545,8.0699402)"
       id="g8950" />
    <text
       xml:space="preserve"
       style="font-style:normal;font-variant:normal;font-weight:bold;font-stretch:normal;font-size:6.16123px;line-height:1.25;font-family:sans-serif;-inkscape-font-specification:'sans-serif Bold';letter-spacing:0px;word-spacing:0px;fill:#000000;fill-opacity:1;stroke:none;stroke-width:0.154031"
       x="-33.474846"
       y="27.776464"
       id="text8026-6-3-6"><tspan
         sodipodi:role="line"
         id="tspan8024-6-5-7"
         x="-33.474846"
         y="27.776464"
         style="font-style:normal;font-variant:normal;font-weight:normal;font-stretch:normal;font-size:14.787px;font-family:'Jaapokki subtract';-inkscape-font-specification:'Jaapokki subtract';stroke-width:0.154031" /></text>
    <g
       style="font-style:normal;font-variant:normal;font-weight:bold;font-stretch:normal;font-size:16.9333px;line-height:1.25;font-family:'Jaapokki subtract';-inkscape-font-specification:'Jaapokki subtract, Bold';font-variant-ligatures:normal;font-variant-caps:normal;font-variant-numeric:normal;font-variant-east-asian:normal;stroke-width:0.264583"
       id="text3052-2-87"
       aria-label="LUJZA">
      <path
         id="path13200"
         style="font-style:normal;font-variant:normal;font-weight:bold;font-stretch:normal;font-size:16.9333px;font-family:'Jaapokki subtract';-inkscape-font-specification:'Jaapokki subtract, Bold';font-variant-ligatures:normal;font-variant-caps:normal;font-variant-numeric:normal;font-variant-east-asian:normal;stroke-width:0.264583"
         d="m 20.912424,18.963279 h -2.370662 v 11.85331 h 6.790253 v -2.353728 h -4.419591 z" />
      <path
         id="path13202"
         style="font-style:normal;font-variant:normal;font-weight:bold;font-stretch:normal;font-size:16.9333px;font-family:'Jaapokki subtract';-inkscape-font-specification:'Jaapokki subtract, Bold';font-variant-ligatures:normal;font-variant-caps:normal;font-variant-numeric:normal;font-variant-east-asian:normal;stroke-width:0.264583"
         d="m 36.457163,26.447798 v -7.484519 h -2.370662 v 7.501452 h 0.01693 c -0.01693,0.592666 -0.237067,1.134531 -0.660399,1.557864 -0.423333,0.423332 -0.965198,0.643465 -1.557864,0.643465 -0.592665,0 -1.151464,-0.220133 -1.574797,-0.643465 -0.423332,-0.423333 -0.660398,-0.982131 -0.660398,-1.574797 v -7.484519 h -2.370662 v 7.501452 c 0.01693,2.523062 2.065862,4.571991 4.605857,4.571991 2.523062,0 4.588925,-2.048929 4.588925,-4.588924 z" />
      <path
         id="path13204"
         style="font-style:normal;font-variant:normal;font-weight:bold;font-stretch:normal;font-size:16.9333px;font-family:'Jaapokki subtract';-inkscape-font-specification:'Jaapokki subtract, Bold';font-variant-ligatures:normal;font-variant-caps:normal;font-variant-numeric:normal;font-variant-east-asian:normal;stroke-width:0.264583"
         d="m 40.910615,18.963279 -0.0508,2.15053 h 2.506128 v 5.808121 h -0.0508 v 0.01693 c 0,0.406399 -0.152399,0.778932 -0.440266,1.066798 -0.287866,0.287866 -0.660398,0.457199 -1.066797,0.457199 -0.4064,0 -0.795866,-0.169333 -1.083732,-0.457199 -0.287866,-0.287866 -0.440265,-0.660399 -0.440265,-1.066798 v -0.01693 h -2.370662 v 0.01693 c 0,2.150529 1.744129,3.894659 3.894659,3.894659 2.133595,0 3.877725,-1.74413 3.877725,-3.894659 v -0.01693 h 0.01693 v -7.958651 z" />
      <path
         id="path13206"
         style="font-style:normal;font-variant:normal;font-weight:bold;font-stretch:normal;font-size:16.9333px;font-family:'Jaapokki subtract';-inkscape-font-specification:'Jaapokki subtract, Bold';font-variant-ligatures:normal;font-variant-caps:normal;font-variant-numeric:normal;font-variant-east-asian:normal;stroke-width:0.264583"
         d="m 47.480705,30.833523 v -0.677332 l 6.553187,-8.974649 h -5.486389 v -2.218263 h 9.719714 v 0.694266 l -6.57012,8.974649 h 6.197588 v 2.201329 z" />
      <path
         id="path13208"
         style="font-style:normal;font-variant:normal;font-weight:bold;font-stretch:normal;font-size:16.9333px;font-family:'Jaapokki subtract';-inkscape-font-specification:'Jaapokki subtract, Bold';font-variant-ligatures:normal;font-variant-caps:normal;font-variant-numeric:normal;font-variant-east-asian:normal;stroke-width:0.264583"
         d="m 65.159052,18.963279 -6.045188,11.870244 h 2.658528 l 3.674526,-7.213586 3.38666,7.213586 h 2.624661 L 65.853317,18.963279 Z" />
    </g>
    <g
       id="g1730-06-89"
       transform="matrix(0.0920166,0,0,0.0920166,57.303771,0.29653131)"
       style="opacity:0.639">
      <path
         sodipodi:arc-type="arc"
         transform="matrix(0.97084476,0.2397091,-0.22012928,0.97547071,0,0)"
         d="M -173.24782,215.75871 A 90.664459,83.138031 0 0 1 -164.1831,120.7496 90.664459,83.138031 0 0 1 -63.721023,96.065503 90.664459,83.138031 0 0 1 -4.0656357,174.1897"
         sodipodi:open="true"
         sodipodi:end="0"
         sodipodi:start="2.6179939"
         sodipodi:ry="83.138031"
         sodipodi:rx="90.664459"
         sodipodi:cy="174.1897"
         sodipodi:cx="-94.730095"
         sodipodi:type="arc"
         id="path1631-1-2"
         style="opacity:1;fill:#7d0000;fill-opacity:1;stroke-width:0.335516" />
      <path
         sodipodi:nodetypes="ccccccccccccc"
         inkscape:connector-curvature="0"
         id="path1661-5-6"
         d="m -138.33929,106.5 7.55166,6.21924 2.14209,28.51264 23.12533,-21.83483 3.46664,4.48985 -24.94643,24.19048 0.75595,91.47024 h -15.875 l 2.26786,-77.10714 -27.97024,-15.11905 4.53571,-7.55953 23.43453,8.31548 z"
         style="fill:#000000;fill-opacity:1;stroke:#000000;stroke-width:0.264583px;stroke-linecap:butt;stroke-linejoin:miter;stroke-opacity:1" />
    </g>
  </g>
</svg>
