<?xml version="1.0" encoding="UTF-8" standalone="no"?>
<svg
   xmlns:dc="http://purl.org/dc/elements/1.1/"
   xmlns:cc="http://creativecommons.org/ns#"
   xmlns:rdf="http://www.w3.org/1999/02/22-rdf-syntax-ns#"
   xmlns:svg="http://www.w3.org/2000/svg"
   xmlns="http://www.w3.org/2000/svg"
   xmlns:sodipodi="http://sodipodi.sourceforge.net/DTD/sodipodi-0.dtd"
   xmlns:inkscape="http://www.inkscape.org/namespaces/inkscape"
   sodipodi:docname="monika.svg"
   inkscape:version="1.0 (4035a4fb49, 2020-05-01)"
   id="svg4866"
   version="1.1"
   viewBox="0 0 90 50"
   height="50mm"
   width="90mm">
  <defs
     id="defs4860" />
  <sodipodi:namedview
     inkscape:window-maximized="0"
     inkscape:window-y="0"
     inkscape:window-x="0"
     inkscape:window-height="1053"
     inkscape:window-width="1920"
     showgrid="false"
     inkscape:document-rotation="0"
     inkscape:current-layer="layer1"
     inkscape:document-units="mm"
     inkscape:cy="47.177366"
     inkscape:cx="72.49614"
     inkscape:zoom="1.9639576"
     inkscape:pageshadow="2"
     inkscape:pageopacity="0.0"
     borderopacity="1.0"
     bordercolor="#666666"
     pagecolor="#ffffff"
     id="base"
     inkscape:snap-bbox="false" />
  <metadata
     id="metadata4863">
    <rdf:RDF>
      <cc:Work
         rdf:about="">
        <dc:format>image/svg+xml</dc:format>
        <dc:type
           rdf:resource="http://purl.org/dc/dcmitype/StillImage" />
        <dc:title></dc:title>
      </cc:Work>
    </rdf:RDF>
  </metadata>
  <g
     id="layer1"
     inkscape:groupmode="layer"
     inkscape:label="Layer 1">
    <g
       style="opacity:0.639"
       transform="matrix(0.11995102,0,0,0.11995102,40.468677,15.455498)"
       id="g1730-0-9">
      <path
         style="opacity:1;fill:#c95501;fill-opacity:1;stroke-width:0.335516"
         id="path1631-63-2"
         sodipodi:type="arc"
         sodipodi:cx="-94.730095"
         sodipodi:cy="174.1897"
         sodipodi:rx="90.664459"
         sodipodi:ry="83.138031"
         sodipodi:start="2.6179939"
         sodipodi:end="0"
         sodipodi:open="true"
         d="M -173.24782,215.75871 A 90.664459,83.138031 0 0 1 -164.1831,120.7496 90.664459,83.138031 0 0 1 -63.721023,96.065503 90.664459,83.138031 0 0 1 -4.0656357,174.1897"
         transform="matrix(0.97084476,0.2397091,-0.22012928,0.97547071,0,0)"
         sodipodi:arc-type="arc" />
      <path
         style="fill:#000000;fill-opacity:1;stroke:#000000;stroke-width:0.264583px;stroke-linecap:butt;stroke-linejoin:miter;stroke-opacity:1"
         d="m -138.33929,106.5 7.55166,6.21924 2.14209,28.51264 23.12533,-21.83483 3.46664,4.48985 -24.94643,24.19048 0.75595,91.47024 h -15.875 l 2.26786,-77.10714 -27.97024,-15.11905 4.53571,-7.55953 23.43453,8.31548 z"
         id="path1661-2-06"
         inkscape:connector-curvature="0"
         sodipodi:nodetypes="ccccccccccccc" />
    </g>
    <g
       id="g8950"
       transform="matrix(0.50362313,0,0,0.50362313,20.485545,8.0699402)"
       style="opacity:1" />
    <text
       id="text8026-6-3-6"
       y="27.776464"
       x="-33.474846"
       style="font-style:normal;font-variant:normal;font-weight:bold;font-stretch:normal;font-size:6.16123px;line-height:1.25;font-family:sans-serif;-inkscape-font-specification:'sans-serif Bold';letter-spacing:0px;word-spacing:0px;fill:#000000;fill-opacity:1;stroke:none;stroke-width:0.154031"
       xml:space="preserve"><tspan
         style="font-style:normal;font-variant:normal;font-weight:normal;font-stretch:normal;font-size:14.787px;font-family:'Jaapokki subtract';-inkscape-font-specification:'Jaapokki subtract';stroke-width:0.154031"
         y="27.776464"
         x="-33.474846"
         id="tspan8024-6-5-7"
         sodipodi:role="line" /></text>
    <g
       style="font-size:16.9333px;line-height:1.25;font-family:sans-serif;stroke-width:0.264583"
       id="text848"
       aria-label="MONIKA">
      <path
         id="path868"
         style="font-style:normal;font-variant:normal;font-weight:normal;font-stretch:normal;font-size:16.9333px;font-family:'Jaapokki subtract';-inkscape-font-specification:'Jaapokki subtract';stroke-width:0.264583"
         d="m 20.75159,30.943588 v -7.264385 l -3.403593,3.098793 -3.403594,-3.098793 v 7.264385 H 11.573741 V 19.073345 h 0.812799 l 4.961457,4.504258 4.944523,-4.504258 h 0.829732 v 11.870243 z" />
      <path
         id="path870"
         style="font-style:normal;font-variant:normal;font-weight:normal;font-stretch:normal;font-size:16.9333px;font-family:'Jaapokki subtract';-inkscape-font-specification:'Jaapokki subtract';stroke-width:0.264583"
         d="m 31.301008,18.853212 c -3.38666,0 -6.146788,2.760128 -6.146788,6.146788 0,3.38666 2.760128,6.146788 6.146788,6.146788 3.38666,0 6.146788,-2.760128 6.146788,-6.146788 0,-3.38666 -2.760128,-6.146788 -6.146788,-6.146788 z m 0,2.438395 c 2.04893,0 3.708393,1.659464 3.708393,3.708393 0,2.048929 -1.659463,3.708393 -3.708393,3.708393 -2.048929,0 -3.708392,-1.659464 -3.708392,-3.708393 0,-2.048929 1.659463,-3.708393 3.708392,-3.708393 z" />
      <path
         id="path872"
         style="font-style:normal;font-variant:normal;font-weight:normal;font-stretch:normal;font-size:16.9333px;font-family:'Jaapokki subtract';-inkscape-font-specification:'Jaapokki subtract';stroke-width:0.264583"
         d="m 48.522148,30.943588 -6.67172,-6.925719 v 6.925719 H 39.479766 V 19.073345 h 0.745065 l 6.553188,6.637854 v -6.637854 h 2.370662 v 11.870243 z" />
      <path
         id="path874"
         style="font-style:normal;font-variant:normal;font-weight:normal;font-stretch:normal;font-size:16.9333px;font-family:'Jaapokki subtract';-inkscape-font-specification:'Jaapokki subtract';stroke-width:0.264583"
         d="m 51.349983,30.926655 v -11.85331 h 2.370662 v 11.85331 z" />
      <path
         id="path876"
         style="font-style:normal;font-variant:normal;font-weight:normal;font-stretch:normal;font-size:16.9333px;font-family:'Jaapokki subtract';-inkscape-font-specification:'Jaapokki subtract';stroke-width:0.264583"
         d="m 62.238068,30.926655 h 2.827861 l -4.250258,-7.213586 4.148658,-4.639724 h -3.200394 l -3.471326,3.826926 v -3.826926 h -2.370662 v 11.85331 h 2.370662 V 26.43933 l 0.914398,-0.931331 z" />
      <path
         id="path878"
         style="font-style:normal;font-variant:normal;font-weight:normal;font-stretch:normal;font-size:16.9333px;font-family:'Jaapokki subtract';-inkscape-font-specification:'Jaapokki subtract';stroke-width:0.264583"
         d="m 72.12707,19.073345 -6.045188,11.870243 h 2.658528 l 3.674527,-7.213586 3.38666,7.213586 h 2.624661 L 72.821336,19.073345 Z" />
    </g>
  </g>
</svg>
