<?xml version="1.0" encoding="UTF-8" standalone="no"?>
<svg
   xmlns:dc="http://purl.org/dc/elements/1.1/"
   xmlns:cc="http://creativecommons.org/ns#"
   xmlns:rdf="http://www.w3.org/1999/02/22-rdf-syntax-ns#"
   xmlns:svg="http://www.w3.org/2000/svg"
   xmlns="http://www.w3.org/2000/svg"
   xmlns:sodipodi="http://sodipodi.sourceforge.net/DTD/sodipodi-0.dtd"
   xmlns:inkscape="http://www.inkscape.org/namespaces/inkscape"
   width="90mm"
   height="50mm"
   viewBox="0 0 90 50"
   version="1.1"
   id="svg4866"
   inkscape:version="1.0 (4035a4fb49, 2020-05-01)"
   sodipodi:docname="vlasto.svg">
  <defs
     id="defs4860" />
  <sodipodi:namedview
     inkscape:snap-bbox="false"
     id="base"
     pagecolor="#ffffff"
     bordercolor="#666666"
     borderopacity="1.0"
     inkscape:pageopacity="0.0"
     inkscape:pageshadow="2"
     inkscape:zoom="3.4335614"
     inkscape:cx="121.1446"
     inkscape:cy="69.03736"
     inkscape:document-units="mm"
     inkscape:current-layer="g1730-3-4"
     inkscape:document-rotation="0"
     showgrid="false"
     inkscape:window-width="1920"
     inkscape:window-height="1009"
     inkscape:window-x="0"
     inkscape:window-y="44"
     inkscape:window-maximized="0" />
  <metadata
     id="metadata4863">
    <rdf:RDF>
      <cc:Work
         rdf:about="">
        <dc:format>image/svg+xml</dc:format>
        <dc:type
           rdf:resource="http://purl.org/dc/dcmitype/StillImage" />
        <dc:title></dc:title>
      </cc:Work>
    </rdf:RDF>
  </metadata>
  <g
     inkscape:label="Layer 1"
     inkscape:groupmode="layer"
     id="layer1">
    <g
       id="g1730-3-4"
       transform="matrix(0.17961783,0,0,0.17961783,43.178389,1.033798)"
       style="opacity:1">
      <path
         sodipodi:arc-type="arc"
         transform="matrix(0.97084476,0.2397091,-0.22012928,0.97547071,0,0)"
         sodipodi:open="true"
         sodipodi:end="0"
         sodipodi:start="2.6179939"
         sodipodi:ry="83.138031"
         sodipodi:rx="90.664459"
         sodipodi:cy="171.03856"
         sodipodi:cx="-95.546638"
         sodipodi:type="arc"
         id="path1631-6-3"
         style="opacity:0.639;fill:#eaa81b;fill-opacity:1;stroke-width:0.335516"
         d="m -174.06436,212.60757 a 90.664459,83.138031 0 0 1 9.06472,-95.00911 90.664459,83.138031 0 0 1 100.462073,-24.684095 90.664459,83.138031 0 0 1 59.6553877,78.124195" />
      <path
         sodipodi:nodetypes="ccccccccccccc"
         inkscape:connector-curvature="0"
         id="path1661-1-14"
         d="m -139.09763,113.4921 7.55166,6.21924 2.14209,28.51264 23.12533,-21.83483 3.46664,4.48985 -24.94643,24.19048 0.75595,91.47024 h -15.875 l 2.26786,-77.10714 -27.97024,-15.11905 4.53571,-7.55953 23.43453,8.31548 z"
         style="opacity:0.639;fill:#000000;fill-opacity:1;stroke:#000000;stroke-width:0.264583px;stroke-linecap:butt;stroke-linejoin:miter;stroke-opacity:1" />
    </g>
    <text
       xml:space="preserve"
       style="font-style:normal;font-variant:normal;font-weight:bold;font-stretch:normal;font-size:6.16123px;line-height:1.25;font-family:sans-serif;-inkscape-font-specification:'sans-serif Bold';letter-spacing:0px;word-spacing:0px;fill:#000000;fill-opacity:1;stroke:none;stroke-width:0.154031"
       x="-33.474846"
       y="27.776464"
       id="text8026-6-3-6"><tspan
         sodipodi:role="line"
         id="tspan8024-6-5-7"
         x="-33.474846"
         y="27.776464"
         style="font-style:normal;font-variant:normal;font-weight:normal;font-stretch:normal;font-size:14.787px;font-family:'Jaapokki subtract';-inkscape-font-specification:'Jaapokki subtract';stroke-width:0.154031" /></text>
    <g
       style="font-style:normal;font-variant:normal;font-weight:bold;font-stretch:normal;font-size:16.9333px;line-height:1.25;font-family:'Jaapokki subtract';-inkscape-font-specification:'Jaapokki subtract, Bold';font-variant-ligatures:normal;font-variant-caps:normal;font-variant-numeric:normal;font-variant-east-asian:normal;stroke-width:0.264583"
       id="text3052-2-11"
       aria-label="VLASTO">
      <path
         id="path8665"
         style="font-style:normal;font-variant:normal;font-weight:bold;font-stretch:normal;font-size:16.9333px;font-family:'Jaapokki subtract';-inkscape-font-specification:'Jaapokki subtract, Bold';font-variant-ligatures:normal;font-variant-caps:normal;font-variant-numeric:normal;font-variant-east-asian:normal;stroke-width:0.264583"
         d="m 19.512226,30.793955 5.350922,-11.870243 h -2.624661 l -3.081861,6.739453 -3.098794,-6.739453 h -2.624661 l 5.367856,11.870243 z" />
      <path
         id="path8667"
         style="font-style:normal;font-variant:normal;font-weight:bold;font-stretch:normal;font-size:16.9333px;font-family:'Jaapokki subtract';-inkscape-font-specification:'Jaapokki subtract, Bold';font-variant-ligatures:normal;font-variant-caps:normal;font-variant-numeric:normal;font-variant-east-asian:normal;stroke-width:0.264583"
         d="m 29.181134,18.923712 h -2.370662 v 11.85331 h 6.790253 v -2.353729 h -4.419591 z" />
      <path
         id="path8669"
         style="font-style:normal;font-variant:normal;font-weight:bold;font-stretch:normal;font-size:16.9333px;font-family:'Jaapokki subtract';-inkscape-font-specification:'Jaapokki subtract, Bold';font-variant-ligatures:normal;font-variant-caps:normal;font-variant-numeric:normal;font-variant-east-asian:normal;stroke-width:0.264583"
         d="m 41.00054,18.923712 -6.045188,11.870243 h 2.658528 l 3.674526,-7.213586 3.38666,7.213586 h 2.624661 L 41.694805,18.923712 Z" />
      <path
         id="path8671"
         style="font-style:normal;font-variant:normal;font-weight:bold;font-stretch:normal;font-size:16.9333px;font-family:'Jaapokki subtract';-inkscape-font-specification:'Jaapokki subtract, Bold';font-variant-ligatures:normal;font-variant-caps:normal;font-variant-numeric:normal;font-variant-east-asian:normal;stroke-width:0.264583"
         d="m 51.668488,25.781698 0.0508,0.01693 c 1.236131,0.423333 1.964263,1.015998 1.964263,1.659464 0,0.304799 -0.321733,1.202264 -1.303864,1.202264 -0.524933,0 -1.930396,0 -3.183461,-1.337731 l -1.727196,1.625597 c 0.812798,0.863598 1.761063,1.456264 2.827861,1.79493 0.846665,0.253999 1.557863,0.287866 2.082796,0.287866 1.066798,0 2.031996,-0.440266 2.726261,-1.219198 0.592666,-0.660398 0.948265,-1.523997 0.948265,-2.353728 0,-0.846665 -0.321733,-1.64253 -0.931332,-2.319862 -0.609598,-0.660399 -1.49013,-1.185331 -2.624661,-1.574797 -0.1016,-0.03387 -0.2032,-0.06773 -0.338666,-0.1016 -1.083731,-0.270933 -1.507064,-0.609599 -1.523997,-1.219198 -0.01693,-0.389466 0.1016,-0.575732 0.203199,-0.677332 0.3048,-0.321732 0.897465,-0.440265 1.049865,-0.440265 1.032931,0 1.523997,0.321732 2.285996,0.812798 l 0.423332,0.270933 1.236131,-2.015063 -0.389466,-0.253999 c -0.863598,-0.558799 -1.828796,-1.185331 -3.555993,-1.185331 -0.609599,0 -1.879596,0.253999 -2.760128,1.168397 -0.609599,0.643466 -0.914398,1.473197 -0.863598,2.421462 0.0508,1.134531 0.575732,2.048929 1.523997,2.675462 0.677332,0.457199 1.405464,0.643465 1.79493,0.745065 z" />
      <path
         id="path8673"
         style="font-style:normal;font-variant:normal;font-weight:bold;font-stretch:normal;font-size:16.9333px;font-family:'Jaapokki subtract';-inkscape-font-specification:'Jaapokki subtract, Bold';font-variant-ligatures:normal;font-variant-caps:normal;font-variant-numeric:normal;font-variant-east-asian:normal;stroke-width:0.264583"
         d="m 57.324174,18.923712 v 2.370662 h 3.301993 v 9.499581 h 2.370662 v -9.499581 h 3.28506 v -2.370662 z" />
      <path
         id="path8675"
         style="font-style:normal;font-variant:normal;font-weight:bold;font-stretch:normal;font-size:16.9333px;font-family:'Jaapokki subtract';-inkscape-font-specification:'Jaapokki subtract, Bold';font-variant-ligatures:normal;font-variant-caps:normal;font-variant-numeric:normal;font-variant-east-asian:normal;stroke-width:0.264583"
         d="m 73.021311,18.703579 c -3.38666,0 -6.146788,2.760128 -6.146788,6.146788 0,3.38666 2.760128,6.146787 6.146788,6.146787 3.38666,0 6.146788,-2.760127 6.146788,-6.146787 0,-3.38666 -2.760128,-6.146788 -6.146788,-6.146788 z m 0,2.438395 c 2.048929,0 3.708393,1.659463 3.708393,3.708393 0,2.048929 -1.659464,3.708392 -3.708393,3.708392 -2.048929,0 -3.708393,-1.659463 -3.708393,-3.708392 0,-2.04893 1.659464,-3.708393 3.708393,-3.708393 z" />
    </g>
  </g>
</svg>
