<?xml version="1.0" encoding="UTF-8" standalone="no"?>
<svg
   xmlns:dc="http://purl.org/dc/elements/1.1/"
   xmlns:cc="http://creativecommons.org/ns#"
   xmlns:rdf="http://www.w3.org/1999/02/22-rdf-syntax-ns#"
   xmlns:svg="http://www.w3.org/2000/svg"
   xmlns="http://www.w3.org/2000/svg"
   xmlns:sodipodi="http://sodipodi.sourceforge.net/DTD/sodipodi-0.dtd"
   xmlns:inkscape="http://www.inkscape.org/namespaces/inkscape"
   width="129.04068mm"
   height="22.858397mm"
   viewBox="0 0 129.04068 22.858397"
   version="1.1"
   id="svg2822"
   inkscape:version="1.0 (1.0+r73+1)"
   sodipodi:docname="web_trees.svg">
  <defs
     id="defs2816" />
  <sodipodi:namedview
     id="base"
     pagecolor="#ffffff"
     bordercolor="#666666"
     borderopacity="1.0"
     inkscape:pageopacity="0.0"
     inkscape:pageshadow="2"
     inkscape:zoom="0.98994949"
     inkscape:cx="215.02551"
     inkscape:cy="108.4817"
     inkscape:document-units="mm"
     inkscape:current-layer="layer1"
     inkscape:document-rotation="0"
     showgrid="false"
     inkscape:window-width="1420"
     inkscape:window-height="1015"
     inkscape:window-x="422"
     inkscape:window-y="10"
     inkscape:window-maximized="0" />
  <metadata
     id="metadata2819">
    <rdf:RDF>
      <cc:Work
         rdf:about="">
        <dc:format>image/svg+xml</dc:format>
        <dc:type
           rdf:resource="http://purl.org/dc/dcmitype/StillImage" />
        <dc:title></dc:title>
      </cc:Work>
    </rdf:RDF>
  </metadata>
  <g
     inkscape:label="Layer 1"
     inkscape:groupmode="layer"
     id="layer1"
     transform="translate(-7.2951316,-56.606516)">
    <g
       id="g1730-1-9-1-3-0-1-3"
       transform="matrix(0.09374357,0,0,0.09374357,27.938967,56.346717)"
       style="opacity:1">
      <path
         sodipodi:arc-type="arc"
         transform="matrix(0.97084476,0.2397091,-0.22012928,0.97547071,0,0)"
         d="M -173.24782,215.75871 A 90.664459,83.138031 0 0 1 -164.1831,120.7496 90.664459,83.138031 0 0 1 -63.721023,96.065503 90.664459,83.138031 0 0 1 -4.0656357,174.1897"
         sodipodi:open="true"
         sodipodi:end="0"
         sodipodi:start="2.6179939"
         sodipodi:ry="83.138031"
         sodipodi:rx="90.664459"
         sodipodi:cy="174.1897"
         sodipodi:cx="-94.730095"
         sodipodi:type="arc"
         id="path1631-8-6-3-8-8-2-6"
         style="opacity:1;fill:#003a00;fill-opacity:1;stroke-width:0.335516" />
      <path
         sodipodi:nodetypes="ccccccccccccc"
         inkscape:connector-curvature="0"
         id="path1661-7-4-2-0-0-4-7"
         d="m -138.33929,106.5 7.55166,6.21924 2.14209,28.51264 23.12533,-21.83483 3.46664,4.48985 -24.94643,24.19048 0.75595,91.47024 h -15.875 l 2.26786,-77.10714 -27.97024,-15.11905 4.53571,-7.55953 23.43453,8.31548 z"
         style="fill:#000000;fill-opacity:1;stroke:#000000;stroke-width:0.264583px;stroke-linecap:butt;stroke-linejoin:miter;stroke-opacity:1" />
    </g>
    <g
       id="g1742-92-3-1-9-4-9-5"
       transform="matrix(0.10853791,0,0,0.10853791,28.052949,53.171029)"
       style="opacity:1">
      <rect
         y="65.842766"
         x="16.090687"
         height="172.03369"
         width="11.339282"
         id="rect1497-5-0-3-5-7-1-01-3"
         style="opacity:1;fill:#000000;fill-opacity:1;stroke-width:0.397156" />
      <g
         transform="matrix(1,0,0,0.94041768,0,3.2716042)"
         id="g1579-23-3-9-9-1-4-5">
        <rect
           style="opacity:1;fill:#000000;fill-opacity:1;stroke-width:0.264583"
           id="rect1551-7-8-9-9-3-4-6"
           width="8.0180855"
           height="57.195675"
           x="6.2100463"
           y="-119.7988"
           transform="rotate(151.41363)" />
        <rect
           style="opacity:1;fill:#000000;fill-opacity:1;stroke-width:0.264583"
           id="rect1551-6-5-6-1-3-5-3-2"
           width="8.0180855"
           height="57.195679"
           x="-50.597466"
           y="-97.546921"
           transform="rotate(-154.06684)" />
      </g>
      <g
         id="g1579-2-92-0-4-2-9-2-9"
         transform="matrix(1.2285214,0,0,1.0463418,-6.7669122,42.01555)">
        <rect
           style="opacity:1;fill:#000000;fill-opacity:1;stroke-width:0.264583"
           id="rect1551-9-2-4-9-4-3-5-1"
           width="8.0180855"
           height="57.195675"
           x="6.2100463"
           y="-119.7988"
           transform="rotate(151.41363)" />
        <rect
           style="opacity:1;fill:#000000;fill-opacity:1;stroke-width:0.264583"
           id="rect1551-6-1-8-8-1-3-4-13-2"
           width="8.0180855"
           height="57.195679"
           x="-50.597466"
           y="-97.546921"
           transform="rotate(-154.06684)" />
      </g>
      <g
         id="g1579-2-2-9-8-0-7-1-2-7"
         transform="matrix(1.5376974,0,0,1.231709,-15.354463,75.144092)">
        <rect
           style="opacity:1;fill:#000000;fill-opacity:1;stroke-width:0.264583"
           id="rect1551-9-7-7-8-7-1-5-6-0"
           width="8.0180855"
           height="57.195675"
           x="6.2100463"
           y="-119.7988"
           transform="rotate(151.41363)" />
        <rect
           style="opacity:1;fill:#000000;fill-opacity:1;stroke-width:0.264583"
           id="rect1551-6-1-0-3-9-5-2-0-0-9"
           width="8.0180855"
           height="57.195679"
           x="-50.597466"
           y="-97.546921"
           transform="rotate(-154.06684)" />
      </g>
    </g>
    <g
       transform="matrix(0.06481068,0,0,0.06481068,12.938759,54.724688)"
       id="g1897-6-7-8-2-8-6-3"
       style="opacity:1">
      <path
         sodipodi:arc-type="arc"
         transform="rotate(66.412036)"
         d="m 443.95583,-271.95789 a 67.619186,78.309975 0 0 1 -84.62872,2.13856 67.619186,78.309975 0 0 1 -20.11985,-95.2227 67.619186,78.309975 0 0 1 75.91927,-43.35849 67.619186,78.309975 0 0 1 52.98371,76.45371"
         sodipodi:open="true"
         sodipodi:end="0"
         sodipodi:start="0.87266463"
         sodipodi:ry="78.309975"
         sodipodi:rx="67.619186"
         sodipodi:cy="-331.94681"
         sodipodi:cx="400.49106"
         sodipodi:type="arc"
         id="path1684-0-8-12-7-7-0-3-9-6"
         style="opacity:1;fill:#c95501;fill-opacity:1;stroke-width:0.264583" />
      <path
         sodipodi:nodetypes="ccccccc"
         inkscape:connector-curvature="0"
         id="path1678-2-9-93-6-0-2-5-6-0"
         d="m 461.53077,166.57888 6.94901,4.27631 2.6727,106.37327 9.62171,91.40618 -22.45065,3.74178 -1.60361,-96.21704 z"
         style="fill:#000000;fill-opacity:1;stroke:#000000;stroke-width:0.264583px;stroke-linecap:butt;stroke-linejoin:miter;stroke-opacity:1" />
      <path
         inkscape:connector-curvature="0"
         id="path1686-3-7-1-4-4-1-6-8-6"
         d="m 468.47981,194.37491 30.4687,-22.98518 5.3454,2.6727 -36.34867,29.93419 z"
         style="fill:#000000;fill-opacity:1;stroke:#000000;stroke-width:0.264583px;stroke-linecap:butt;stroke-linejoin:miter;stroke-opacity:1" />
      <path
         inkscape:connector-curvature="0"
         id="path1688-7-3-9-3-8-7-5-0-2"
         d="m 469.54888,238.20712 55.59206,-48.10852 4.81084,4.81085 -61.47197,56.1266 z"
         style="fill:#000000;fill-opacity:1;stroke:#000000;stroke-width:0.264583px;stroke-linecap:butt;stroke-linejoin:miter;stroke-opacity:1" />
      <path
         inkscape:connector-curvature="0"
         id="path1690-5-6-4-0-0-5-9-8-6"
         d="m 471.15247,277.22846 64.67925,-31.00326 -2.13815,8.55263 -62.54108,36.34865 z"
         style="fill:#000000;fill-opacity:1;stroke:#000000;stroke-width:0.264583px;stroke-linecap:butt;stroke-linejoin:miter;stroke-opacity:1" />
      <path
         inkscape:connector-curvature="0"
         id="path1692-9-1-7-3-4-1-9-6-1"
         d="m 462.06532,184.21867 -19.77794,-11.75986 -5.87994,0.53454 32.07237,21.38156 z"
         style="fill:#000000;fill-opacity:1;stroke:#000000;stroke-width:0.264583px;stroke-linecap:butt;stroke-linejoin:miter;stroke-opacity:1" />
      <path
         inkscape:connector-curvature="0"
         id="path1694-2-2-8-0-2-7-0-7-8"
         d="m 459.31652,241.46456 -43.07431,-53.54307 -6.15348,4.05922 51.01425,62.82129 z"
         style="fill:#000000;fill-opacity:1;stroke:#000000;stroke-width:0.274233px;stroke-linecap:butt;stroke-linejoin:miter;stroke-opacity:1" />
      <path
         inkscape:connector-curvature="0"
         id="path1696-2-9-4-9-9-4-7-5-7"
         d="m 458.62924,277.47753 -69.54765,-43.65625 -0.37795,7.55953 69.7366,53.29464 z"
         style="fill:#000000;fill-opacity:1;stroke:#000000;stroke-width:0.264583px;stroke-linecap:butt;stroke-linejoin:miter;stroke-opacity:1" />
    </g>
    <g
       id="g1749-5-2-6-1-6-4-9"
       transform="matrix(0.13144931,0,0,0.13144931,42.79347,49.712078)"
       style="opacity:1">
      <g
         style="fill:#003a00;fill-opacity:1"
         id="g1636-0-5-1-7-3-4-2">
        <path
           sodipodi:type="star"
           style="opacity:1;fill:#003a00;fill-opacity:1;stroke-width:0.264583"
           id="path1446-36-4-0-1-7-6-0"
           sodipodi:sides="3"
           sodipodi:cx="112.6369"
           sodipodi:cy="72.48214"
           sodipodi:r1="34.775864"
           sodipodi:r2="17.387932"
           sodipodi:arg1="-1.5816655"
           sodipodi:arg2="-0.53446791"
           inkscape:flatsided="false"
           inkscape:rounded="0"
           inkscape:randomized="0"
           d="m 112.25892,37.70833 15.34099,25.916689 15.34098,25.916687 -30.115,0.327338 -30.115002,0.327338 14.774019,-26.244026 z"
           inkscape:transform-center-x="-0.18898258"
           inkscape:transform-center-y="-7.0463439"
           transform="matrix(0.99998464,0,0,0.82608696,0.0017301,21.299041)" />
        <path
           sodipodi:type="star"
           style="opacity:1;fill:#003a00;fill-opacity:1;stroke-width:0.264583"
           id="path1446-3-10-0-4-1-6-0-2"
           sodipodi:sides="3"
           sodipodi:cx="113.95982"
           sodipodi:cy="110.87205"
           sodipodi:r1="34.775864"
           sodipodi:r2="17.387934"
           sodipodi:arg1="-1.5816655"
           sodipodi:arg2="-0.53446791"
           inkscape:flatsided="false"
           inkscape:rounded="0"
           inkscape:randomized="0"
           d="m 113.58185,76.098238 15.34098,25.916692 15.34098,25.91668 -30.115,0.32734 -30.115,0.32734 14.774017,-26.24403 z"
           inkscape:transform-center-x="-0.24710152"
           inkscape:transform-center-y="-10.986768"
           transform="matrix(1.3075018,0,0,1.2880474,-36.249538,-30.235376)" />
        <path
           sodipodi:type="star"
           style="opacity:1;fill:#003a00;fill-opacity:1;stroke-width:0.264583"
           id="path1446-3-7-6-5-2-1-1-5-3"
           sodipodi:sides="3"
           sodipodi:cx="113.95982"
           sodipodi:cy="110.87205"
           sodipodi:r1="34.775864"
           sodipodi:r2="17.387934"
           sodipodi:arg1="-1.5816655"
           sodipodi:arg2="-0.53446791"
           inkscape:flatsided="false"
           inkscape:rounded="0"
           inkscape:randomized="0"
           d="m 113.58185,76.098238 15.34098,25.916692 15.34098,25.91668 -30.115,0.32734 -30.115,0.32734 14.774017,-26.24403 z"
           inkscape:transform-center-x="-0.32181646"
           inkscape:transform-center-y="-13.566598"
           transform="matrix(1.7028612,0,0,1.5904972,-81.155189,-23.391154)" />
      </g>
      <rect
         y="142.9747"
         x="106.58929"
         height="76.351196"
         width="11.339282"
         id="rect1497-32-9-2-7-5-5-7"
         style="opacity:1;fill:#000000;fill-opacity:1;stroke-width:0.264583" />
    </g>
    <g
       id="g1730-3-0-4-2-0-0-3-5"
       transform="matrix(0.08663635,0,0,0.08663635,85.503676,58.062328)"
       style="opacity:1">
      <path
         sodipodi:arc-type="arc"
         transform="matrix(0.97084476,0.2397091,-0.22012928,0.97547071,0,0)"
         d="M -173.24782,215.75871 A 90.664459,83.138031 0 0 1 -164.1831,120.7496 90.664459,83.138031 0 0 1 -63.721023,96.065503 90.664459,83.138031 0 0 1 -4.0656357,174.1897"
         sodipodi:open="true"
         sodipodi:end="0"
         sodipodi:start="2.6179939"
         sodipodi:ry="83.138031"
         sodipodi:rx="90.664459"
         sodipodi:cy="174.1897"
         sodipodi:cx="-94.730095"
         sodipodi:type="arc"
         id="path1631-6-6-6-0-4-6-9-9"
         style="opacity:1;fill:#eaa81b;fill-opacity:1;stroke-width:0.335516" />
      <path
         sodipodi:nodetypes="ccccccccccccc"
         inkscape:connector-curvature="0"
         id="path1661-1-1-9-5-0-5-1-2"
         d="m -138.33929,106.5 7.55166,6.21924 2.14209,28.51264 23.12533,-21.83483 3.46664,4.48985 -24.94643,24.19048 0.75595,91.47024 h -15.875 l 2.26786,-77.10714 -27.97024,-15.11905 4.53571,-7.55953 23.43453,8.31548 z"
         style="fill:#000000;fill-opacity:1;stroke:#000000;stroke-width:0.264583px;stroke-linecap:butt;stroke-linejoin:miter;stroke-opacity:1" />
    </g>
    <g
       id="g1753-5-2-5-8-0-50-2"
       transform="matrix(0.10538735,0,0,0.10538735,64.71867,53.591478)"
       style="opacity:1">
      <path
         transform="matrix(1.6584864,0,0,2.7922108,36.372725,-158.75764)"
         inkscape:transform-center-y="-23.816963"
         inkscape:transform-center-x="-0.31343217"
         d="m 113.58185,76.098238 15.34098,25.916692 15.34098,25.91668 -30.115,0.32734 -30.115,0.32734 14.774017,-26.24403 z"
         inkscape:randomized="0"
         inkscape:rounded="0"
         inkscape:flatsided="false"
         sodipodi:arg2="-0.53446791"
         sodipodi:arg1="-1.5816655"
         sodipodi:r2="17.387934"
         sodipodi:r1="34.775864"
         sodipodi:cy="110.87205"
         sodipodi:cx="113.95982"
         sodipodi:sides="3"
         id="path1446-3-7-5-54-2-2-5-8-4-8"
         style="opacity:1;fill:#003a00;fill-opacity:1;stroke-width:0.264583"
         sodipodi:type="star" />
      <rect
         y="162.59433"
         x="220.28461"
         height="76.351196"
         width="11.339282"
         id="rect1497-3-7-4-9-1-1-9-9"
         style="opacity:1;fill:#000000;fill-opacity:1;stroke-width:0.264583" />
    </g>
    <g
       transform="matrix(0.10420863,0,0,0.10420863,55.953871,40.085927)"
       id="g1897-3-6-7-0-6-2-6-7"
       style="opacity:1">
      <g
         id="g1946-5-7-2-6-2-7-3">
        <path
           sodipodi:arc-type="arc"
           style="opacity:1;fill:#7d0000;fill-opacity:1;stroke-width:0.264583"
           id="path1684-0-8-1-6-5-8-2-6-4-6"
           sodipodi:type="arc"
           sodipodi:cx="400.49106"
           sodipodi:cy="-331.94681"
           sodipodi:rx="67.619186"
           sodipodi:ry="78.309975"
           sodipodi:start="0.87266463"
           sodipodi:end="0"
           sodipodi:open="true"
           d="m 443.95583,-271.95789 a 67.619186,78.309975 0 0 1 -84.62872,2.13856 67.619186,78.309975 0 0 1 -20.11985,-95.2227 67.619186,78.309975 0 0 1 75.91927,-43.35849 67.619186,78.309975 0 0 1 52.98371,76.45371"
           transform="rotate(66.412036)" />
        <path
           style="fill:#000000;fill-opacity:1;stroke:#000000;stroke-width:0.264583px;stroke-linecap:butt;stroke-linejoin:miter;stroke-opacity:1"
           d="m 461.53077,166.57888 6.94901,4.27631 2.6727,106.37327 9.62171,91.40618 -22.45065,3.74178 -1.60361,-96.21704 z"
           id="path1678-2-9-9-9-4-3-1-9-3-1"
           inkscape:connector-curvature="0"
           sodipodi:nodetypes="ccccccc" />
        <path
           style="fill:#000000;fill-opacity:1;stroke:#000000;stroke-width:0.264583px;stroke-linecap:butt;stroke-linejoin:miter;stroke-opacity:1"
           d="m 468.47981,194.37491 30.4687,-22.98518 5.3454,2.6727 -36.34867,29.93419 z"
           id="path1686-3-7-4-3-8-8-9-1-0-2"
           inkscape:connector-curvature="0" />
        <path
           style="fill:#000000;fill-opacity:1;stroke:#000000;stroke-width:0.264583px;stroke-linecap:butt;stroke-linejoin:miter;stroke-opacity:1"
           d="m 469.54888,238.20712 55.59206,-48.10852 4.81084,4.81085 -61.47197,56.1266 z"
           id="path1688-7-3-7-7-1-0-6-0-96-9"
           inkscape:connector-curvature="0" />
        <path
           style="fill:#000000;fill-opacity:1;stroke:#000000;stroke-width:0.264583px;stroke-linecap:butt;stroke-linejoin:miter;stroke-opacity:1"
           d="m 471.15247,277.22846 64.67925,-31.00326 -2.13815,8.55263 -62.54108,36.34865 z"
           id="path1690-5-6-8-4-2-4-4-4-6-3"
           inkscape:connector-curvature="0" />
        <path
           style="fill:#000000;fill-opacity:1;stroke:#000000;stroke-width:0.264583px;stroke-linecap:butt;stroke-linejoin:miter;stroke-opacity:1"
           d="m 462.06532,184.21867 -19.77794,-11.75986 -5.87994,0.53454 32.07237,21.38156 z"
           id="path1692-9-1-4-5-8-0-8-2-0-1"
           inkscape:connector-curvature="0" />
        <path
           style="fill:#000000;fill-opacity:1;stroke:#000000;stroke-width:0.274233px;stroke-linecap:butt;stroke-linejoin:miter;stroke-opacity:1"
           d="m 459.31652,241.46456 -43.07431,-53.54307 -6.15348,4.05922 51.01425,62.82129 z"
           id="path1694-2-2-5-2-9-9-0-7-4-9"
           inkscape:connector-curvature="0" />
        <path
           style="fill:#000000;fill-opacity:1;stroke:#000000;stroke-width:0.264583px;stroke-linecap:butt;stroke-linejoin:miter;stroke-opacity:1"
           d="m 458.62924,277.47753 -69.54765,-43.65625 -0.37795,7.55953 69.7366,53.29464 z"
           id="path1696-2-9-0-5-3-1-8-4-5-4"
           inkscape:connector-curvature="0" />
      </g>
    </g>
    <g
       id="g1753-4-6-9-1-0-8-7"
       transform="matrix(0.0673287,0,0,0.0673287,100.25917,62.737753)"
       style="opacity:1">
      <path
         transform="matrix(1.6584864,0,0,2.7922108,36.372725,-158.75764)"
         inkscape:transform-center-y="-23.816963"
         inkscape:transform-center-x="-0.31343217"
         d="m 113.58185,76.098238 15.34098,25.916692 15.34098,25.91668 -30.115,0.32734 -30.115,0.32734 14.774017,-26.24403 z"
         inkscape:randomized="0"
         inkscape:rounded="0"
         inkscape:flatsided="false"
         sodipodi:arg2="-0.53446791"
         sodipodi:arg1="-1.5816655"
         sodipodi:r2="17.387934"
         sodipodi:r1="34.775864"
         sodipodi:cy="110.87205"
         sodipodi:cx="113.95982"
         sodipodi:sides="3"
         id="path1446-3-7-5-7-8-6-0-3-2-8"
         style="opacity:1;fill:#003a00;fill-opacity:1;stroke-width:0.264583"
         sodipodi:type="star" />
      <rect
         y="162.59433"
         x="220.28461"
         height="76.351196"
         width="11.339282"
         id="rect1497-3-4-0-2-2-2-8-4"
         style="opacity:1;fill:#000000;fill-opacity:1;stroke-width:0.264583" />
    </g>
    <g
       id="g1730-0-4-2-5-2-8-6-5"
       transform="matrix(0.10171642,0,0,0.10171642,140.44607,54.459708)"
       style="opacity:1">
      <path
         sodipodi:arc-type="arc"
         transform="matrix(0.97084476,0.2397091,-0.22012928,0.97547071,0,0)"
         d="M -173.24782,215.75871 A 90.664459,83.138031 0 0 1 -164.1831,120.7496 90.664459,83.138031 0 0 1 -63.721023,96.065503 90.664459,83.138031 0 0 1 -4.0656357,174.1897"
         sodipodi:open="true"
         sodipodi:end="0"
         sodipodi:start="2.6179939"
         sodipodi:ry="83.138031"
         sodipodi:rx="90.664459"
         sodipodi:cy="174.1897"
         sodipodi:cx="-94.730095"
         sodipodi:type="arc"
         id="path1631-63-3-1-4-9-0-8-0"
         style="opacity:1;fill:#c95501;fill-opacity:1;stroke-width:0.335516" />
      <path
         sodipodi:nodetypes="ccccccccccccc"
         inkscape:connector-curvature="0"
         id="path1661-2-0-0-4-7-3-53-3"
         d="m -138.33929,106.5 7.55166,6.21924 2.14209,28.51264 23.12533,-21.83483 3.46664,4.48985 -24.94643,24.19048 0.75595,91.47024 h -15.875 l 2.26786,-77.10714 -27.97024,-15.11905 4.53571,-7.55953 23.43453,8.31548 z"
         style="fill:#000000;fill-opacity:1;stroke:#000000;stroke-width:0.264583px;stroke-linecap:butt;stroke-linejoin:miter;stroke-opacity:1" />
    </g>
    <path
       style="opacity:1;fill:#5c5c5c;fill-opacity:1;stroke:#5c5c5c;stroke-width:1.07;stroke-linecap:butt;stroke-linejoin:miter;stroke-miterlimit:4;stroke-dasharray:none;stroke-opacity:1"
       d="M 8.8623504,78.929913 132.37665,78.825653"
       id="path4503-8-0-6"
       inkscape:connector-curvature="0" />
  </g>
</svg>
